<?xml version="1.0" encoding="UTF-8"?><svg xmlns="http://www.w3.org/2000/svg" width="330" height="330" viewBox="0 0 330 330"><defs><style>.d{fill:#006837;}.e{fill:#b31f27;}.f{fill:#1a3f1d;}.g{fill:#3f6030;}.h{fill:#730026;}.i{fill:#56381c;}.j{fill:#8f0026;opacity:.54;}.k{fill:#e6e6e6;opacity:.27;}</style></defs><g id="a"/><g id="b"><g id="c"><g><polygon class="d" points="165.04 318.95 167.53 309.13 164.83 308.88 165.04 318.95"/><polygon class="d" points="168.29 317.21 165.8 307.39 168.5 307.14 168.29 317.21"/><path class="d" d="M155.53,330c2.08-1.62,6.32-5.4,7.75-11.3,1.91-7.86-2.06-15.76-3.88-15.65-1.32,.08-1.08,4.37-3.88,5.22-2.54,.77-5.71-1.87-5.81-1.74-.13,.17,6.24,2.75,8.72,6.96,1.8,3.05,2.18,8.02-2.91,16.52Z"/><path class="d" d="M178.32,326.52c-2.08-1.62-6.32-5.4-7.75-11.3-1.91-7.86,2.06-15.76,3.88-15.65,1.32,.08,1.08,4.37,3.88,5.22,2.54,.77,5.71-1.87,5.81-1.74,.13,.17-6.24,2.75-8.72,6.96-1.8,3.05-2.18,8.02,2.91,16.52Z"/><path class="h" d="M117.99,63.64c.39,3.24,24.32,3.23,53.45-.02,4.52-.5,7.89-.94,9.03-1.1,18.63-2.59,43.3-8.04,43-10.66-.32-2.75-28.08-2.81-53.45,.02-29.13,3.25-52.42,8.52-52.03,11.76Z"/><path class="e" d="M200.64,53.09c35.4-8.18,82.1,5.89,107.47,34.49,32.58,36.73,21.08,87.38,14.05,118.34-5.07,22.34-21.42,73.37-63.22,98.73-30.37,18.43-61.81,10.14-61.81,10.14-14.4-3.04-20.08-5.52-35.82-4.73-17.97,.9-24.52,6.6-35.82,8.11-24.71,3.32-46.8-16.75-61.11-29.75-8.26-7.5-86.42-80.6-58.3-156.88,2.02-5.49,17.98-46.9,57.6-62.89,18.03-7.28,37.88-8.05,40.04-8.11,20.48-.65,27.58,4.44,45.66,4.73,23.79,.38,33.59-8.09,51.27-12.17Z"/><path class="i" d="M158.49,64.24c.3-4.18,.27-10.28,2.81-16.91,2.56-6.68,5.76-19.11,14.05-29.75C179.57,12.17,194.66,.34,203.45,0c1.08-.04,4.32,.87,5.62,3.38,1.3,2.51,.34,6.28-1.4,6.76-1.16,.32-2.8-.77-3.51-2.03-.73-1.29-.86-.85-1.4-1.35-1.42-1.31-6.91,1.47-7.73,2.03-5.53,3.74-8.57,5.8-13.35,10.82-3.16,3.32-7.79,8.19-11.94,15.55-6.26,11.12-8,21.86-8.43,29.08h-2.81Z"/><path class="k" d="M64.56,101.56c1.03,.89,1.16,2.4,.31,3.45-7.19,8.94-21.92,30.21-23.74,60.67-2.08,34.78,13.96,60.2,21.4,70.23,1.05,1.42,.35,3.41-1.38,3.92-2.77,.82-6.11,1.97-9.77,3.59-7.88,3.51-9.78,5.93-11.83,6.1-10.41,.87-31.22-37.76-29.97-83.07,.69-24.96,6.17-72.33,28.39-75.45,9.67-1.36,19.38,4.3,26.58,10.57Z"/><path class="j" d="M255.42,58.49c8.12,5.54,58.05,40.84,66.02,106.17,9.09,74.44-44.09,123.96-49.87,129.16-1.39,.47-15.32,4.94-27.39-3.38-8.18-5.64-10.61-13.79-11.24-16.23,14.07-16.32,38.08-49.58,40.04-94.67,1.83-42.21-1.23-87.16-33.01-89.94-3.86-.34-8.9,2.18-12.64-.68-5.11-3.9-4.64-14.82,0-21.64,5.22-7.68,16.37-11.15,28.1-8.79Z"/><g><path class="f" d="M143.74,18.6c16.11,10.07,16.8,32.11,16.86,35.84-3.88-6.75-11.65-17.48-25.29-23.67-11.81-5.36-23.81-5.4-30.2-5.41-12.09-.03-14.47,2.4-22.48,1.35-8.05-1.05-17.17-5.02-26.69-14.88,11.93,5.2,21.6,5.46,28.1,5.41,13.92-.12,18.16-4.19,33.71-4.06,8.01,.07,17.57,.15,25.99,5.41Z"/><path class="g" d="M135.31,30.77c13.64,6.19,21.4,16.92,25.29,23.67-20.86-12.46-37.69-14.92-49.17-14.88-14.2,.05-22.9,3.93-33.71-.68-12.32-5.25-18.51-17.73-21.77-27.05,9.52,9.85,18.64,13.82,26.69,14.88,8.01,1.05,10.39-1.39,22.48-1.35,6.39,.01,18.4,.05,30.2,5.41Z"/></g></g></g></g></svg>