<?xml version="1.0" encoding="UTF-8"?><svg xmlns="http://www.w3.org/2000/svg" width="1917" height="1079" xmlns:xlink="http://www.w3.org/1999/xlink" viewBox="0 0 1917 1079"><defs><style>.g{fill:#f15a24;}.h{fill:#f4f3e8;}.i{fill:#f7931e;}.j{fill:#f0d2b2;}.k{fill:#f0c124;}.l{fill:#b74439;}.m{fill:#a99d96;}.n{fill:#42210b;}.o{opacity:.85;}.p{clip-path:url(#f);}.q{clip-path:url(#e);}.r{clip-path:url(#d);}</style><clipPath id="d"><rect class="h" width="1917" height="1079"/></clipPath><clipPath id="e"><path class="j" d="M-1.17,1090.14c.7-81.84,12.67-477.22,329.88-799.03C679.08-64.33,1127.32-51.53,1193.5-48.52c62.71,2.85,512.03,30.84,829.49,415.6,244.57,296.42,261.63,623.7,263.01,723.95-762.39-.3-1524.78-.6-2287.17-.9Z"/></clipPath><clipPath id="f"><path class="n" d="M503.26,927.45c-.56-44.95,1.54-261.06,172.46-440.01,184.35-193.02,424.08-195.15,469.6-194.65,39.22,.44,282.5,7.18,466.72,206.79,163.08,176.71,168.6,383.99,168.61,432.51-425.8-1.55-851.59-3.1-1277.39-4.65Z"/></clipPath></defs><g id="a"/><g id="b"><g id="c"><g><rect class="h" width="1917" height="1079"/><g class="r"><g class="o"><g><path class="j" d="M-1.17,1090.14c.7-81.84,12.67-477.22,329.88-799.03C679.08-64.33,1127.32-51.53,1193.5-48.52c62.71,2.85,512.03,30.84,829.49,415.6,244.57,296.42,261.63,623.7,263.01,723.95-762.39-.3-1524.78-.6-2287.17-.9Z"/><g class="q"><g><rect class="l" x="51.59" y="937.87" width="181.32" height="67.53" transform="translate(1.98 -.29) rotate(.12)"/><rect class="l" x="251.67" y="938.28" width="181.32" height="67.53" transform="translate(1.98 -.69) rotate(.12)"/><rect class="l" x="451.75" y="938.68" width="181.32" height="67.53" transform="translate(1.98 -1.1) rotate(.12)"/><rect class="l" x="651.83" y="939.09" width="181.32" height="67.53" transform="translate(1.98 -1.51) rotate(.12)"/><rect class="l" x="851.91" y="939.5" width="181.32" height="67.53" transform="translate(1.98 -1.92) rotate(.12)"/><rect class="l" x="1051.99" y="939.9" width="181.32" height="67.53" transform="translate(1.98 -2.32) rotate(.12)"/><rect class="l" x="1252.07" y="940.31" width="181.32" height="67.53" transform="translate(1.98 -2.73) rotate(.12)"/><rect class="l" x="1452.15" y="940.72" width="181.32" height="67.53" transform="translate(1.99 -3.14) rotate(.12)"/><rect class="l" x="1652.23" y="941.12" width="181.32" height="67.53" transform="translate(1.99 -3.54) rotate(.12)"/><rect class="l" x="1852.31" y="941.53" width="181.32" height="67.53" transform="translate(1.99 -3.95) rotate(.12)"/><rect class="l" x="-48.6" y="1013.95" width="181.32" height="67.53" transform="translate(2.13 -.08) rotate(.12)"/><rect class="l" x="151.48" y="1014.35" width="181.32" height="67.53" transform="translate(2.13 -.49) rotate(.12)"/><rect class="l" x="351.56" y="1014.76" width="181.32" height="67.53" transform="translate(2.13 -.9) rotate(.12)"/><rect class="l" x="551.64" y="1015.17" width="181.32" height="67.53" transform="translate(2.14 -1.3) rotate(.12)"/><rect class="l" x="751.72" y="1015.57" width="181.32" height="67.53" transform="translate(2.14 -1.71) rotate(.12)"/><rect class="l" x="951.8" y="1015.98" width="181.32" height="67.53" transform="translate(2.14 -2.12) rotate(.12)"/><rect class="l" x="1151.88" y="1016.39" width="181.32" height="67.53" transform="translate(2.14 -2.53) rotate(.12)"/><rect class="l" x="1351.96" y="1016.79" width="181.32" height="67.53" transform="translate(2.14 -2.93) rotate(.12)"/><rect class="l" x="1552.04" y="1017.2" width="181.32" height="67.53" transform="translate(2.14 -3.34) rotate(.12)"/><rect class="l" x="1752.12" y="1017.61" width="181.32" height="67.53" transform="translate(2.14 -3.75) rotate(.12)"/></g></g></g><path class="l" d="M369.15,928.33c-.67-54.88,1.87-318.77,208.68-537.29,223.07-235.7,513.13-238.31,568.21-237.69,47.46,.53,341.82,8.76,564.71,252.5,197.32,215.77,204,468.88,204.01,528.13-515.2-1.88-1030.41-3.76-1545.61-5.65Z"/><g><path class="n" d="M503.26,927.45c-.56-44.95,1.54-261.06,172.46-440.01,184.35-193.02,424.08-195.15,469.6-194.65,39.22,.44,282.5,7.18,466.72,206.79,163.08,176.71,168.6,383.99,168.61,432.51-425.8-1.55-851.59-3.1-1277.39-4.65Z"/><g class="p"><g class="o"><path class="g" d="M1035.19,995.8l203.74-.3c24.67-9.01,67.88-28.68,106.74-70.53,23.85-25.69,38.52-51.62,47.48-71.11-5.99,5.73-14.29,12.58-25.12,18.78-12.98,7.44-25.06,11.36-34.04,13.52,7.01-7.17,15.86-18.19,22.03-33.48,15.36-38.07,2.34-73.48-1.56-83.07-.83,5.27-3.33,16.2-12,26.39-13.95,16.4-33.3,18.41-37.52,18.75,4.92-17.49,12.45-53.49,2.32-96.91-12.93-55.37-46.69-88.89-60.02-100.86,7.5,12.49,27.33,49.17,23.45,99.17-3.74,48.24-27.34,80.62-36.59,92.09,2.74-17.75,4.65-41.36,2.1-68.89-2.61-28.16-9.04-51.46-15.16-68.61-3.12,11.81-8.97,28.62-20.47,46.48-10.82,16.81-22.81,28.62-31.86,36.26,3.86-17.4,7.2-37.12,9.18-58.86,2.74-29.98,2.27-56.9,.45-79.75-4.82,16.27-13.07,38.01-27.62,61.25-14.28,22.8-29.89,39.5-42.23,50.87,1.05-13.03,1.19-36.44-8.95-62.93-13.12-34.26-36-54.26-46.7-62.52,5.31,8.99,12.49,24.07,14.15,43.77,3.49,41.53-20.29,71.45-26.26,78.56-5.5-7.75-16.45-25.47-18.15-50.42-2.4-35.18,15.24-60.22,20.34-66.97-9.39,5.38-24.54,15.77-37.13,33.86-20.21,29.02-20.82,59.11-20.49,70.2-2.51-2.84-5.76-7.25-8.01-13.3-4.46-12.01-2.1-22.73-.91-26.99-3.99,7.05-11.26,22.13-11.67,42.58-.42,21.54,7,37.55,10.87,44.7-3.93-2.68-10.52-7.98-15.39-16.88-8.07-14.76-5.8-29.19-4.91-33.64-5.06,7.34-12.23,20.01-14.65,37.05-5.09,35.87,14.85,62.87,19.46,68.81-2.52,.44-7.66,.92-12.86-1.67-7.76-3.88-12.41-13-11.87-23.18-2.18,6.92-11.28,38.46,5.33,71.39,11.76,23.32,30.24,35.1,38.06,39.48-9.52-.64-20.36-2.02-32.12-4.72-20.46-4.69-37.21-11.84-49.81-18.47,14.49,21.57,36.85,49.75,69.77,76.52,24.83,20.19,48.89,34.07,68.59,43.59Z"/><path class="i" d="M1055.16,995.11c-16.6-19.21-41.05-52.85-54.64-100.61-7.2-25.31-9.51-48.1-9.88-66.21,2.44,12.81,9.7,41.43,33.49,68.38,25.56,28.94,55.62,39.43,68.08,43.03-13.81-10.82-68.54-56.26-77.94-132.95-4.23-34.51,2.19-63.3,8.08-81.55-.07,12.47,1.44,27.41,6.62,43.42,18.87,58.38,71.76,85.51,86.28,92.37,3.59-8.57,7.18-20.17,8.04-34.12,2.32-37.3-16.43-64.95-23.52-74.39,13.02,11.31,31.13,29.87,45.87,57.09,21.36,39.45,24.46,76.47,24.67,96,8.58-13.45,22.94-39.86,27.24-76.35,4.2-35.61-3.16-64.03-8.21-79.07,10.92,14.03,29.76,42.2,37.15,82.56,9.83,53.68-6.56,96.29-13.82,112.55,6.36-1.16,34.12-6.96,51.07-32.14,17.61-26.16,16.43-62.65-3.31-91.78,3.88,3.55,40.29,38.06,34.6,91.07-5.96,55.5-52.72,81.51-56.68,83.62-61.07-.3-122.14-.61-183.21-.91Z"/><path class="k" d="M1072.47,993.75c-1-12.82-3.38-28.46-8.67-45.67-8.56-27.86-21.38-48.92-31.59-62.9,10.9,4.85,28.87,14.63,44.81,33.33,25.27,29.64,29.15,62.55,29.97,74.68,10.83-13.23,22.99-32.6,18.57-51.96-4.54-19.88-23.35-25.65-36.84-42.66-13.11-16.53-23.34-46.4-8.09-104.93,4.2,16.75,12,40.01,27.19,64.85,17.51,28.63,37.82,47.89,52.23,59.54,16.94-10.79,26.91-29.69,26-49.46-1.29-28.1-23.86-42.97-25.98-44.32,7.81,4.81,39.99,25.85,51.83,68.15,14.56,52.02-13.53,93.73-17.52,99.44,10.72-8.16,37.23-30.65,49.58-69.93,8.12-25.81,6.79-48.26,4.98-61.21,5.1,13.53,15.21,46.14,5.76,85.42-5.41,22.46-15.31,39.18-22.77,49.61-53.15-.66-106.3-1.31-159.44-1.97Z"/></g></g></g><g><path class="m" d="M394.09,599.4c25.63-47.26,51.26-94.51,76.88-141.77,2.25-4.15,7.74-5.19,11.35-2.16,46.94,39.4,93.87,78.81,140.81,118.21,2.64,2.21,3.42,5.94,1.89,9.03-14.46,29.15-28.93,58.3-43.39,87.45-1.69,3.41-5.68,5-9.25,3.69-58.1-21.3-116.2-42.59-174.3-63.89-4.27-1.57-6.16-6.56-3.99-10.56Z"/><path class="m" d="M508.77,411.96c38.38-37.77,76.76-75.54,115.14-113.32,3.3-3.25,8.73-2.74,11.37,1.07,35.52,51.33,71.04,102.66,106.56,154,2.07,2.99,1.68,7.05-.93,9.59-24.48,23.84-48.96,47.67-73.43,71.51-2.64,2.57-6.76,2.83-9.7,.6-49.42-37.4-98.84-74.79-148.26-112.19-3.63-2.75-3.97-8.07-.73-11.26Z"/><path class="m" d="M337.66,803.08c11.84-52.43,23.69-104.87,35.53-157.3,1.04-4.61,6.05-7.1,10.35-5.15,55.73,25.2,111.47,50.4,167.2,75.6,3.12,1.41,4.88,4.77,4.26,8.15-5.89,31.97-11.77,63.94-17.66,95.91-.69,3.75-4.1,6.38-7.91,6.09-61.69-4.73-123.38-9.47-185.07-14.2-4.54-.35-7.71-4.64-6.7-9.08Z"/><path class="m" d="M329.09,921.06c-.63-22.17-1.25-44.35-1.88-66.52-.13-4.62,3.93-8.24,8.5-7.6,60.83,8.6,121.66,17.19,182.49,25.79,3.62,.51,6.34,3.58,6.41,7.23,.28,14.08,.57,28.17,.85,42.25,.08,4.2-3.32,7.64-7.52,7.61-60.49-.51-120.97-1.02-181.46-1.52-4.01-.03-7.28-3.24-7.39-7.25Z"/><path class="m" d="M1955.96,926.4c-.62-20.61-1.25-41.21-1.87-61.82-.13-4.35-3.94-7.66-8.26-7.19-59,6.43-118,12.87-177,19.3-3.66,.4-6.48,3.4-6.64,7.08-.66,14.43-1.31,28.87-1.97,43.3-.19,4.26,3.22,7.82,7.48,7.8,60.28-.26,120.56-.52,180.84-.78,4.19-.02,7.55-3.49,7.42-7.68Z"/><path class="m" d="M1902.88,646.19c14.07,51.86,28.14,103.72,42.21,155.59,1.23,4.55-2.01,9.09-6.71,9.4-61.1,4-122.2,8.01-183.3,12.01-3.61,.24-6.87-2.15-7.73-5.67-7.69-31.41-15.38-62.82-23.08-94.22-.86-3.5,.91-7.11,4.2-8.58,54.72-24.46,109.45-48.91,164.17-73.37,4.18-1.87,9.04,.44,10.24,4.86Z"/><path class="m" d="M1807.85,458.55c27.33,46.29,54.66,92.59,81.99,138.88,2.4,4.06,.47,9.31-3.99,10.84-59.87,20.63-119.73,41.26-179.6,61.88-3.41,1.17-7.17-.26-8.93-3.4l-47.16-83.95c-1.78-3.17-1.01-7.17,1.82-9.46,48.26-38.94,96.52-77.87,144.77-116.81,3.54-2.86,8.79-1.91,11.11,2.01Z"/><path class="m" d="M1656.86,304.31c38.72,37.39,77.44,74.77,116.15,112.16,3.35,3.23,2.95,8.71-.84,11.43-51.31,36.78-102.61,73.57-153.92,110.35-2.98,2.14-7.07,1.79-9.65-.81-23.56-23.78-47.12-47.57-70.67-71.35-2.56-2.59-2.88-6.64-.76-9.6,36.15-50.38,72.29-100.77,108.44-151.15,2.65-3.7,7.97-4.18,11.24-1.02Z"/><path class="m" d="M1486.43,194.47c46.36,27.23,92.73,54.46,139.09,81.69,4.06,2.38,4.92,7.89,1.78,11.4-40.86,45.74-81.73,91.47-122.59,137.21-2.3,2.58-6.08,3.24-9.12,1.59-28.77-15.62-57.54-31.24-86.31-46.86-3.34-1.81-4.78-5.84-3.35-9.36,23.27-57.35,46.54-114.69,69.81-172.04,1.71-4.22,6.77-5.93,10.69-3.63Z"/><path class="m" d="M1271.91,127.52c52.16,13.01,104.32,26.03,156.48,39.04,4.58,1.14,6.96,6.2,4.92,10.45-26.43,55.29-52.87,110.58-79.3,165.87-1.48,3.11-4.9,4.79-8.27,4.08-31.84-6.73-63.67-13.45-95.51-20.18-3.72-.79-6.26-4.25-5.88-8.03,6.11-61.58,12.22-123.16,18.33-184.74,.45-4.53,4.81-7.6,9.23-6.5Z"/><path class="m" d="M1064.17,116.89c51.22-.28,102.45-.56,153.67-.85,4.49-.02,7.98,3.9,7.45,8.35-7.45,61.68-14.9,123.36-22.36,185.04-.45,3.76-3.65,6.58-7.43,6.56l-103.4-.36c-3.68-.01-6.8-2.7-7.35-6.34-9.31-61.28-18.61-122.56-27.92-183.84-.68-4.5,2.78-8.55,7.33-8.58Z"/><path class="m" d="M857.69,168.21c51.59-14.63,103.18-29.27,154.77-43.9,4.53-1.28,9.1,1.89,9.47,6.58,4.89,61.29,9.77,122.59,14.66,183.88,.28,3.46-1.88,6.66-5.19,7.71-31.44,9.92-62.89,19.84-94.33,29.75-3.62,1.14-7.53-.62-9.06-4.1-25.03-56.58-50.07-113.16-75.1-169.73-1.83-4.15,.42-8.96,4.79-10.19Z"/><path class="m" d="M670.03,265.01c47.38-25.38,94.76-50.77,142.14-76.15,4.16-2.23,9.33-.08,10.67,4.45,17.46,58.82,34.91,117.64,52.37,176.46,.98,3.3-.43,6.84-3.4,8.57-28.01,16.3-56.02,32.59-84.03,48.89-3.29,1.91-7.48,1.05-9.74-2.01-36.83-49.73-73.66-99.46-110.49-149.2-2.71-3.66-1.54-8.86,2.47-11.01Z"/></g></g></g></g></g></g></svg>