<?xml version="1.0" encoding="UTF-8"?><svg xmlns="http://www.w3.org/2000/svg" width="380" height="380" viewBox="0 0 380 380"><defs><style>.e{fill:#ffdf9b;}.f{fill:#ffd67b;}.g{fill:#ffc42f;}.h{fill:#b3cb37;}.i{fill:#342705;}.j{fill:#dda741;opacity:.24;}</style></defs><g id="a"/><g id="b"><g id="c"><g id="d"><g><g><path class="g" d="M62.17,48.77c-15.83,15.16-31.66,30.33-47.49,45.49-5.14,4.93-8.66,11.07-10.19,17.73C1.4,125.48-.97,142.84,.39,162.74c6.57,96.36,95.38,176.81,188.08,204.15,26.18,7.72,83.7,25.18,134.54,0,40.75-20.18,62.22-59.8,54.91-67.63-4.58-4.91-15.59,3.69-48.05,8.77-34.76,5.44-62.72-.2-74.13-2.5-48.36-9.76-79.44-35.37-98.84-51.35-63.82-52.58-82.68-116.82-87.86-137.77-6.9-27.89-7.5-51.71-6.86-67.63Z"/><path class="f" d="M71.78,31.23c-4.52,5.64-11.55,15.47-16.47,28.81-35.67,96.67,83.23,259.5,219.65,266.77,22.59,1.2,55.9-1.31,96.1-20.04-3.2-5.84-6.41-11.69-9.61-17.53-21.26,3.08-54.83,5.35-93.35-3.76-66.26-15.67-136.64-67.72-170.23-137.77-9.61-20.04-27.32-60-16.47-102.7-11.44-8.35,1.83-5.43-9.61-13.78Z"/><path class="j" d="M350.78,297.01c.18,2.95,.05,7.3-1.61,12.27,0,0-.54,1.63-1.18,3.02-4.57,10.04-50.73,11.02-50.73,11.03-3.4,.07-63.33,1.09-79.45-11.5-2.27-1.77-3.12-3.84-3.12-3.84,0-1.98,.31-6.09,3.01-10.47,2.29-3.71,5.26-5.95,7-7.08,12.07,5.19,30.11,11.37,52.91,13.72,32.32,3.32,58.48-2.68,73.16-7.15Z"/><path class="h" d="M69.03,33.74c-1.79,2.11-3.68,5.86-5.49,8.77-2.56,4.11-4.29,7.98-5.49,11.27l20.59,7.51c-.08-2.55,.13-6.06,1.37-10.02,.78-2.49,1.78-4.59,2.75-6.26-4.58-3.34-9.15-7.93-13.73-11.27Z"/><path class="i" d="M88.25,50.02c-9.66-7.78-12.23-9.65-21.69-17.27-.26-.21-.42-.5-.45-.82-.23-2.98-.78-16.59,7.37-25.51C77.83,1.67,82.67,.4,85.24,.02c.44-.07,.88,.08,1.18,.38,4.21,4.27,8.43,8.54,12.64,12.82,.87,.89,1.02,2.2,.31,3.2-1.65,2.34-3.4,5.48-4.63,9.51-3.56,11.71-4.66,15.82-2.37,21.59,.39,.98-3.39,3.09-4.12,2.5Z"/><path class="e" d="M34.71,93.86c-6.8,4.65-13.6,9.31-20.4,13.96-1.01,.69-1.72,1.68-2,2.8-3.97,15.99-7.63,40.57-2.31,69.66,8.56,46.76,35.42,78.35,49.76,92.8,1.52,1.54,3.87,2.18,6.05,1.6,2.88-.76,6.43-2.04,10.09-4.22,4.69-2.79,7.84-6.03,9.81-8.48,.71-.88,.65-2.08-.14-2.9-12.81-13.35-32.19-37.13-43.99-71.29-14.17-40.98-10.24-76.09-6.86-93.93Z"/></g><path class="i" d="M357.03,286.2l22.97,5.6c-.41,6.41-.83,12.81-1.24,19.22-.01,.19-.24,.29-.41,.18-8.5-5.39-17-10.79-25.49-16.18-.28-.18-.37-.51-.22-.79l4.4-8.03Z"/></g></g></g></g></svg>