<?xml version="1.0" encoding="UTF-8"?><svg xmlns="http://www.w3.org/2000/svg" width="270" height="270" viewBox="0 0 270 270"><defs><style>.d{fill:#00883f;}.e{fill:#00853e;}.f{fill:#00a74a;opacity:.68;}.g{fill:#bcdeae;opacity:.85;}</style></defs><g id="a"/><g id="b"><g id="c"><g><path class="d" d="M149.5,163.51c3.61-5.53,11.3-15.62,24.34-21.77,19.8-9.34,38.46-3.24,47.53-.27,28.19,9.21,43.52,31.87,48.63,40.26-4.88,5.19-29.88,30.74-64.69,28.22-7.35-.53-24.33-1.77-38.84-15.76-11.5-11.09-15.52-24.5-16.97-30.67Z"/><path class="g" d="M168.69,156.24c4.46-3.09,21.89-14.35,45.4-10.92,27.07,3.95,41.83,24.41,44.47,28.21-8.57-5.57-21.9-12.76-39.38-16.75-21.58-4.93-39.72-2.74-50.49-.54Z"/><path class="f" d="M269.26,181.48c-14.97,2.39-36.25,4.13-61.12,.59-24.95-3.54-44.66-11.13-58.09-17.58,2.97,4.79,18.92,29.37,51.17,35.5,36.46,6.93,64.22-15.35,68.05-18.52Z"/><path class="e" d="M153.09,164.09c-3.65,2.91-10.26,9.06-14.05,19.17-5.75,15.35-1.07,29.37,1.21,36.19,7.08,21.19,22.89,32.2,28.73,35.84,3.38-3.87,19.98-23.65,17.24-50.08-.58-5.58-1.91-18.47-11.83-29.1-7.86-8.43-17.07-11.1-21.3-12.02Z"/><path class="g" d="M148.73,178.92c-1.96,3.49-9.09,17.09-6.07,34.89,3.47,20.49,17.78,31.13,20.44,33.03-4.03-6.36-9.3-16.3-12.52-29.49-3.97-16.29-3.03-30.16-1.85-38.43Z"/><path class="f" d="M168.79,254.74c1.18-11.47,1.74-27.72-1.39-46.55-3.14-18.89-8.86-33.67-13.62-43.71,3.33,2.12,20.48,13.55,25.58,37.91,5.77,27.56-8.52,49.34-10.57,52.35Z"/><path class="d" d="M156.01,161.55c1.29-6.58,2.87-19.44-1.94-33.69-7.29-21.63-24.33-31.72-32.62-36.63-25.75-15.25-51.81-11.37-61.06-9.49-.18,7.33-.38,44.12,25.38,69.07,5.44,5.27,18,17.44,37.57,18.89,15.51,1.16,27.45-5.01,32.66-8.16Z"/><path class="g" d="M147.73,141.82c-.97-5.55-5.31-26.69-23.88-42.34-21.38-18.02-45.54-15.22-49.97-14.62,9.72,2.72,23.83,7.98,38.62,18.63,18.26,13.15,29.29,28.55,35.22,38.33Z"/><path class="f" d="M61.07,82.14c8.7,13.13,22.2,30.64,41.79,47.27,19.64,16.68,38.42,26.55,52.1,32.4-5.32,1.03-33.12,5.77-59.57-14.72-29.9-23.17-33.84-59.82-34.32-64.95Z"/><path class="d" d="M160.24,163.37c-7.82-5.76-23.63-15.64-45.01-17.01-32.46-2.08-55.63,16.88-66.91,26.11C13.3,201.12,3.01,241.5,0,256.13c9.44,4.57,57.24,26.54,104.9,3.58,10.07-4.85,33.31-16.04,46.73-43.79,10.64-22,9.64-43.08,8.61-52.55Z"/><path class="g" d="M129.67,163.86c-7.81-1.85-37.88-7.96-69.21,9.97-36.06,20.64-46.64,57.6-48.47,64.43,9.27-12.6,24.43-30.14,47.01-45.49,27.87-18.95,54.44-26,70.67-28.91Z"/><path class="f" d="M.92,255.38c22.22-4.98,52.98-14.41,86.17-33.24,33.3-18.89,57.21-40.53,72.88-57.07-1.8,8.38-12,51.81-54.26,78.4-47.78,30.06-97.84,14.24-104.8,11.91Z"/><path class="d" d="M158.31,164.73c-5.02-8.57-13.52-25.81-13.7-48.51-.27-34.45,18.8-57.99,28.08-69.44C201.52,11.21,240.12,2.42,254.06,0c3.82,10.22,22.04,61.94-2.07,111.17-5.09,10.4-16.85,34.41-43.7,47.17-21.28,10.12-41.1,7.96-49.98,6.39Z"/><path class="g" d="M160.36,132.41c-1.34-8.35-5.54-40.49,12.99-72.71,21.33-37.08,56.72-46.36,63.24-47.94-12.36,9.16-29.67,24.29-45.31,47.38-19.31,28.51-27.33,56.25-30.92,73.27Z"/><path class="f" d="M253.3,.93c-5.85,23.25-16.33,55.3-35.8,89.45-19.53,34.25-41.17,58.43-57.58,74.15,7.99-1.47,49.46-10.01,76.72-53.34C267.46,62.2,255.14,8.41,253.3,.93Z"/></g></g></g></svg>