<?xml version="1.0" encoding="UTF-8"?><svg xmlns="http://www.w3.org/2000/svg" width="200" height="500" viewBox="0 0 200 500"><defs><style>.d{fill:#f78d1e;}.e{fill:#fdb518;}.f{fill:#c6752f;}.g{fill:#3f5e29;}.h{fill:#638943;}.i{fill:#5a7e3c;}.j{fill:#749d3d;}.k{fill:#a26936;opacity:.61;}</style></defs><g id="a"/><g id="b"><g id="c"><g><polygon class="h" points="115.59 215.32 0 37.17 17.14 28.68 115.59 215.32"/><polygon class="j" points="96.1 230.76 125.86 17.95 106.88 18.07 96.1 230.76"/><polygon class="i" points="108.31 237.18 84.37 23.58 66.06 28.79 108.31 237.18"/><polygon class="g" points="105.59 205.86 45.9 0 28.76 8.5 105.59 205.86"/><g><path class="e" d="M153.78,428.05c-1.17,.37-2.36,.73-3.58,1.07,6.34,13.7,12.49,26.32,18.19,36.99,.81-.3,1.61-.6,2.38-.9-5.28-10.74-11.03-23.41-17-37.17Z"/><path class="e" d="M112.96,327.58c-1.74,.64-3.55,1.26-5.43,1.86,4.73,11.67,9.77,23.94,14.96,36.33,1.67-.58,3.27-1.17,4.81-1.74-4.93-12.37-9.76-24.67-14.34-36.44Z"/><path class="e" d="M68.78,212.96c-7.36-19.75,1.11-41.8,18.89-50.99-6.67,2.8-12.5,6.07-17.5,9.38-10.97,7.28-15.52,21.6-10.96,34.29,1,2.77,2.06,5.69,3.17,8.71,2.09-.26,4.28-.57,6.57-.94-.06-.15-.11-.31-.17-.46Z"/><path class="e" d="M171.55,466.78c-.7,.37-1.43,.75-2.19,1.14,10.64,19.71,19.59,32.34,24.99,32.08-4.59,0-12.8-13.01-22.8-33.22Z"/><path class="e" d="M94.04,278.44c-2.37,.31-4.58,.51-6.64,.63,5.13,12.98,11.6,29.3,18.84,47.18,1.91-.53,3.76-1.08,5.57-1.63-6.62-17.04-12.69-32.9-17.77-46.18Z"/><path class="e" d="M140.05,395.49c-4.02-9.76-8.05-19.73-12.02-29.66-1.41,.72-2.94,1.47-4.57,2.22,4.05,9.64,8.18,19.32,12.32,28.84,1.46-.46,2.89-.93,4.27-1.4Z"/><path class="e" d="M141.08,398c-1.31,.57-2.67,1.13-4.09,1.69,3.93,8.98,7.85,17.78,11.72,26.21,1.25-.33,2.48-.66,3.7-1-3.72-8.63-7.52-17.66-11.33-26.89Z"/><path class="e" d="M92.87,275.4c-4.55-11.87-8.23-21.46-10.7-27.67-4.24-10.65-8.45-21.57-12.22-31.62-2.51,.18-4.8,.25-6.85,.23,5.06,13.7,11.09,29.44,17.16,44.71,1.68,4.21,3.74,9.44,6.12,15.46,1.74-.27,3.54-.56,5.4-.9,.36-.07,.72-.13,1.08-.2Z"/><path class="f" d="M151.91,224.7c3.29,15.91,8.06,38.25,13.29,63.41,1.93-.55,3.8-1.1,5.62-1.67-3.84-19.36-7.49-37.16-10.53-51.82-.94-4.54-1.93-9.18-2.96-13.83-.98,.67-2.86,1.92-5.52,3.46,.03,.15,.06,.31,.1,.46Z"/><path class="f" d="M180.09,362.02c1.55-.24,3.14-.51,4.77-.8h.06c-1.4-7.96-2.85-15.95-4.33-23.91-1.67,.43-3.37,.83-5.12,1.19,1.56,7.83,3.1,15.7,4.61,23.53Z"/><path class="f" d="M194.14,442.99c.24-.04,.48-.08,.72-.13,.82-.15,1.63-.3,2.44-.46-2.62-22.69-6.92-50.03-11.84-78.15-1.71,.19-3.33,.33-4.86,.42,5.4,28.14,10.28,55.58,13.54,78.32Z"/><path class="f" d="M143.2,186.42c2.86,11.55,5.82,24.45,8.37,36.68,2.1-.85,4.01-1.66,5.74-2.4-3.68-16.67-7.76-33.51-11.32-46.79-3.34-12.47-14.7-20.78-27.08-19.69-5.72,.5-12.04,1.54-18.75,3.41,19.07-3.61,38.07,8.71,43.04,28.8Z"/><path class="f" d="M165.9,291.46c2.89,13.94,5.91,28.67,8.9,43.6,1.75-.4,3.47-.81,5.16-1.24-2.82-15.13-5.71-30.09-8.51-44.27-1.77,.66-3.62,1.3-5.54,1.9Z"/><path class="f" d="M195.02,499.9s.02,0,.03,0c6.12-1.69,6.05-23.28,2.62-54.27-1.06,.15-2.1,.27-3.1,.37,4.31,30.83,5.43,52.33,.45,53.9Z"/><path class="d" d="M100.17,157.62c-1.54,.29-3.08,.68-4.61,1.19-.17,.05-.34,.11-.5,.17-1.14,.38-2.25,.78-3.34,1.19-1.4,.53-2.75,1.14-4.05,1.81,2.36-.99,4.81-1.92,7.38-2.78,1.73-.58,3.44-1.1,5.12-1.57Z"/><path class="d" d="M194.57,446c-10.5,1.09-17.54,.02-20.48-.54,5.63-.37,12.36-1.11,20.05-2.47-3.26-22.74-8.14-50.18-13.54-78.32-8.31,.49-13.96-.37-16.51-.86,4.62-.31,9.98-.85,16-1.8-1.51-7.83-3.05-15.7-4.61-23.53-.1,.02-.2,.04-.3,.06-15.93,3.25-26.46,1.69-30.24,.97,5.8-.39,12.77-1.15,20.77-2.6,3.11-.56,6.13-1.19,9.08-1.86-2.98-14.93-6.01-29.67-8.9-43.6-3.61,1.14-7.46,2.17-11.54,3-15.93,3.25-26.46,1.69-30.24,.97,5.8-.39,12.77-1.15,20.77-2.6,7.22-1.31,14.03-2.95,20.31-4.73-5.23-25.15-10-47.5-13.29-63.41-.03-.15-.06-.31-.1-.46-7.08,4.12-19.67,10.39-35.6,13.63-15.93,3.25-26.46,1.69-30.24,.97,5.8-.39,12.77-1.15,20.77-2.6,18.25-3.31,33.95-8.75,44.83-13.15-2.56-12.23-5.52-25.13-8.37-36.68-4.97-20.09-23.97-32.4-43.04-28.8-1.68,.47-3.39,.99-5.12,1.57-2.56,.86-5.02,1.79-7.38,2.78-17.78,9.19-26.25,31.24-18.89,50.99,.06,.15,.11,.31,.17,.46,1.31-.21,2.66-.44,4.03-.69,22.04-4,40.37-11.1,50.96-15.73-2.75,1.9-18.73,12.72-41.5,17.36-4.63,.94-8.81,1.48-12.49,1.75,3.77,10.06,7.99,20.97,12.22,31.62,2.47,6.2,6.15,15.79,10.7,27.67,21.56-4.03,39.46-10.98,49.88-15.53-2.75,1.9-18.73,12.72-41.5,17.36-2.55,.52-4.95,.91-7.22,1.21,5.08,13.28,11.15,29.13,17.77,46.18,10.72-3.29,19.59-6.86,25.81-9.57-2.01,1.39-11.06,7.52-24.66,12.54,4.58,11.78,9.41,24.07,14.34,36.44,4.69-1.76,8.74-3.44,12.05-4.88-1.25,.86-5.23,3.56-11.33,6.69,3.97,9.93,8,19.9,12.02,29.66,7.87-2.66,14.47-5.35,19.4-7.5-1.68,1.16-8.29,5.64-18.36,10.01,3.81,9.23,7.61,18.26,11.33,26.89,13.18-3.69,24.03-8.01,31.27-11.17-2.26,1.56-13.41,9.11-29.9,14.34,5.97,13.76,11.72,26.42,17,37.17,4.03-1.54,7.55-3.01,10.48-4.29-1.13,.78-4.53,3.09-9.71,5.85,10.01,20.2,18.22,33.22,22.8,33.22,.23-.01,.45-.04,.66-.1,4.98-1.58,3.86-23.07-.45-53.9Z"/><path class="k" d="M157.71,220.52c-.13,.06-.27,.12-.4,.17l.02,.09c.14-.1,.28-.19,.38-.26Z"/><path class="f" d="M151.81,224.24c2.65-1.55,4.53-2.79,5.52-3.46l-.02-.09c-1.72,.75-3.64,1.56-5.74,2.4,.08,.38,.16,.76,.24,1.14Z"/><path class="k" d="M151.81,224.24c2.65-1.55,4.53-2.79,5.52-3.46l-.02-.09c-1.72,.75-3.64,1.56-5.74,2.4,.08,.38,.16,.76,.24,1.14Z"/><path class="d" d="M106.75,236.25c-8,1.45-14.97,2.21-20.77,2.6,3.78,.72,14.31,2.27,30.24-.97,15.93-3.25,28.52-9.51,35.6-13.63-.08-.38-.16-.76-.24-1.14-10.88,4.4-26.57,9.84-44.83,13.15Z"/><path class="k" d="M106.75,236.25c-8,1.45-14.97,2.21-20.77,2.6,3.78,.72,14.31,2.27,30.24-.97,15.93-3.25,28.52-9.51,35.6-13.63-.08-.38-.16-.76-.24-1.14-10.88,4.4-26.57,9.84-44.83,13.15Z"/><path class="e" d="M68.95,213.42c-2.29,.37-4.48,.68-6.57,.94,.24,.66,.48,1.31,.73,1.98,2.05,.02,4.33-.04,6.85-.23-.34-.9-.68-1.8-1.01-2.69Z"/><path class="k" d="M68.95,213.42c-2.29,.37-4.48,.68-6.57,.94,.24,.66,.48,1.31,.73,1.98,2.05,.02,4.33-.04,6.85-.23-.34-.9-.68-1.8-1.01-2.69Z"/><path class="d" d="M82.45,214.36c22.77-4.64,38.75-15.46,41.5-17.36-10.6,4.63-28.92,11.73-50.96,15.73-1.38,.25-2.72,.48-4.03,.69,.33,.89,.67,1.79,1.01,2.69,3.69-.27,7.86-.81,12.49-1.75Z"/><path class="k" d="M82.45,214.36c22.77-4.64,38.75-15.46,41.5-17.36-10.6,4.63-28.92,11.73-50.96,15.73-1.38,.25-2.72,.48-4.03,.69,.33,.89,.67,1.79,1.01,2.69,3.69-.27,7.86-.81,12.49-1.75Z"/><path class="e" d="M92.87,275.4c-.36,.07-.72,.14-1.08,.2-1.86,.34-3.66,.63-5.4,.9,.33,.84,.67,1.7,1.01,2.57,2.05-.12,4.26-.32,6.64-.63-.39-1.03-.78-2.04-1.16-3.04Z"/><path class="k" d="M92.87,275.4c-.36,.07-.72,.14-1.08,.2-1.86,.34-3.66,.63-5.4,.9,.33,.84,.67,1.7,1.01,2.57,2.05-.12,4.26-.32,6.64-.63-.39-1.03-.78-2.04-1.16-3.04Z"/><path class="d" d="M101.26,277.23c22.77-4.64,38.75-15.46,41.5-17.36-10.42,4.55-28.32,11.5-49.88,15.53,.38,1,.77,2.01,1.16,3.04,2.26-.3,4.67-.69,7.22-1.21Z"/><path class="k" d="M101.26,277.23c22.77-4.64,38.75-15.46,41.5-17.36-10.42,4.55-28.32,11.5-49.88,15.53,.38,1,.77,2.01,1.16,3.04,2.26-.3,4.67-.69,7.22-1.21Z"/><path class="f" d="M165.9,291.46c1.92-.61,3.77-1.25,5.54-1.9-.21-1.04-.41-2.08-.62-3.12-1.82,.57-3.7,1.12-5.62,1.67,.23,1.11,.46,2.23,.7,3.35Z"/><path class="k" d="M165.9,291.46c1.92-.61,3.77-1.25,5.54-1.9-.21-1.04-.41-2.08-.62-3.12-1.82,.57-3.7,1.12-5.62,1.67,.23,1.11,.46,2.23,.7,3.35Z"/><path class="d" d="M144.89,292.84c-8,1.45-14.97,2.21-20.77,2.6,3.78,.72,14.31,2.27,30.24-.97,4.08-.83,7.93-1.86,11.54-3-.23-1.12-.47-2.24-.7-3.35-6.28,1.78-13.09,3.42-20.31,4.73Z"/><path class="k" d="M144.89,292.84c-8,1.45-14.97,2.21-20.77,2.6,3.78,.72,14.31,2.27,30.24-.97,4.08-.83,7.93-1.86,11.54-3-.23-1.12-.47-2.24-.7-3.35-6.28,1.78-13.09,3.42-20.31,4.73Z"/><path class="f" d="M175.48,338.49c1.75-.36,3.45-.76,5.12-1.19-.21-1.16-.43-2.32-.65-3.48-1.69,.43-3.41,.84-5.16,1.24,.23,1.14,.46,2.28,.68,3.42Z"/><path class="k" d="M175.48,338.49c1.75-.36,3.45-.76,5.12-1.19-.21-1.16-.43-2.32-.65-3.48-1.69,.43-3.41,.84-5.16,1.24,.23,1.14,.46,2.28,.68,3.42Z"/><path class="d" d="M165.71,336.92c-8,1.45-14.97,2.21-20.77,2.6,3.78,.72,14.31,2.27,30.24-.97,.1-.02,.2-.04,.3-.06-.23-1.14-.46-2.28-.68-3.42-2.95,.67-5.97,1.3-9.08,1.86Z"/><path class="k" d="M165.71,336.92c-8,1.45-14.97,2.21-20.77,2.6,3.78,.72,14.31,2.27,30.24-.97,.1-.02,.2-.04,.3-.06-.23-1.14-.46-2.28-.68-3.42-2.95,.67-5.97,1.3-9.08,1.86Z"/><path class="f" d="M180.09,362.02c.17,.89,.34,1.77,.51,2.66,1.53-.09,3.15-.23,4.86-.42-.18-1.02-.36-2.03-.54-3.05h-.06c-1.63,.31-3.22,.57-4.77,.82Z"/><path class="k" d="M180.09,362.02c.17,.89,.34,1.77,.51,2.66,1.53-.09,3.15-.23,4.86-.42-.18-1.02-.36-2.03-.54-3.05h-.06c-1.63,.31-3.22,.57-4.77,.82Z"/><path class="d" d="M164.09,363.81c2.55,.49,8.2,1.35,16.51,.86-.17-.88-.34-1.77-.51-2.66-6.03,.94-11.38,1.49-16,1.8Z"/><path class="k" d="M164.09,363.81c2.55,.49,8.2,1.35,16.51,.86-.17-.88-.34-1.77-.51-2.66-6.03,.94-11.38,1.49-16,1.8Z"/><path class="f" d="M194.86,442.86c-.24,.04-.48,.08-.72,.13,.15,1.01,.29,2.02,.43,3.01,1-.1,2.04-.23,3.1-.37-.12-1.06-.24-2.14-.36-3.22-.81,.16-1.62,.31-2.44,.46Z"/><path class="k" d="M194.86,442.86c-.24,.04-.48,.08-.72,.13,.15,1.01,.29,2.02,.43,3.01,1-.1,2.04-.23,3.1-.37-.12-1.06-.24-2.14-.36-3.22-.81,.16-1.62,.31-2.44,.46Z"/><path class="d" d="M194.57,446c-.14-.99-.28-2-.43-3.01-7.7,1.37-14.42,2.1-20.05,2.47,2.94,.56,9.98,1.63,20.48,.54Z"/><path class="k" d="M194.57,446c-.14-.99-.28-2-.43-3.01-7.7,1.37-14.42,2.1-20.05,2.47,2.94,.56,9.98,1.63,20.48,.54Z"/><path class="e" d="M112.96,327.58c-.39-.99-.77-1.98-1.15-2.97-1.81,.55-3.66,1.1-5.57,1.63,.43,1.06,.86,2.12,1.29,3.19,1.88-.59,3.69-1.21,5.43-1.86Z"/><path class="k" d="M112.96,327.58c-.39-.99-.77-1.98-1.15-2.97-1.81,.55-3.66,1.1-5.57,1.63,.43,1.06,.86,2.12,1.29,3.19,1.88-.59,3.69-1.21,5.43-1.86Z"/><path class="d" d="M137.62,315.04c-6.22,2.71-15.09,6.28-25.81,9.57,.38,.99,.77,1.97,1.15,2.97,13.59-5.02,22.65-11.15,24.66-12.54Z"/><path class="k" d="M137.62,315.04c-6.22,2.71-15.09,6.28-25.81,9.57,.38,.99,.77,1.97,1.15,2.97,13.59-5.02,22.65-11.15,24.66-12.54Z"/><path class="e" d="M140.05,395.49c-1.38,.47-2.81,.94-4.27,1.4,.41,.93,.81,1.87,1.22,2.8,1.42-.56,2.78-1.12,4.09-1.69-.35-.84-.69-1.67-1.04-2.51Z"/><path class="k" d="M140.05,395.49c-1.38,.47-2.81,.94-4.27,1.4,.41,.93,.81,1.87,1.22,2.8,1.42-.56,2.78-1.12,4.09-1.69-.35-.84-.69-1.67-1.04-2.51Z"/><path class="d" d="M159.44,387.99c-4.93,2.15-11.53,4.84-19.4,7.5,.35,.84,.69,1.68,1.04,2.51,10.07-4.37,16.68-8.85,18.36-10.01Z"/><path class="k" d="M159.44,387.99c-4.93,2.15-11.53,4.84-19.4,7.5,.35,.84,.69,1.68,1.04,2.51,10.07-4.37,16.68-8.85,18.36-10.01Z"/><path class="e" d="M127.3,364.02c-1.54,.58-3.14,1.16-4.81,1.74,.32,.76,.64,1.52,.96,2.29,1.63-.75,3.16-1.5,4.57-2.22-.24-.6-.48-1.21-.72-1.81Z"/><path class="k" d="M127.3,364.02c-1.54,.58-3.14,1.16-4.81,1.74,.32,.76,.64,1.52,.96,2.29,1.63-.75,3.16-1.5,4.57-2.22-.24-.6-.48-1.21-.72-1.81Z"/><path class="d" d="M139.36,359.14c-3.31,1.44-7.36,3.13-12.05,4.88,.24,.6,.48,1.2,.72,1.81,6.1-3.13,10.08-5.83,11.33-6.69Z"/><path class="k" d="M139.36,359.14c-3.31,1.44-7.36,3.13-12.05,4.88,.24,.6,.48,1.2,.72,1.81,6.1-3.13,10.08-5.83,11.33-6.69Z"/><path class="e" d="M152.42,424.89c-1.21,.34-2.45,.67-3.7,1,.5,1.08,.99,2.16,1.49,3.23,1.22-.34,2.41-.7,3.58-1.07-.45-1.05-.91-2.1-1.37-3.16Z"/><path class="k" d="M152.42,424.89c-1.21,.34-2.45,.67-3.7,1,.5,1.08,.99,2.16,1.49,3.23,1.22-.34,2.41-.7,3.58-1.07-.45-1.05-.91-2.1-1.37-3.16Z"/><path class="d" d="M183.68,413.72c-7.24,3.16-18.09,7.48-31.27,11.17,.46,1.06,.91,2.11,1.37,3.16,16.49-5.23,27.64-12.78,29.9-14.34Z"/><path class="k" d="M183.68,413.72c-7.24,3.16-18.09,7.48-31.27,11.17,.46,1.06,.91,2.11,1.37,3.16,16.49-5.23,27.64-12.78,29.9-14.34Z"/><path class="e" d="M170.78,465.22c-.78,.3-1.57,.6-2.38,.9,.32,.61,.64,1.2,.96,1.8,.76-.39,1.49-.76,2.19-1.14-.25-.51-.51-1.04-.77-1.56Z"/><path class="k" d="M170.78,465.22c-.78,.3-1.57,.6-2.38,.9,.32,.61,.64,1.2,.96,1.8,.76-.39,1.49-.76,2.19-1.14-.25-.51-.51-1.04-.77-1.56Z"/><path class="d" d="M181.26,460.93c-2.93,1.28-6.45,2.75-10.48,4.29,.26,.52,.51,1.04,.77,1.56,5.19-2.76,8.58-5.06,9.71-5.85Z"/><path class="k" d="M181.26,460.93c-2.93,1.28-6.45,2.75-10.48,4.29,.26,.52,.51,1.04,.77,1.56,5.19-2.76,8.58-5.06,9.71-5.85Z"/></g></g></g></g></svg>