<?xml version="1.0" encoding="UTF-8"?><svg xmlns="http://www.w3.org/2000/svg" width="300" height="250" viewBox="0 0 300 250"><defs><style>.d{fill:#ffd334;}.e{fill:#fbb03b;}.f{fill:#ee9a1a;}.g{fill:#ee9b21;}.h{fill:#de8e18;}.i{fill:#dfae6b;}</style></defs><g id="a"/><g id="b"><g id="c"><g><g><path class="i" d="M297.7,100.25l-21.92-65.2c-.55-1.64-2.41-2.48-4.04-1.83L.12,141.25c-.09,.04-.14,.13-.11,.22l10.92,41.26c11.69,2.07,20.82,9.73,22.25,19.94,1.2,8.58-3.33,16.87-11.16,22.31,4.03,16.59,6.9,29.85,23.72,23.33l80.14-30.85c.57-.22,.98-.71,1.08-1.31,.51-3.12,1.84-8.32,5.7-13.43,1.64-2.18,8.16-10.2,19.86-11.9,11.86-1.72,20.69,4.28,23.47,6.45,.48,.38,1.13,.47,1.7,.25l89.05-34.28c25.49-9.89,38.96-37.29,30.96-62.98Z"/><path class="d" d="M212.09,6.56C177.05-2.32,147.14-.43,129.01,2.12c-6.23,1.11-15.48,3.59-24.67,9.82-5.81,3.94-9.27,7.8-20.8,21.63-7.39,8.87-14.17,17.12-20.3,24.66-5.1,6.71-10.2,13.43-15.3,20.14,3.12,3.25,4.48,7.6,3.2,11.71-2.03,6.53-9.99,9.94-17.77,7.61-.03,0-.06-.02-.09-.03C22.23,112.2,11.18,126.76,.12,141.31c-.27,.35,.11,.83,.52,.66C91.94,105.87,183.24,69.76,274.54,33.66c.03-.01,.03-.05,0-.06-13.82-8.83-34.87-20.04-62.46-27.03Z"/><ellipse class="e" cx="87.74" cy="83.37" rx="17.86" ry="10.31" transform="translate(-15.97 20.98) rotate(-12.5)"/><ellipse class="h" cx="87.62" cy="82.86" rx="11.56" ry="4.64" transform="translate(-16.04 21.23) rotate(-12.66)"/><ellipse class="e" cx="107.93" cy="31.74" rx="14.05" ry="7.29" transform="translate(8.83 84.99) rotate(-44.64)"/><ellipse class="e" cx="180.57" cy="28.5" rx="16.81" ry="10.31" transform="translate(-1.9 39.6) rotate(-12.45)"/></g><ellipse class="h" cx="181.2" cy="28.89" rx="5.78" ry="1.55" transform="translate(-1.91 40.62) rotate(-12.72)"/><ellipse class="f" cx="75.77" cy="188.11" rx="17.83" ry="18.08" transform="translate(-91.35 73.24) rotate(-33.56)"/><ellipse class="h" cx="77.47" cy="186.14" rx="14.7" ry="15.47" transform="translate(-54.08 33.35) rotate(-18.13)"/><ellipse class="g" cx="147.91" cy="134.76" rx="15.25" ry="14.94"/><ellipse class="f" cx="224.91" cy="129.47" rx="23.14" ry="22.66"/><path class="e" d="M148.53,72.8c2.94-4.93,10.63-7.19,14.26-8.26,3.6-1.06,13.07-3.84,20.16-.45,6.45,3.09,8.14,9.98,4.33,15.49-5.5,7.96-21.19,11.19-30.57,7.84-6.86-2.45-11.6-8.88-8.18-14.62Z"/><ellipse class="h" cx="220.07" cy="129.51" rx="18.39" ry="17.52" transform="translate(-15.23 30.32) rotate(-7.62)"/><path class="g" d="M151.45,80.6c2.94-4.93,10.63-7.19,14.26-8.26,3.6-1.06,13.07-3.84,20.16-.45,1.34,.64,2.46,1.45,3.38,2.37,.35-4.07-1.83-8.03-6.3-10.17-7.09-3.4-16.56-.61-20.16,.45-3.63,1.07-11.32,3.33-14.26,8.26-2.19,3.67-1.03,7.63,1.89,10.64,.15-.95,.47-1.91,1.03-2.84Z"/></g></g></g></svg>