<?xml version="1.0" encoding="UTF-8"?><svg xmlns="http://www.w3.org/2000/svg" width="399.83" height="669.38" viewBox="0 0 399.83 669.38"><defs><style>.d{stroke:#000;stroke-miterlimit:10;}.e{fill:#f2f2f2;}.f{fill:#fff;}.g{fill:#ffd7c4;}</style></defs><g id="a"/><g id="b"><g id="c"><g><path class="f" d="M147.29,183.91c1.93,0,1.93-3,0-3s-1.93,3,0,3h0Z"/><path class="e" d="M154.54,507.77c-12.35,.77-64.93,5.41-107.78,49.33C2.43,602.52,.21,657.5,0,669.38H384.05c-.69-14.37-5.15-72.33-52.17-117.84-29.8-28.84-62.84-39.27-79.34-43.24l-98-.53Z"/><path class="f" d="M383.05,669.35c-.58-14.37-4.42-67.11-46.26-111.73-31.32-33.4-67.74-44.98-84.06-49.05-.76-.19-1.55-.08-2.23,.29l-126.05,69.45c-.81,30.32-1.61,60.65-2.42,90.97,87.01,.02,174.02,.05,261.03,.07Z"/><path class="d" d="M243.39,582.16c3.87-.13,7.95,2.95,7.89,7.12-.06,4.1-4.09,7.2-8.11,6.87-4.07-.33-7.47-4.15-6.87-8.11,.51-3.44,3.87-5.78,7.09-5.89Z"/><path class="d" d="M168.37,582.99c3.87-.13,7.95,2.95,7.89,7.12-.06,4.1-4.09,7.2-8.11,6.87-4.07-.33-7.47-4.15-6.87-8.11,.51-3.44,3.87-5.78,7.09-5.89Z"/><path class="d" d="M166.67,627.97c3.87-.13,7.95,2.95,7.89,7.12-.06,4.1-4.09,7.2-8.11,6.87-4.07-.33-7.47-4.15-6.87-8.11,.51-3.44,3.87-5.78,7.09-5.89Z"/><path class="d" d="M244.66,629.19c3.87-.13,7.95,2.95,7.89,7.12-.06,4.1-4.09,7.2-8.11,6.87-4.07-.33-7.47-4.15-6.87-8.11,.51-3.44,3.87-5.78,7.09-5.89Z"/><polygon class="g" points="154.54 507.77 187.37 543.64 251.21 508.29 154.54 507.77"/><path class="g" d="M107.82,230.69c28.83,4.99,61.82,8.97,98.31,10.41,41.87,1.65,79.55-.37,111.93-3.95,10.17,10.51,35.85,39.86,43.28,85.89,2.27,14.04,7.98,52.96-13.54,93.39-24.55,46.13-67.77,62.66-82.23,68.19-11.11,4.25-65.38,23.65-125.09-1.7-14.75-6.26-56.11-23.82-76.82-68-15.73-33.55-10.57-66.88-8.98-77.92,2.72-19,8.47-32.93,12.79-43.22,12.11-28.84,28.18-49.7,40.35-63.09Z"/><path d="M84.52,412.17c4.75,7.36,12.68,11.83,20.83,11.33,10.93-.68,17.83-10.06,20.26-16.69,2.69-7.34-.53-10.15,1.28-17.98,3.26-14.11,17.59-21.79,19.36-22.7,14.86-7.7,34.8-4.28,49.87,8.78,3.5-3.31,21.86-20.05,41.24-15.36,13.97,3.38,23.74,16.75,28.64,23.45,9.15,12.51,9.24,20.43,18.59,26.29,7.47,4.68,18.9,1.97,24.98,1.39-.8,4.63-6.38,18.34-15.43,27.76-12.3,12.79-28.47,13.83-37.23,14.42-20.25,1.37-35.21-6.55-40.85-9.64-9.85-5.39-16.65-11.83-20.75-16.33-5.04,4.75-12.75,11.1-23.26,16.64-10.25,5.4-26.67,14.06-47.18,11.27-7.17-.98-25.1-3.42-34.72-18.54-5.99-9.42-5.96-19.39-5.63-24.09Z"/><path d="M256.61,304.06c-13.04,7.8-26.09,15.6-39.13,23.4-2.22,.93-3.03,3.3-2.35,4.69,.72,1.48,3.34,2.29,5.47,.79,12.78-8.58,25.57-17.16,38.35-25.74,1.44-.94,1.97-2.41,1.57-3.13-.43-.78-2.22-1.14-3.91,0Z"/><path d="M140.93,304.06c13.04,7.8,26.09,15.6,39.13,23.4,2.22,.93,3.03,3.3,2.35,4.69-.72,1.48-3.34,2.29-5.47,.79-12.78-8.58-25.57-17.16-38.35-25.74-1.44-.94-1.97-2.41-1.57-3.13,.43-.78,2.22-1.14,3.91,0Z"/><path class="d" d="M47.79,330.58c.02-10.79,1.52-32.4,13.87-55.79,13.29-25.15,32.07-38.99,41.2-44.86,74.28,3.82,148.57,7.65,222.85,11.48,5.79,4.99,13.91,13.21,20.61,25.32,8.8,15.9,10.86,30.75,11.39,39.18-3.48-8.71-10.3-22.45-23.45-35.37-8.48-8.33-17.05-13.82-23.73-17.37,.07,2.96-.18,9.75-4.26,16.94-4.36,7.67-10.59,11.42-13.2,12.8-1.75-5.22-4.52-11.97-8.72-18.14-1.24-1.81-2.47-3.4-2.64-3.62-3.36-4.29-6.67-7.44-9.15-9.57-3.07,1.97-7.2,5.11-11.15,9.83-4.36,5.2-6.83,10.31-8.22,13.87-2.93-1.81-8.59-5.86-12.8-13.2-3.49-6.08-4.46-11.78-4.77-15.08-4.49,1.96-10.23,5.01-16.15,9.75-7.36,5.88-12.23,12.14-15.26,16.76-2.31-.76-9.67-3.5-14.83-11.23-4.51-6.76-4.78-13.51-4.75-16.08-2.91,2.49-6.01,5.43-9.14,8.86-4.75,5.21-8.42,10.31-11.23,14.83-1.47-.99-5.75-4.14-7.84-10.12-2.35-6.71-.37-12.46,.22-14-3.61,1.82-9.04,5.12-14.17,10.78-6.13,6.77-8.96,13.74-10.28,17.84-1.61-1.04-7.55-5.15-9.8-13.15-1.67-5.93-.44-10.92,.2-13-10.25,5.5-22.83,13.6-35.4,25.45-21.74,20.48-33.35,42.59-39.39,56.89Z"/><path class="f" d="M103.37,229.44c-1.47-6.82-2.74-14.18-3.66-22.06-2.23-19.28-1.75-36.57-.2-51.01-4.87-.52-21.13-2.87-34.75-16.54-5.04-5.06-14.84-14.5-15.55-29.25-.1-2.05-.78-23.67,16-32.25,14.02-7.17,28.6,.69,29.98,1.47-1.93-5.11-6.56-19.45-1.44-36.03,.94-3.05,9.66-29.76,33.54-34.48,19.21-3.8,40.74,8.12,50.54,29.79C188.83,15.28,212.24-.06,237.46,0c29.01,.07,55.28,20.49,63.23,49.99,31.87-17.99,67.55-14.04,85.91,6.34,.9,1,17.18,19.66,12.33,43.2-5.24,25.41-32.9,45.71-67.71,44.95-1.84,32.31-3.67,64.62-5.51,96.93-37,1.07-77.14,.71-119.99-1.87-36.37-2.19-70.56-5.73-102.36-10.1Z"/></g></g></g></svg>