<?xml version="1.0" encoding="UTF-8"?><svg xmlns="http://www.w3.org/2000/svg" width="1920" height="1080.21" viewBox="0 0 1920 1080.21"><defs><style>.d{stroke:#000;stroke-miterlimit:10;}.e{fill:#f2f2f2;}.f{fill:#fff;}.g{fill:#ffd7c4;}.h{fill:#ffd196;}.i{fill:#42210b;}</style></defs><g id="a"/><g id="b"><g id="c"><rect class="h" width="1920" height="1080" rx="12" ry="12"/><g><path class="i" d="M368.44,429.51c3.1,0,5.54,.91,7.33,2.72,1.79,1.81,2.68,4.33,2.68,7.56,0,.81-.06,1.64-.18,2.49-.12,.86-.3,1.59-.54,2.19-2.5-.58-5.24-.86-8.22-.86-.71,4.36-2.62,8.95-5.72,13.76-3.1,4.81-6.85,9.32-11.26,13.54-4.41,4.21-9.23,7.91-14.47,11.08-5.24,3.17-10.42,5.3-15.54,6.4-15.96,0-27.6-3.33-34.93-9.99-7.33-6.66-10.99-17.06-10.99-31.18,0-10.32,2.26-20.31,6.79-29.98,4.53-9.67,10.54-18.26,18.04-25.77,7.5-7.51,16.11-13.55,25.82-18.11,9.71-4.56,19.8-6.84,30.28-6.84,8.22,0,14.62,1.45,19.21,4.35,4.58,2.9,6.88,7,6.88,12.3,0,3.5-.98,6.75-2.95,9.75-1.97,3-5.21,6.25-9.74,9.75-2.74-.7-5.12-1.92-7.15-3.67-2.03-1.75-3.28-3.77-3.75-6.08,4.05-2.5,6.91-4.8,8.58-6.9,1.67-2.1,2.5-4.6,2.5-7.5,0-4.6-3.28-6.9-9.83-6.9-5.36,0-11.11,1.68-17.24,5.03-6.14,3.35-12.3,8.18-18.49,14.49-8.82,8.91-15.25,18.09-19.3,27.55-4.05,9.46-6.07,20.09-6.07,31.91,0,4.4,.54,8.41,1.61,12.01s2.5,6.76,4.29,9.46c1.79,2.7,3.9,4.86,6.34,6.46,2.44,1.6,5.09,2.5,7.95,2.7,3.81-.7,7.62-2.33,11.44-4.88,3.81-2.55,7.29-5.55,10.45-9,3.16-3.45,5.83-7.15,8.04-11.1,2.2-3.95,3.54-7.73,4.02-11.33-3.34,.59-6.52,1.16-9.56,1.7-3.04,.54-5.93,.81-8.67,.81-3.57,0-6.7-.75-9.38-2.25-2.68-1.5-4.5-3.55-5.45-6.15,2.14-1.01,5.27-2.07,9.38-3.17s8.49-2.14,13.13-3.1c4.65-.96,9.2-1.74,13.67-2.34,4.47-.6,8.13-.91,10.99-.91Z"/><path class="i" d="M446.52,416.62c1.19,0,2.59,.18,4.2,.52,1.61,.35,3.07,.8,4.38,1.35,1.31,.55,2.41,1.12,3.3,1.72,.89,.6,1.34,1.15,1.34,1.65-2.38,4.2-4.59,8.43-6.61,12.67-2.03,4.25-3.75,8.33-5.18,12.22-1.43,3.9-2.53,7.55-3.31,10.95-.78,3.4-1.16,6.35-1.16,8.85,0,2.8,.36,5.13,1.07,6.98,.71,1.85,1.9,3.18,3.57,3.97-1.43,.8-3.28,1.45-5.54,1.95-2.26,.5-4.29,.75-6.08,.75-6.43,0-9.65-3.7-9.65-11.1,0-5.7,2.26-13.5,6.79-23.4-2.38,4.58-5.12,8.89-8.22,12.92-3.1,4.03-6.25,7.59-9.47,10.68-3.22,3.09-6.46,5.6-9.74,7.54-3.28,1.94-6.28,3.11-9.02,3.51-4.41,0-7.98-1.68-10.72-5.05-2.74-3.36-4.11-7.66-4.11-12.88,0-5.62,1.43-11.55,4.29-17.77,2.86-6.22,6.52-12,10.99-17.32,4.47-5.32,9.32-9.77,14.56-13.33,5.24-3.57,10.3-5.35,15.19-5.35,1.19,.3,2.53,.9,4.02,1.8,1.49,.9,2.92,1.95,4.29,3.14,1.37,1.2,2.53,2.42,3.48,3.67,.95,1.25,1.49,2.32,1.61,3.22-4.76,.6-9.68,2.55-14.74,5.84-5.06,3.29-9.65,7.26-13.76,11.9-4.11,4.64-7.48,9.6-10.09,14.89-2.62,5.29-3.93,10.23-3.93,14.81,0,1.9,.83,3.09,2.5,3.59,3.45-.6,7.44-3.08,11.97-7.42,4.53-4.35,10.01-11.07,16.44-20.17,1.19-1.8,2.53-3.8,4.02-6,1.49-2.2,3.01-4.5,4.56-6.9,1.55-2.4,3.07-4.82,4.56-7.27,1.49-2.45,2.89-4.82,4.2-7.12Z"/><path class="i" d="M572.12,431.24c-1.91,0-4.23,.98-6.97,2.93-2.74,1.95-5.69,4.46-8.84,7.51-3.16,3.06-6.43,6.44-9.83,10.14-3.39,3.71-6.67,7.39-9.83,11.04-3.16,3.66-6.11,7.08-8.84,10.29-2.74,3.21-5.06,5.76-6.97,7.66-2.62-.9-4.88-2.23-6.79-3.97-1.91-1.75-3.28-3.92-4.11-6.53,.59-3.09,1.43-6.31,2.5-9.66,1.07-3.34,2.47-6.81,4.2-10.41,1.73-3.59,3.87-7.36,6.43-11.31,2.56-3.94,5.69-8.11,9.38-12.5-1.79,0-4.23,1.03-7.33,3.08-3.1,2.05-6.43,4.71-10,7.96s-7.27,6.91-11.08,10.96c-3.81,4.05-7.39,8.04-10.72,11.94-4.41,5.21-8.07,9.76-10.99,13.67-2.92,3.9-5.03,6.21-6.34,6.91-3.1-1.9-5.24-3.95-6.43-6.15-1.19-2.2-2.08-4.65-2.68-7.35,.12-2.4,.56-5.4,1.34-9,.77-3.6,1.88-7.3,3.31-11.1,2.74-7.3,6.28-14.55,10.63-21.75,4.35-7.2,8.54-13.8,12.6-19.8,3.33,.6,6.34,1.55,9.02,2.85,2.68,1.3,5.51,3.2,8.49,5.7-1.19,3.1-3.04,6.38-5.54,9.82-2.5,3.45-5.12,7.08-7.86,10.88-2.74,3.8-5.24,7.7-7.5,11.7-2.26,4-3.75,8.05-4.47,12.15,3.33-4,7.29-8.6,11.88-13.8,4.58-5.2,9.29-10.1,14.12-14.7,4.82-4.6,9.62-8.5,14.38-11.7,4.76-3.2,9.05-4.8,12.86-4.8,1.43,0,2.98,.2,4.65,.6,1.67,.4,3.22,.9,4.65,1.5,1.43,.6,2.62,1.18,3.57,1.73,.95,.55,1.49,.97,1.61,1.27-.6,2-2,4.73-4.2,8.17-2.21,3.45-4.56,7.08-7.06,10.88-2.5,3.8-4.82,7.48-6.97,11.03-2.14,3.55-3.39,6.38-3.75,8.47,5.83-6.7,11.32-12.77,16.44-18.22,5.12-5.45,9.94-10.12,14.47-14.03,4.53-3.9,8.72-6.9,12.6-9,3.87-2.1,7.53-3.15,10.99-3.15,2.38,0,4.62,.52,6.7,1.58,2.08,1.05,3.54,2.58,4.38,4.57-1.07,3-2.83,6.6-5.27,10.8-2.44,4.2-4.91,8.62-7.41,13.27-2.5,4.65-4.73,9.23-6.7,13.73-1.96,4.5-2.95,8.55-2.95,12.15,0,2.1,.36,3.48,1.07,4.12,.71,.65,1.73,.98,3.04,.98,1.43,0,2.77-.23,4.02-.68,1.25-.45,2.17-.67,2.77-.67,.71,.4,1.13,.9,1.25,1.5,.12,.6,.18,1.15,.18,1.65-2.38,1.6-4.82,2.92-7.33,3.97s-5.3,1.58-8.4,1.58c-2.86,0-5.21-.4-7.06-1.2-1.85-.8-3.37-1.9-4.56-3.3-1.19-1.4-2.03-3-2.5-4.79-.48-1.79-.71-3.74-.71-5.84,0-3.39,.54-6.76,1.61-10.11,1.07-3.34,2.35-6.54,3.84-9.59,1.49-3.04,3.07-5.89,4.73-8.54,1.67-2.65,3.1-5.02,4.29-7.12Z"/><path class="i" d="M669.49,415.12c-.48,6.2-1.79,11.53-3.93,15.97-2.14,4.45-5.21,8.35-9.2,11.7-3.99,3.35-8.84,6.38-14.56,9.08-5.72,2.7-12.39,5.3-20.01,7.8,0,.6-.03,1.23-.09,1.88-.06,.65-.09,1.33-.09,2.02,0,1.3,.12,2.65,.36,4.05,.24,1.4,.65,2.7,1.25,3.9,.59,1.2,1.43,2.17,2.5,2.92,1.07,.75,2.44,1.12,4.11,1.12,3.22,0,6.37-.6,9.47-1.8,3.1-1.2,6.04-2.67,8.84-4.42,2.8-1.75,5.42-3.65,7.86-5.7,2.44-2.05,4.62-3.92,6.52-5.62,1.19,.9,2.2,1.75,3.04,2.55-5.36,6-11.23,10.98-17.6,14.93-6.37,3.95-12.42,6.47-18.13,7.57-8.22-.8-14.62-3.33-19.21-7.57-4.59-4.25-6.88-9.38-6.88-15.38,0-4.1,.68-8.27,2.05-12.53,1.37-4.25,3.27-8.35,5.72-12.3,2.44-3.95,5.3-7.67,8.58-11.17,3.28-3.5,6.79-6.55,10.54-9.15,3.75-2.6,7.62-4.65,11.61-6.15,3.99-1.5,7.95-2.25,11.88-2.25,5.48,.6,10.6,3.45,15.37,8.55Zm-12.33,4.95c-3.22,.4-6.55,1.5-10,3.3-3.46,1.8-6.7,4.2-9.74,7.2s-5.81,6.5-8.31,10.5c-2.5,4-4.47,8.3-5.9,12.9,9.53-4,17.45-8.92,23.76-14.78,6.31-5.85,9.71-12.22,10.18-19.12Z"/><path class="i" d="M741.31,482.46c-6.79-.6-12.21-3.1-16.26-7.5-4.05-4.4-6.07-10-6.07-16.8,0-4,.71-8.15,2.14-12.45,1.43-4.3,3.45-8.47,6.08-12.53,2.62-4.05,5.72-7.88,9.29-11.47,3.57-3.6,7.44-6.7,11.61-9.3,6.55-4.1,12.69-6.15,18.4-6.15,3.81,1.7,7.56,5.25,11.26,10.65,.59,0,1.13-.02,1.61-.08,.47-.05,1.01-.08,1.61-.08,6.31,0,9.47,4.7,9.47,14.1,0,6.3-1.22,12.28-3.66,17.92-2.44,5.65-5.84,10.78-10.18,15.38-4.35,4.6-9.53,8.47-15.54,11.62-6.02,3.15-12.6,5.37-19.74,6.67Zm9.11-47.25c-2.03,2.3-3.93,4.8-5.72,7.5-1.79,2.7-3.34,5.43-4.64,8.17-1.31,2.75-2.32,5.4-3.04,7.95s-1.07,4.83-1.07,6.83c0,2.4,.47,4.7,1.43,6.9,.95,2.2,2.02,3.45,3.22,3.75,5.36-1,10.27-2.87,14.74-5.62,4.47-2.75,8.34-6.17,11.61-10.27,3.27-4.1,5.83-8.75,7.68-13.95,1.85-5.2,2.77-10.75,2.77-16.65,0-2.6-.18-4.65-.54-6.15s-.95-2.8-1.79-3.9c-5.24,1.3-9.92,3.4-14.03,6.3-4.11,2.9-7.66,5.95-10.63,9.15Z"/><path class="i" d="M807.6,424.12c0-1.8,.15-3.5,.45-5.1,.3-1.6,.92-2.97,1.88-4.12,.95-1.15,2.26-2.05,3.93-2.7,1.67-.65,3.87-.97,6.61-.97,1.67,0,3.54,.15,5.63,.45,2.08,.3,3.6,.85,4.56,1.65-.48,1.7-.87,3.2-1.16,4.5-.3,1.3-.54,2.73-.71,4.28-.18,1.55-.33,3.4-.45,5.55-.12,2.15-.24,4.93-.36,8.33-.24,6.8-.62,12.88-1.16,18.22-.54,5.35-1.76,10.68-3.66,15.98,0,.4,.18,.6,.54,.6,1.79-1.1,3.81-2.7,6.07-4.8,2.26-2.1,4.65-4.47,7.15-7.12,2.5-2.65,5-5.47,7.5-8.47,2.5-3,4.82-5.95,6.97-8.85,2.86-4.2,6.01-9.45,9.47-15.75,3.45-6.3,6.31-13.05,8.58-20.25,.71,0,1.64,.13,2.77,.38,1.13,.25,2.26,.55,3.39,.9,1.13,.35,2.14,.73,3.04,1.12,.89,.4,1.52,.75,1.88,1.05-.24,4.3-1.46,8.7-3.66,13.2-2.21,4.5-4.85,8.85-7.95,13.05-3.1,4.2-6.37,8.15-9.83,11.85-3.46,3.7-6.61,6.9-9.47,9.6-5.72,5.6-11.46,10.6-17.24,15-5.78,4.4-12.66,8.65-20.64,12.75-3.1-1-5.54-2.33-7.33-3.98-1.79-1.65-2.68-3.38-2.68-5.17,0-1.2,.33-2.57,.98-4.12,.65-1.55,1.4-3.55,2.23-6,.83-2.45,1.58-5.52,2.23-9.22,.65-3.7,.98-8.4,.98-14.1,0-3.3-.09-6.62-.27-9.97-.18-3.35-.27-5.92-.27-7.72Z"/><path class="i" d="M941.78,415.12c-.48,6.2-1.79,11.53-3.93,15.97-2.14,4.45-5.21,8.35-9.2,11.7-3.99,3.35-8.84,6.38-14.56,9.08-5.72,2.7-12.39,5.3-20.01,7.8,0,.6-.03,1.23-.09,1.88-.06,.65-.09,1.33-.09,2.02,0,1.3,.12,2.65,.36,4.05,.24,1.4,.65,2.7,1.25,3.9,.59,1.2,1.43,2.17,2.5,2.92,1.07,.75,2.44,1.12,4.11,1.12,3.22,0,6.37-.6,9.47-1.8,3.1-1.2,6.04-2.67,8.84-4.42,2.8-1.75,5.42-3.65,7.86-5.7,2.44-2.05,4.62-3.92,6.52-5.62,1.19,.9,2.2,1.75,3.04,2.55-5.36,6-11.23,10.98-17.6,14.93-6.37,3.95-12.42,6.47-18.13,7.57-8.22-.8-14.62-3.33-19.21-7.57-4.59-4.25-6.88-9.38-6.88-15.38,0-4.1,.68-8.27,2.05-12.53,1.37-4.25,3.27-8.35,5.72-12.3,2.44-3.95,5.3-7.67,8.58-11.17,3.28-3.5,6.79-6.55,10.54-9.15,3.75-2.6,7.62-4.65,11.61-6.15,3.99-1.5,7.95-2.25,11.88-2.25,5.48,.6,10.6,3.45,15.37,8.55Zm-12.33,4.95c-3.22,.4-6.55,1.5-10,3.3-3.46,1.8-6.7,4.2-9.74,7.2s-5.81,6.5-8.31,10.5c-2.5,4-4.47,8.3-5.9,12.9,9.53-4,17.45-8.92,23.76-14.78,6.31-5.85,9.71-12.22,10.18-19.12Z"/><path class="i" d="M945.71,474.21c.59-2.9,1.64-6.72,3.13-11.47,1.49-4.75,3.24-9.8,5.27-15.15,2.02-5.35,4.17-10.72,6.43-16.12,2.26-5.4,4.47-10.25,6.61-14.55,1.55-3.1,2.92-5.52,4.11-7.28,1.19-1.75,2.5-3.22,3.93-4.42,1.67,.2,3.39,.55,5.18,1.05,1.79,.5,3.51,1.1,5.18,1.8,1.67,.7,3.15,1.43,4.47,2.18,1.31,.75,2.32,1.48,3.04,2.17-3.22,3.2-6.05,6.85-8.49,10.95-2.44,4.1-4.91,9.35-7.41,15.75,6.43-4.8,12.12-9.4,17.06-13.8,4.94-4.4,9.56-9.3,13.85-14.7,.71-.5,1.96-.75,3.75-.75,1.67,0,3.27,.22,4.82,.67,1.55,.45,2.62,1.08,3.22,1.88-2.14,4.8-3.22,9.55-3.22,14.25,0,4.4,.77,7.7,2.32,9.9-.12,.6-.92,1.75-2.41,3.45-1.49,1.7-3.13,3.3-4.91,4.8-3.22-1.4-6.08-3.32-8.58-5.77-2.5-2.45-4.35-5.12-5.54-8.03-5.6,3.3-10.36,6.53-14.29,9.67-3.93,3.15-7.3,6.65-10.09,10.5-2.8,3.85-5.18,8.28-7.15,13.28-1.96,5-3.84,10.95-5.63,17.85-1.07-.1-2.35-.43-3.84-.97-1.49-.55-2.98-1.23-4.47-2.03-1.49-.8-2.83-1.65-4.02-2.55-1.19-.9-1.96-1.75-2.32-2.55Z"/></g><g><path class="e" d="M1368.78,858.22c-16.96,1.05-89.19,7.44-148.05,67.75-60.88,62.39-63.94,137.91-64.22,154.23l527.52-.02c-.95-19.72-7.07-99.33-71.66-161.85-40.93-39.62-86.31-53.94-108.97-59.4l-134.62-.72Z"/><path class="f" d="M1682.66,1080.17c-.79-19.74-6.07-92.18-63.55-153.48-43.03-45.88-93.05-61.79-115.47-67.37-1.04-.26-2.13-.12-3.06,.4l-173.15,95.39c-1.11,41.65-2.21,83.31-3.32,124.96,119.52,.03,239.03,.06,358.55,.09Z"/><path class="d" d="M1490.83,960.41c5.31-.17,10.93,4.05,10.84,9.79-.09,5.63-5.62,9.9-11.14,9.44-5.59-.46-10.26-5.7-9.44-11.14,.71-4.73,5.31-7.95,9.74-8.09Z"/><path class="d" d="M1387.78,961.55c5.31-.17,10.93,4.05,10.84,9.79-.09,5.63-5.62,9.9-11.14,9.44-5.59-.46-10.26-5.7-9.44-11.14,.71-4.73,5.31-7.95,9.74-8.09Z"/><path class="d" d="M1385.44,1023.33c5.31-.17,10.93,4.05,10.84,9.79-.09,5.63-5.62,9.9-11.14,9.44-5.59-.46-10.26-5.7-9.44-11.14,.71-4.73,5.31-7.95,9.74-8.09Z"/><path class="d" d="M1492.57,1025c5.31-.17,10.93,4.05,10.84,9.79-.09,5.63-5.62,9.9-11.14,9.44-5.59-.46-10.26-5.7-9.44-11.14,.71-4.73,5.31-7.95,9.74-8.09Z"/><polygon class="g" points="1368.78 858.22 1413.88 907.49 1501.57 858.93 1368.78 858.22"/><path class="g" d="M1304.62,477.63c39.6,6.86,84.91,12.32,135.04,14.3,57.51,2.27,109.27-.52,153.75-5.43,13.96,14.44,49.24,54.76,59.45,117.97,3.11,19.28,10.96,72.75-18.6,128.28-33.73,63.36-93.09,86.07-112.95,93.67-15.26,5.84-89.81,32.48-171.82-2.34-20.26-8.6-77.07-32.72-105.52-93.4-21.6-46.08-14.51-91.86-12.34-107.03,3.74-26.1,11.63-45.23,17.56-59.36,16.64-39.61,38.71-68.27,55.42-86.65Z"/><path d="M1272.61,726.9c6.53,10.1,17.42,16.25,28.61,15.56,15.02-.93,24.5-13.81,27.83-22.92,3.69-10.09-.73-13.94,1.76-24.7,4.48-19.38,24.16-29.92,26.59-31.18,20.41-10.58,47.8-5.88,68.5,12.06,4.81-4.54,30.03-27.55,56.65-21.1,19.19,4.65,32.61,23.01,39.34,32.21,12.57,17.19,12.69,28.07,25.54,36.12,10.26,6.43,25.97,2.71,34.31,1.91-1.1,6.37-8.76,25.2-21.2,38.13-16.89,17.57-39.1,18.99-51.14,19.81-27.82,1.88-48.37-9-56.12-13.24-13.54-7.4-22.86-16.25-28.5-22.42-6.92,6.52-17.51,15.24-31.95,22.86-14.08,7.42-36.63,19.31-64.81,15.47-9.85-1.34-34.48-4.7-47.68-25.47-8.23-12.95-8.19-26.64-7.73-33.09Z"/><path d="M1397.6,585.22c1.82,4.38-9.57,18.33-23.97,20.62-16.54,2.63-34.24-10.57-33.82-18.36,.06-1.17,.61-3.68,2.28-4.4,2.01-.86,4.76,1.16,7.28,3.34,6.15,5.34,9.59,7.07,13.35,8.2,10.03,3.01,22.78-3.11,26.55-9.85,.47-.84,2.98-2.49,5.31-1.97,1.48,.33,2.67,1.56,3.03,2.43Z"/><path d="M1464.58,580.16c-2.24,4.17,7.69,19.2,21.8,22.91,16.19,4.26,35.12-7.1,35.48-14.9,.05-1.17-.24-3.73-1.83-4.6-1.91-1.06-4.86,.68-7.58,2.6-6.65,4.7-10.25,6.08-14.1,6.82-10.28,1.99-22.36-5.36-25.43-12.45-.38-.89-2.72-2.77-5.09-2.49-1.51,.18-2.81,1.28-3.26,2.11Z"/><path d="M1345.84,561.24c10.81-5.06,21.62-10.13,32.44-15.19,1.58-1.03,3.48-.53,4.09,.53,.65,1.12,.02,3.18-1.89,3.91-11.21,4.55-22.42,9.1-33.62,13.65-1.24,.53-2.43,.22-2.72-.35-.32-.62,.23-1.95,1.71-2.55Z"/><path d="M1513.91,562.65c-10.56-5.57-21.12-11.15-31.68-16.72-1.53-1.11-3.45-.69-4.11,.33-.7,1.09-.17,3.18,1.7,4,10.98,5.08,21.96,10.16,32.93,15.24,1.22,.59,2.42,.34,2.74-.22,.35-.61-.14-1.96-1.59-2.63Z"/><path class="d" d="M1222.15,614.84c.03-14.82,2.09-44.51,19.05-76.63,18.25-34.55,44.05-53.55,56.6-61.62,102.03,5.25,204.07,10.51,306.1,15.76,7.95,6.85,19.1,18.15,28.31,34.79,12.08,21.84,14.92,42.24,15.65,53.82-4.78-11.96-14.15-30.84-32.21-48.58-11.65-11.45-23.41-18.98-32.6-23.86,.09,4.07-.25,13.39-5.86,23.26-5.99,10.54-14.55,15.68-18.13,17.58-2.4-7.16-6.21-16.45-11.98-24.91-1.7-2.49-3.39-4.66-3.63-4.97-4.62-5.89-9.16-10.22-12.57-13.14-4.21,2.71-9.88,7.02-15.32,13.5-5.99,7.14-9.38,14.16-11.29,19.06-4.02-2.49-11.8-8.05-17.58-18.13-4.79-8.36-6.12-16.18-6.55-20.71-6.16,2.69-14.05,6.88-22.19,13.39-10.11,8.08-16.79,16.68-20.97,23.03-3.17-1.04-13.28-4.8-20.37-15.43-6.19-9.29-6.56-18.56-6.52-22.08-4,3.42-8.26,7.45-12.55,12.17-6.52,7.15-11.56,14.17-15.43,20.37-2.02-1.36-7.89-5.69-10.77-13.91-3.23-9.22-.51-17.11,.3-19.23-4.96,2.5-12.41,7.03-19.46,14.81-8.42,9.3-12.31,18.87-14.12,24.51-2.21-1.43-10.37-7.08-13.46-18.07-2.29-8.14-.6-14.99,.28-17.85-14.08,7.55-31.35,18.69-48.63,34.96-29.87,28.14-45.8,58.5-54.11,78.15Z"/><path class="f" d="M1298.5,475.91c-2.03-9.36-3.77-19.48-5.02-30.3-3.07-26.49-2.4-50.23-.28-70.07-6.69-.71-29.03-3.94-47.73-22.72-6.93-6.96-20.38-19.92-21.35-40.17-.13-2.81-1.08-32.51,21.98-44.3,19.26-9.85,39.29,.95,41.18,2.02-2.65-7.02-9.02-26.71-1.98-49.49,1.29-4.19,13.26-40.88,46.07-47.36,26.39-5.22,55.96,11.15,69.42,40.92,15.09-32.68,47.25-53.75,81.89-53.67,39.84,.09,75.93,28.15,86.85,68.67,43.77-24.72,92.79-19.28,118.01,8.71,1.23,1.37,23.6,27.01,16.93,59.34-7.2,34.91-45.19,62.79-93,61.74-2.52,44.38-5.05,88.76-7.57,133.14-50.82,1.47-105.96,.97-164.81-2.57-49.95-3.01-96.92-7.87-140.59-13.87Z"/></g></g></g></svg>