<?xml version="1.0" encoding="UTF-8"?><svg xmlns="http://www.w3.org/2000/svg" width="401" height="301" xmlns:xlink="http://www.w3.org/1999/xlink" viewBox="0 0 401 301"><defs><style>.g,.h{stroke:#000;stroke-miterlimit:10;}.i{fill:#f05866;}.j{fill:#fff;}.h{opacity:.16;}.k{clip-path:url(#f);}.l{clip-path:url(#e);}.m{clip-path:url(#d);}</style><clipPath id="d"><path class="i" d="M99.42,235.42c1.09-2.24,4.7-3.43,7.55-4.34,10.76-3.42,21.05-1.96,27.4-1.4,16.24,1.43,29.63-1.06,41.3-3.23,12.45-2.32,31.96-6.42,42.68-16.91,3.56-3.49,6.25-7.79,11.54-16.43,2.52-4.11,4.57-7.01,6.25-9.21,1.9-2.49,3.45-4.37,4.35-5.44,10.81-12.83,16.22-19.24,19.61-20.28,10.74-3.29,17.93,6.03,32.35,2.59,5.92-1.41,5.92-3.27,16.09-6.41,3.45-1.06,9.88-3.01,17.97-3.73,2.56-.23,14.72-1.17,25.89,2.33,17.53,5.5,25.51,19.73,24.48,31.56-.83,9.53-7.38,16.2-17.73,26.76-10.79,11-22.7,19.47-34.62,26.66-6.67,4.03-15.77,9.29-27.44,14.66-15.81,7.28-30.37,12.16-41.62,15.41-5.24,2.02-12.15,4.49-20.46,6.97-4.07,1.22-14.2,4.2-34.22,8.05-27.46,5.27-41.35,7.86-49.57,5.25-7.22-2.29-7.08-5.05-16.79-7.42-9.31-2.28-12.92-.59-22.09-3.01-5.47-1.44-15.09-3.98-16.53-8.94-2.08-7.18,15.15-11.88,13.74-20.17-1.09-6.42-12.3-8.79-10.1-13.32Z"/></clipPath><clipPath id="e"><path class="i" d="M24.01,216.33c-.03-2.16,2.57-4.94,4.64-7.11,7.82-8.2,17.35-12.71,23.08-15.74,14.67-7.74,25.15-16.71,34.3-24.52,9.76-8.34,24.85-21.72,29.55-34.87,1.56-4.36,2.02-8.84,2.84-17.76,.39-4.24,.91-7.38,1.4-9.83,.56-2.78,1.08-4.93,1.4-6.16,3.77-14.83,5.66-22.24,8.15-24.81,7.86-8.1,18.12-5.43,29.09-15.61,4.51-4.18,3.7-5.49,11.12-13.17,2.52-2.6,7.23-7.43,13.91-12.3,2.11-1.54,12.21-8.75,23.39-12.31,17.55-5.58,30.62,.11,34.88,8.97,3.42,7.13,.66,15.35-3.71,28.35-4.55,13.54-11.17,25.9-18.35,37.37-4.02,6.42-9.6,15.02-17.36,25.08-10.51,13.63-20.97,24.9-29.29,33.24-3.66,4.24-8.55,9.7-14.66,15.92-2.99,3.05-10.45,10.6-26.09,24.09-21.45,18.49-32.34,27.79-40.57,30.39-7.23,2.28-8.31,.27-17.74,3.83-9.04,3.42-11.42,6.54-20.41,9.79-5.36,1.93-14.77,5.33-18.17,2.62-4.92-3.92,7.94-16.5,3.11-21.57-3.73-3.92-14.45,.45-14.51-3.91Z"/></clipPath><clipPath id="f"><path class="i" d="M42.33,240.81c.49-2.39,3.8-4.67,6.42-6.45,9.9-6.7,20.64-8.82,27.17-10.44,16.72-4.14,29.51-10.88,40.65-16.75,11.9-6.27,30.41-16.51,38.35-29.59,2.64-4.34,4.18-9.14,7.17-18.73,1.42-4.56,2.7-7.87,3.79-10.42,1.24-2.89,2.29-5.11,2.9-6.38,7.41-15.22,11.11-22.83,14.24-24.91,9.91-6.58,19.66-.55,33.23-8.49,5.57-3.26,5.07-4.94,14.45-11.19,3.18-2.12,9.12-6.03,17.06-9.39,2.51-1.06,14.48-5.99,26.66-6.56,19.12-.9,30.98,9.3,33.14,20.35,1.74,8.89-3.04,17.13-10.61,30.15-7.88,13.57-17.57,25.21-27.61,35.71-5.62,5.88-13.35,13.68-23.64,22.45-13.93,11.88-27.25,21.17-37.69,27.88-4.73,3.58-11,8.13-18.69,13.16-3.77,2.46-13.14,8.55-32.24,18.74-26.18,13.96-39.46,20.95-48.42,21.35-7.88,.35-8.48-2.19-18.89-1.09-9.98,1.06-13.15,3.79-23.03,4.67-5.89,.53-16.24,1.45-19.03-2.56-4.03-5.8,12.02-15.82,8.36-22.85-2.83-5.44-14.74-3.83-13.75-8.66Z"/></clipPath></defs><g id="a"/><g id="b"><g id="c"><g><g><path class="g" d="M76.23,234.45c-3.01-2.37-1.66-6.16,2.77-7.62,7.54-2.48,17.08-4.96,28.26-6.35,20.55-2.55,27.04,1.01,45.07-.87,4.9-.51,35.16-3.97,54.07-19.29,11.47-9.29,7.52-13.84,28.86-39.6,7.04-8.5,10.85-12.09,17.48-14.24,12.57-4.09,19.32,2.15,37.92,.46,18.53-1.68,20.04-8.61,39.97-11.17,6.2-.8,21.99-2.17,37.51,2.79,19.83,6.33,30.71,20.28,32.19,33.02,1.24,10.72-4.07,21.64-20.43,37.54-44,42.75-107.41,62.74-144.33,74.04-30.3,9.27-77.38,23.33-102.76,14.57-3.46-1.19-15.64-5.96-34.13-8.91-8.73-1.4-16.39-1.99-22.03-2.26-2.04-.1-3.96-.58-5.54-1.39-8.78-4.49-10.36-8.24-10.19-10.84,.21-3.32,3.28-4.73,12.26-14.02,6.49-6.72,9.75-10.14,10.34-12.92,.49-2.35,.38-6.91-7.29-12.94Z"/><path class="j" d="M83.51,236.13c-2.91-2.12-1.66-5.51,2.56-6.8,7.19-2.2,16.3-4.4,26.99-5.61,19.65-2.24,25.9,.96,43.14-.68,4.69-.45,33.63-3.47,51.55-17.12,7.49-5.7,8.01-9.41,14.19-18.68,6.6-9.9,10.5-13.61,13-16.65,15.67-19.11,20.01-20.63,22.76-21.26,5.38-1.23,5.04,.87,24.61,1.57,12.57,.45,17.47-.25,21.77-1.58,5.17-1.6,5.3-2.82,11.06-4.99,8.3-3.12,15.97-3.59,21.05-3.89,3.71-.22,17.44-.95,29.97,3.27,19.86,6.7,28.73,23.15,26.96,36.93-1.41,10.96-9.33,18.51-21.86,30.45-13.06,12.44-27.29,21.93-41.48,29.96-31.49,17.82-59.24,26.47-97.21,38.07,0,0-70.86,21.65-94.18,13.7-.74-.25-4.57-1.61-10.12-3.17-5.65-1.6-13.32-3.45-22.66-4.86-8.38-1.27-15.71-1.81-21.12-2.06-1.95-.09-3.79-.53-5.32-1.25-8.46-4.03-10.01-7.39-9.88-9.71,.17-2.97,3.09-4.22,11.58-12.51,6.14-5.99,9.22-9.04,9.75-11.52,.45-2.1,.28-6.18-7.12-11.58Z"/><g><path class="i" d="M99.42,235.42c1.09-2.24,4.7-3.43,7.55-4.34,10.76-3.42,21.05-1.96,27.4-1.4,16.24,1.43,29.63-1.06,41.3-3.23,12.45-2.32,31.96-6.42,42.68-16.91,3.56-3.49,6.25-7.79,11.54-16.43,2.52-4.11,4.57-7.01,6.25-9.21,1.9-2.49,3.45-4.37,4.35-5.44,10.81-12.83,16.22-19.24,19.61-20.28,10.74-3.29,17.93,6.03,32.35,2.59,5.92-1.41,5.92-3.27,16.09-6.41,3.45-1.06,9.88-3.01,17.97-3.73,2.56-.23,14.72-1.17,25.89,2.33,17.53,5.5,25.51,19.73,24.48,31.56-.83,9.53-7.38,16.2-17.73,26.76-10.79,11-22.7,19.47-34.62,26.66-6.67,4.03-15.77,9.29-27.44,14.66-15.81,7.28-30.37,12.16-41.62,15.41-5.24,2.02-12.15,4.49-20.46,6.97-4.07,1.22-14.2,4.2-34.22,8.05-27.46,5.27-41.35,7.86-49.57,5.25-7.22-2.29-7.08-5.05-16.79-7.42-9.31-2.28-12.92-.59-22.09-3.01-5.47-1.44-15.09-3.98-16.53-8.94-2.08-7.18,15.15-11.88,13.74-20.17-1.09-6.42-12.3-8.79-10.1-13.32Z"/><g class="m"><path class="h" d="M377.07,161.37c-.77-.67-1.63-1.28-2.56-1.84-21.03,23.1-44.06,55.71-94.68,82.88-44.01,23.62-114.32,33.98-149.91,43.83,20.2,15.37,97.57,3.86,162.43-30.94,65.83-35.33,103.76-77.37,84.72-93.92Z"/></g></g><path class="j" d="M140.99,230.67c6.2-.02,10.6,1.84,12.62,2.67,1.49,.61,19.71,9.27,33.15,10.04,13.06,.75,33.68-1.19,44.25-9.98,6.36-5.29,3.02-8.02,10.88-14.88,6.53-5.7,15.57-9.38,23.39-12.19,28.82-10.34,28.39-9.79,32.52-11.78,5.49-2.65,14.77-7.13,21.8-14.56,13.04-13.8,7.95-26.8,16.33-28.49,4.46-.9,10.39,1.88,12.96,3.48,.7,.43,3.44,2.17,4.73,4.64,2.72,5.22-2.4,11.26-6.05,15.13-16.16,17.14-48.44,38.64-64.07,42.09-2.9,.64-9.4,1.88-15.15,5.6-5.24,3.39-3.64,4.82-10.22,11.09-5.44,5.19-12.73,10.13-15.04,11.7-3.15,2.13-4.81,3.08-6.8,5.11-3.6,3.65-4.12,6.62-5.12,8.97-5.32,12.54-28.81,19.98-30.99,20.65-3.54,1.09-7.49,1.99-10.66,2.71-7.43,1.69-13.55,2.68-17.54,3.25-13.12,1.87-22.92,3.27-25.01,.71-1.48-1.82,1.58-4.81,2.06-5.28,2.72-2.66,6.05-3.01,13.08-5.25,8.71-2.77,16.35-5.28,18.55-9.78,.29-.6,1.07-2.27,.34-4.1-1.48-3.68-7.83-4.85-17.16-7.12-11.97-2.92-17.95-4.37-23.68-6.88-2.16-.95-17.34-7.6-14.73-12.7,1.65-3.21,9.85-4.82,15.56-4.84Z"/></g><g><path class="g" d="M3.54,228.15c-3.63-.04-4.11-3.43-.92-6.84,5.44-5.8,12.61-12.68,21.68-19.68,16.66-12.86,23.82-13.86,38.58-24.88,4.02-3,28.68-21.73,38.36-42.67,5.88-12.7,.49-13.77,7.74-43.35,2.39-9.76,4.13-14.33,8.92-19.42,9.09-9.64,17.63-8.9,32.98-20.11,15.29-11.16,13.58-16.84,29.7-29.38,5.01-3.9,18.07-13.37,33.64-18.25,19.89-6.23,35.36-2.3,42.17,5.85,5.73,6.86,5.88,17.38-1.36,37.37-19.46,53.72-65.6,101.92-92.61,129.74-22.17,22.83-56.76,58.07-82.5,65.59-3.51,1.03-16.11,4.24-33.38,12.13-8.16,3.72-15.03,7.43-20.02,10.28-1.81,1.03-3.67,1.72-5.39,2.01-9.54,1.58-12.53-.21-13.52-2.12-1.26-2.45,.78-5.09,4.51-16.45,2.7-8.22,4.03-12.37,3.32-14.64-.6-1.92-2.68-5.06-11.92-5.16Z"/><path class="j" d="M10.56,225.4c-3.44,.08-3.82-2.98-.74-6.16,5.26-5.42,12.18-11.87,20.9-18.48,16.02-12.16,22.81-13.28,37-23.72,3.86-2.84,27.56-20.55,37.13-39.79,4-8.04,2.83-10.92,4.15-20.76,1.4-10.51,3.17-15.21,4-18.69,5.25-21.86,8.34-25.27,10.44-27.19,4.11-3.76,4.74-2.1,21.96-12.16,11.06-6.46,15-9.59,18.14-12.84,3.77-3.9,3.36-4.83,7.4-9.46,5.81-6.66,12.25-11.12,16.51-14.07,3.11-2.15,14.67-10.06,27.33-13.85,20.08-6,34.9,.78,39.35,11.41,3.54,8.46-.03,18.03-5.67,33.16-5.88,15.77-14.07,30.1-22.84,43.38-19.48,29.48-39.71,50.5-67.5,79.1,0,0-51.86,53.37-75.47,60.35-.74,.22-4.65,1.33-10.13,3.22-5.58,1.92-13.02,4.75-21.71,8.79-7.79,3.62-14.37,7.19-19.15,9.93-1.73,.99-3.51,1.67-5.14,1.98-9.06,1.73-11.86,.2-12.76-1.5-1.15-2.18,.83-4.63,4.58-15.02,2.71-7.52,4.05-11.32,3.42-13.34-.53-1.72-2.44-4.49-11.19-4.29Z"/><g><path class="i" d="M24.01,216.33c-.03-2.16,2.57-4.94,4.64-7.11,7.82-8.2,17.35-12.71,23.08-15.74,14.67-7.74,25.15-16.71,34.3-24.52,9.76-8.34,24.85-21.72,29.55-34.87,1.56-4.36,2.02-8.84,2.84-17.76,.39-4.24,.91-7.38,1.4-9.83,.56-2.78,1.08-4.93,1.4-6.16,3.77-14.83,5.66-22.24,8.15-24.81,7.86-8.1,18.12-5.43,29.09-15.61,4.51-4.18,3.7-5.49,11.12-13.17,2.52-2.6,7.23-7.43,13.91-12.3,2.11-1.54,12.21-8.75,23.39-12.31,17.55-5.58,30.62,.11,34.88,8.97,3.42,7.13,.66,15.35-3.71,28.35-4.55,13.54-11.17,25.9-18.35,37.37-4.02,6.42-9.6,15.02-17.36,25.08-10.51,13.63-20.97,24.9-29.29,33.24-3.66,4.24-8.55,9.7-14.66,15.92-2.99,3.05-10.45,10.6-26.09,24.09-21.45,18.49-32.34,27.79-40.57,30.39-7.23,2.28-8.31,.27-17.74,3.83-9.04,3.42-11.42,6.54-20.41,9.79-5.36,1.93-14.77,5.33-18.17,2.62-4.92-3.92,7.94-16.5,3.11-21.57-3.73-3.92-14.45,.45-14.51-3.91Z"/><g class="l"><path class="h" d="M231.87,14.77c-.96-.05-1.96-.02-3.01,.08-8.15,27.55-13.88,62.85-45.85,109.2-27.79,40.29-84.07,85.45-110.56,111.53,24.14-.09,86.03-49.85,126.98-109.23,41.57-60.27,56.09-110.23,32.44-111.58Z"/></g></g><path class="j" d="M57.88,190.6c5.35-3.35,9.96-4.42,12.07-4.92,1.55-.37,21.07-4.11,33.02-10.81,11.61-6.51,28.6-18.98,33.92-30.85,3.2-7.14-.87-7.26,2.94-16.31,3.17-7.52,9.39-14.98,14.93-21.16,20.43-22.79,20.29-22.17,23-25.8,3.6-4.82,9.67-12.96,12.52-21.97,5.28-16.72-4.77-23.1,1.74-28.8,3.47-3.04,9.8-4.28,12.72-4.54,.79-.07,3.92-.33,6.1,.71,4.62,2.2,2.81,9.2,1.34,13.88-6.53,20.74-25.09,53.23-37.11,64.07-2.23,2.01-7.31,6.38-10.67,12.09-3.05,5.2-1.05,5.34-4.01,13.29-2.45,6.57-6.61,13.97-7.92,16.32-1.8,3.19-2.82,4.75-3.66,7.25-1.52,4.5-.69,6.87-.53,9.06,.85,11.67-16.22,29.55-17.82,31.19-2.58,2.67-5.61,5.43-8.04,7.64-5.69,5.19-10.55,9.18-13.75,11.73-10.53,8.38-18.4,14.64-21.32,13.97-2.07-.48-.72-4.23-.51-4.82,1.2-3.33,3.92-5.37,9.03-10.73,6.33-6.64,11.84-12.51,11.78-16.86,0-.58-.06-2.17-1.49-3.06-2.87-1.79-8.88,.81-17.93,4.24-11.61,4.4-17.42,6.6-23.46,7.92-2.28,.5-18.3,4-18.25-.98,.03-3.14,6.42-8.69,11.35-11.78Z"/></g><g><path class="g" d="M18.75,247.7c-3.66-1.13-3.33-5.02,.73-7.82,6.91-4.77,15.84-10.21,26.7-15.2,19.98-9.19,27.46-8.14,45.08-15.87,4.79-2.1,34.29-15.36,49.16-35.55,9.02-12.24,3.82-15.04,18.32-45.49,4.78-10.05,7.65-14.57,13.73-18.74,11.53-7.91,20-4.53,38.26-12.28,18.18-7.72,17.82-14.5,37.18-23.49,6.02-2.79,21.53-9.33,38.47-10.04,21.64-.91,36.36,8.07,41.28,19.1,4.14,9.28,1.75,20.94-10.41,40.8-32.69,53.41-91.05,92.72-125.13,115.3-27.97,18.53-71.51,47.01-99.39,47.59-3.8,.08-17.33-.15-36.72,3.36-9.16,1.66-17.01,3.68-22.76,5.33-2.08,.6-4.13,.8-5.95,.6-10.04-1.12-12.64-3.99-13.17-6.4-.68-3.08,2.02-5.38,8.54-16.79,4.72-8.25,7.07-12.44,6.91-15.15-.14-2.29-1.49-6.38-10.82-9.27Z"/><path class="j" d="M26.52,246.78c-3.5-.94-3.15-4.43,.74-7.01,6.63-4.4,15.2-9.43,25.62-14.11,19.16-8.6,26.31-7.81,43.2-15.06,4.59-1.97,32.87-14.4,47.21-32.75,5.99-7.67,5.51-11.2,9.22-21.65,3.96-11.17,6.89-15.82,8.57-19.41,10.6-22.53,14.55-25.37,17.14-26.85,5.07-2.92,5.31-.9,25.17-6.82,12.76-3.8,17.5-6.08,21.47-8.72,4.77-3.17,4.57-4.32,9.77-8.21,7.5-5.6,15.09-8.59,20.11-10.57,3.67-1.44,17.28-6.7,31.02-7.08,21.78-.59,35.14,11.33,37.08,24.38,1.54,10.39-4.39,19.87-13.76,34.87-9.77,15.63-21.52,28.98-33.62,40.99-26.85,26.67-52.42,43.78-87.46,66.99,0,0-65.41,43.31-91,43.93-.81,.02-5.03,.08-11.03,.52-6.12,.45-14.33,1.34-24.1,3.19-8.77,1.66-16.29,3.62-21.79,5.2-1.99,.57-3.96,.79-5.69,.65-9.59-.81-12.06-3.33-12.55-5.48-.63-2.74,1.96-4.85,8.27-15.19,4.56-7.48,6.83-11.27,6.69-13.69-.12-2.05-1.38-5.68-10.29-8.09Z"/><g><path class="i" d="M42.33,240.81c.49-2.39,3.8-4.67,6.42-6.45,9.9-6.7,20.64-8.82,27.17-10.44,16.72-4.14,29.51-10.88,40.65-16.75,11.9-6.27,30.41-16.51,38.35-29.59,2.64-4.34,4.18-9.14,7.17-18.73,1.42-4.56,2.7-7.87,3.79-10.42,1.24-2.89,2.29-5.11,2.9-6.38,7.41-15.22,11.11-22.83,14.24-24.91,9.91-6.58,19.66-.55,33.23-8.49,5.57-3.26,5.07-4.94,14.45-11.19,3.18-2.12,9.12-6.03,17.06-9.39,2.51-1.06,14.48-5.99,26.66-6.56,19.12-.9,30.98,9.3,33.14,20.35,1.74,8.89-3.04,17.13-10.61,30.15-7.88,13.57-17.57,25.21-27.61,35.71-5.62,5.88-13.35,13.68-23.64,22.45-13.93,11.88-27.25,21.17-37.69,27.88-4.73,3.58-11,8.13-18.69,13.16-3.77,2.46-13.14,8.55-32.24,18.74-26.18,13.96-39.46,20.95-48.42,21.35-7.88,.35-8.48-2.19-18.89-1.09-9.98,1.06-13.15,3.79-23.03,4.67-5.89,.53-16.24,1.45-19.03-2.56-4.03-5.8,12.02-15.82,8.36-22.85-2.83-5.44-14.74-3.83-13.75-8.66Z"/><g class="k"><path class="h" d="M301.51,80.86c-.95-.35-1.98-.61-3.07-.81-14.91,27.94-29.26,65.15-72.82,106.67-37.88,36.1-105.77,69.02-138.9,89.84,24.47,7.14,99.15-29.18,154.97-82.38s83.44-104.74,59.83-113.32Z"/></g></g><path class="j" d="M82.84,222.6c6.23-2.09,11.15-1.88,13.41-1.81,1.66,.05,22.33,1.79,36.04-2.01,13.33-3.7,33.54-12.35,41.8-23.85,4.97-6.92,.87-8.27,6.93-17.11,5.03-7.35,13.12-13.7,20.23-18.86,26.19-19,25.9-18.36,29.52-21.55,4.81-4.24,12.93-11.39,17.98-20.47,9.39-16.85,.76-26.91,8.73-31.24,4.25-2.31,10.96-1.78,13.97-1.19,.82,.16,4.05,.81,6,2.61,4.14,3.81,.62,10.99-2,15.71-11.62,20.92-38.28,51.17-53.06,59.53-2.74,1.55-8.94,4.85-13.72,10.14-4.35,4.82-2.36,5.58-7.28,13.46-4.07,6.51-10.07,13.43-11.97,15.62-2.59,2.98-4,4.4-5.46,6.9-2.63,4.51-2.36,7.37-2.73,9.83-1.96,13.12-23.57,27.72-25.58,29.06-3.26,2.17-6.99,4.3-9.99,6.02-7.02,4.02-12.9,6.96-16.76,8.81-12.69,6.09-22.17,10.63-24.96,9.02-1.98-1.15,.29-4.88,.65-5.47,2.02-3.31,5.27-4.75,11.73-9.12,8.01-5.42,15.01-10.25,16.01-15.06,.13-.64,.47-2.41-.76-3.82-2.48-2.83-9.18-1.77-19.18-.7-12.82,1.37-19.23,2.05-25.66,1.7-2.42-.13-19.49-1.07-18.24-6.56,.79-3.46,8.6-7.66,14.34-9.59Z"/></g></g></g></g></svg>