<?xml version="1.0" encoding="UTF-8"?><svg xmlns="http://www.w3.org/2000/svg" width="1920" height="1080" viewBox="0 0 1920 1080"><defs><style>.d{stroke:#000;stroke-miterlimit:10;}.e{fill:#f2f2f2;}.f{fill:#fff;}.g{fill:#ffd7c4;}.h{fill:#ffd196;}.i{fill:#42210b;}</style></defs><g id="a"/><g id="b"><g id="c"><rect class="h" width="1920" height="1080" rx="12" ry="12"/><g><path class="e" d="M1369.31,857.96c-16.96,1.05-89.19,7.44-148.05,67.75-60.88,62.39-63.94,137.91-64.22,154.23l527.52-.02c-.95-19.72-7.07-99.33-71.66-161.85-40.93-39.62-86.31-53.94-108.97-59.4l-134.62-.72Z"/><path class="f" d="M1683.19,1079.91c-.79-19.74-6.07-92.18-63.55-153.48-43.03-45.88-93.05-61.79-115.47-67.37-1.04-.26-2.13-.12-3.06,.4l-173.15,95.39c-1.11,41.65-2.21,83.31-3.32,124.96,119.52,.03,239.03,.06,358.55,.09Z"/><path class="d" d="M1491.36,960.15c5.31-.17,10.93,4.05,10.84,9.79-.09,5.63-5.62,9.9-11.14,9.44-5.59-.46-10.26-5.7-9.44-11.14,.71-4.73,5.31-7.95,9.74-8.09Z"/><path class="d" d="M1388.31,961.29c5.31-.17,10.93,4.05,10.84,9.79-.09,5.63-5.62,9.9-11.14,9.44-5.59-.46-10.26-5.7-9.44-11.14,.71-4.73,5.31-7.95,9.74-8.09Z"/><path class="d" d="M1385.97,1023.07c5.31-.17,10.93,4.05,10.84,9.79-.09,5.63-5.62,9.9-11.14,9.44-5.59-.46-10.26-5.7-9.44-11.14,.71-4.73,5.31-7.95,9.74-8.09Z"/><path class="d" d="M1493.1,1024.74c5.31-.17,10.93,4.05,10.84,9.79-.09,5.63-5.62,9.9-11.14,9.44-5.59-.46-10.26-5.7-9.44-11.14,.71-4.73,5.31-7.95,9.74-8.09Z"/><polygon class="g" points="1369.31 857.96 1414.41 907.23 1502.1 858.67 1369.31 857.96"/><path class="g" d="M1305.15,477.37c39.6,6.86,84.91,12.32,135.04,14.3,57.51,2.27,109.27-.52,153.75-5.43,13.96,14.44,49.24,54.76,59.45,117.97,3.11,19.28,10.96,72.75-18.6,128.28-33.73,63.36-93.09,86.07-112.95,93.67-15.26,5.84-89.81,32.48-171.82-2.34-20.26-8.6-77.07-32.72-105.52-93.4-21.6-46.08-14.51-91.86-12.34-107.03,3.74-26.1,11.63-45.23,17.56-59.36,16.64-39.61,38.71-68.27,55.42-86.65Z"/><path d="M1273.13,726.64c6.53,10.1,17.42,16.25,28.61,15.56,15.02-.93,24.5-13.81,27.83-22.92,3.69-10.09-.73-13.94,1.76-24.7,4.48-19.38,24.16-29.92,26.59-31.18,20.41-10.58,47.8-5.88,68.5,12.06,4.81-4.54,30.03-27.55,56.65-21.1,19.19,4.65,32.61,23.01,39.34,32.21,12.57,17.19,12.69,28.07,25.54,36.12,10.26,6.43,25.97,2.71,34.31,1.91-1.1,6.37-8.76,25.2-21.2,38.13-16.89,17.57-39.1,18.99-51.14,19.81-27.82,1.88-48.37-9-56.12-13.24-13.54-7.4-22.86-16.25-28.5-22.42-6.92,6.52-17.51,15.24-31.95,22.86-14.08,7.42-36.63,19.31-64.81,15.47-9.85-1.34-34.48-4.7-47.68-25.47-8.23-12.95-8.19-26.64-7.73-33.09Z"/><path d="M1341.09,597.2c-1.25-4.57,11.79-16.99,26.37-17.45,16.74-.53,32.64,14.78,31.25,22.47-.21,1.15-1.07,3.58-2.81,4.08-2.1,.6-4.58-1.75-6.8-4.23-5.43-6.07-8.62-8.22-12.21-9.81-9.57-4.25-22.99,.22-27.58,6.44-.57,.78-3.27,2.09-5.52,1.29-1.43-.51-2.45-1.88-2.7-2.79Z"/><path d="M1515.58,594.42c1.4-4.53-11.26-17.35-25.82-18.26-16.71-1.05-33.09,13.76-31.93,21.48,.17,1.15,.95,3.61,2.68,4.16,2.08,.67,4.63-1.6,6.93-4.01,5.62-5.9,8.88-7.94,12.51-9.42,9.7-3.94,22.97,.94,27.36,7.3,.55,.8,3.2,2.19,5.47,1.46,1.44-.47,2.51-1.8,2.79-2.7Z"/><path d="M1345.3,565.91c10.57-5.56,21.13-11.12,31.7-16.67,1.53-1.11,3.45-.69,4.11,.34,.7,1.09,.17,3.18-1.71,3.99-10.99,5.06-21.97,10.13-32.96,15.19-1.22,.59-2.42,.33-2.74-.23-.35-.61,.14-1.96,1.6-2.62Z"/><path d="M1510.47,563.39c-10.68-5.35-21.35-10.69-32.03-16.04-1.56-1.08-3.46-.62-4.1,.42-.68,1.11-.1,3.18,1.79,3.96,11.08,4.84,22.17,9.69,33.25,14.53,1.23,.56,2.43,.28,2.73-.28,.33-.61-.18-1.96-1.65-2.59Z"/><path class="f" d="M1299.03,475.65c-2.03-9.36-3.77-19.48-5.02-30.3-3.07-26.49-2.4-50.23-.28-70.07-6.69-.71-29.03-3.94-47.73-22.72-6.93-6.96-20.38-19.92-21.35-40.17-.13-2.81-1.08-32.51,21.98-44.3,19.26-9.85,39.29,.95,41.18,2.02-2.65-7.02-9.02-26.71-1.98-49.49,1.29-4.19,13.26-40.88,46.07-47.36,26.39-5.22,55.96,11.15,69.42,40.92,15.09-32.68,47.25-53.75,81.89-53.67,39.84,.09,75.93,28.15,86.85,68.67,43.77-24.72,92.79-19.28,118.01,8.71,1.23,1.37,23.6,27.01,16.93,59.34-7.2,34.91-45.19,62.79-93,61.74-2.52,44.38-5.05,88.76-7.57,133.14-50.82,1.47-105.96,.97-164.81-2.57-49.95-3.01-96.92-7.87-140.59-13.87Z"/><path class="d" d="M1222.68,614.58c.03-14.82,2.09-44.51,19.05-76.63,18.25-34.55,44.05-53.55,56.6-61.62,102.03,5.25,204.07,10.51,306.1,15.76,7.95,6.85,19.1,18.15,28.31,34.79,12.08,21.84,14.92,42.24,15.65,53.82-4.78-11.96-14.15-30.84-32.21-48.58-11.65-11.45-23.41-18.98-32.6-23.86,.09,4.07-.25,13.39-5.86,23.26-5.99,10.54-14.55,15.68-18.13,17.58-2.4-7.16-6.21-16.45-11.98-24.91-1.7-2.49-3.39-4.66-3.63-4.97-4.62-5.89-9.16-10.22-12.57-13.14-4.21,2.71-9.88,7.02-15.32,13.5-5.99,7.14-9.38,14.16-11.29,19.06-4.02-2.49-11.8-8.05-17.58-18.13-4.79-8.36-6.12-16.18-6.55-20.71-6.16,2.69-14.05,6.88-22.19,13.39-10.11,8.08-16.79,16.68-20.97,23.03-3.17-1.04-13.28-4.8-20.37-15.43-6.19-9.29-6.56-18.56-6.52-22.08-4,3.42-8.26,7.45-12.55,12.17-6.52,7.15-11.56,14.17-15.43,20.37-2.02-1.36-7.89-5.69-10.77-13.91-3.23-9.22-.51-17.11,.3-19.23-4.96,2.5-12.41,7.03-19.46,14.81-8.42,9.3-12.31,18.87-14.12,24.51-2.21-1.43-10.37-7.08-13.46-18.07-2.29-8.14-.6-14.99,.28-17.85-14.08,7.55-31.35,18.69-48.63,34.96-29.87,28.14-45.8,58.5-54.11,78.15Z"/></g><g><path class="i" d="M219.56,292.93c-.19,.16-.39,.26-.6,.31s-.64,.16-1.28,.32c-1.49,.37-3.27,.56-5.35,.59-2.08,.02-4.14-.07-6.16-.28-2.03-.21-3.81-.57-5.34-1.06-1.54-.5-2.54-1.02-3.01-1.56-.47-1.43-.89-2.91-1.28-4.46-.38-1.55-.76-3.05-1.12-4.5-2.87-11.59-5-23.91-6.38-36.97-1.38-13.06-1.87-27.43-1.48-43.13,.07-1.55,.06-3.5-.01-5.85-.07-2.34-.17-4.87-.28-7.59-2.06,2.6-4.32,6.48-6.76,11.64-2.44,5.16-4.88,11.15-7.31,17.96-2.43,6.81-4.72,14.19-6.86,22.13-2.15,7.95-3.92,15.91-5.33,23.9s-2.38,15.77-2.92,23.38c-.54,7.6-.33,14.47,.63,20.6-5.46-.18-9.36-.76-11.68-1.71-2.33-.96-3.75-2.48-4.26-4.55-.46-1.86-.53-4.65-.21-8.35,.32-3.71,.97-8.15,1.94-13.33,.97-5.18,2.28-11.03,3.94-17.54,1.66-6.51,3.52-13.53,5.6-21.08,2.38-8.61,4.79-16.73,7.24-24.37,2.45-7.63,4.97-14.63,7.57-20.99,2.59-6.35,5.29-11.97,8.09-16.84,2.8-4.87,5.8-8.8,9.01-11.79,1.49-.37,3.57-.5,6.25-.4,2.68,.11,5.34,.38,7.99,.82,2.65,.44,5.04,.97,7.17,1.6,2.13,.63,3.39,1.28,3.78,1.94-.77,3.27-1.45,8.05-2.03,14.34-.58,6.3-1,13.37-1.25,21.23-.25,7.86-.28,16.13-.1,24.82,.18,8.69,.68,16.94,1.49,24.76,1.03-6.3,2.4-12.93,4.12-19.89,1.71-6.96,3.62-13.92,5.74-20.87,2.11-6.95,4.35-13.74,6.71-20.37,2.36-6.63,4.77-12.74,7.21-18.35,2.45-5.6,4.8-10.55,7.06-14.85,2.26-4.29,4.41-7.57,6.44-9.84,1.49-.37,3.57-.5,6.25-.4,2.68,.11,5.34,.38,7.99,.82,2.65,.44,5.04,.97,7.17,1.6,2.13,.62,3.39,1.27,3.78,1.94-1.94,6.74-3.13,14.67-3.58,23.79-.44,9.12-.39,18.55,.17,28.3,.56,9.75,1.52,19.31,2.89,28.69,1.37,9.38,2.95,17.69,4.75,24.94,.59,2.38,1.21,4.86,1.85,7.45,.64,2.58,1.41,5.25,2.32,7.99-1.49,.37-3.31,.63-5.48,.78-2.16,.15-4.3,.16-6.42,.03-2.12-.13-4.07-.39-5.86-.77-1.79-.38-3.12-.96-3.98-1.73-.47-1.42-.89-2.91-1.28-4.46-.38-1.55-.76-3.05-1.11-4.5-2.88-11.59-5-23.91-6.38-36.97-1.38-13.06-1.87-27.43-1.48-43.13,.06-1.55,.05-3.64-.03-6.25-.09-2.61-.2-5.33-.33-8.16-2.62,2.19-5.31,5.79-8.06,10.82-2.76,5.03-5.35,10.94-7.78,17.75-2.43,6.81-4.64,14.25-6.65,22.33-2,8.08-3.6,16.19-4.79,24.34-1.19,8.15-1.92,16.13-2.18,23.94-.26,7.81,.15,14.82,1.24,21.03Z"/><path class="i" d="M338.77,190.57c1.08-.19,2.38-.24,3.9-.14,1.52,.1,2.92,.34,4.22,.7,1.29,.36,2.4,.79,3.32,1.27,.92,.48,1.43,.99,1.53,1.51-1.36,4.8-2.55,9.59-3.57,14.38-1.02,4.79-1.81,9.35-2.36,13.67-.55,4.32-.86,8.34-.91,12.03-.06,3.7,.16,6.85,.63,9.47,.53,2.94,1.3,5.32,2.3,7.14,1,1.83,2.33,3.02,3.99,3.58-1.14,1.07-2.69,2.06-4.64,2.95-1.95,.9-3.74,1.49-5.35,1.78-5.82,1.05-9.43-2.3-10.84-10.06-1.08-5.98-.52-14.53,1.7-25.66-1.29,5.2-2.95,10.16-4.98,14.9-2.04,4.74-4.21,8.99-6.54,12.76-2.32,3.77-4.78,6.93-7.38,9.51-2.6,2.57-5.09,4.29-7.5,5.16-3.99,.72-7.54-.46-10.66-3.53-3.12-3.08-5.17-7.36-6.17-12.84-1.07-5.9-.9-12.35,.5-19.35,1.4-7,3.62-13.66,6.65-19.97,3.03-6.32,6.58-11.77,10.64-16.37,4.06-4.6,8.3-7.3,12.72-8.1,1.13,.12,2.46,.53,3.98,1.23,1.52,.7,3.01,1.56,4.48,2.59,1.47,1.03,2.75,2.12,3.85,3.28,1.1,1.15,1.79,2.19,2.07,3.11-4.2,1.41-8.27,4.26-12.23,8.54-3.96,4.28-7.35,9.2-10.19,14.73-2.84,5.54-4.94,11.3-6.3,17.27-1.37,5.98-1.61,11.37-.74,16.19,.36,1.99,1.34,3.11,2.94,3.36,3.01-1.2,6.15-4.45,9.42-9.75,3.27-5.31,6.95-13.26,11.04-23.86,.73-2.08,1.57-4.4,2.5-6.95,.93-2.55,1.86-5.21,2.81-7.98,.95-2.77,1.86-5.56,2.74-8.38,.88-2.81,1.69-5.53,2.44-8.16Z"/><path class="i" d="M367.12,236.22c-.51-3.8-.21-9.22,.9-16.25,1.11-7.03,2.75-14.78,4.94-23.24,2.19-8.46,4.77-17.25,7.75-26.36,2.99-9.11,6.07-17.64,9.27-25.6,3.19-7.95,6.36-14.88,9.49-20.79,3.13-5.9,5.93-9.98,8.39-12.25,1.53-.09,3.27,.32,5.22,1.24,1.95,.93,3.79,2.1,5.53,3.54,1.74,1.44,3.24,2.98,4.51,4.64,1.27,1.66,2.01,3.23,2.2,4.71-4.38,4.46-8.69,10.01-12.94,16.65-4.25,6.64-8.18,13.83-11.79,21.58-3.61,7.74-6.81,15.86-9.6,24.35-2.79,8.49-4.97,16.77-6.55,24.83,2.7-6.28,5.63-12.07,8.79-17.34,3.16-5.27,6.42-9.86,9.77-13.75,3.35-3.9,6.72-7.01,10.11-9.35,3.39-2.34,6.71-3.73,9.97-4.16,5.23,2.74,8.21,6.9,8.96,12.49,.45,3.38,.2,6.87-.76,10.49-.95,3.62-2.41,7.03-4.35,10.24-1.95,3.21-4.28,6.05-6.99,8.5-2.71,2.46-5.65,4.22-8.82,5.28,1.58,3.56,3.46,7.12,5.65,10.7,2.19,3.58,4.69,7.01,7.51,10.29,2.81,3.28,5.92,6.26,9.31,8.92,3.39,2.66,7.13,4.8,11.21,6.41-.4,1.13-1.08,2.29-2.02,3.5-.95,1.2-2.13,2.3-3.54,3.3-1.41,.99-2.99,1.85-4.71,2.56-1.73,.71-3.46,1.19-5.2,1.42-2.93,.39-5.86-.67-8.79-3.18-2.93-2.51-5.79-6.33-8.57-11.44-2.21-4.11-4.47-9.08-6.79-14.9-2.33-5.82-4.52-11.92-6.59-18.32,1.39-1.15,3.11-2.8,5.14-4.95,2.03-2.15,4.14-4.6,6.31-7.36,8.36-10.23,12.1-18.62,11.23-25.16-.11-.84-.77-1.19-1.96-1.03-2.17,.29-4.6,1.58-7.27,3.87-2.68,2.3-5.45,5.36-8.31,9.18-2.86,3.83-5.69,8.24-8.51,13.25-2.81,5.01-5.44,10.36-7.88,16.07-1.02,2.29-1.89,4.89-2.61,7.78-.72,2.89-1.29,5.85-1.72,8.87-.43,3.02-.67,5.99-.72,8.9-.05,2.92,.08,5.59,.41,8.02,.2,1.48,.52,2.68,.98,3.59-3.41,.13-5.58-.44-6.53-1.71-1.04-1.15-1.91-2.08-2.61-2.8-.7-.71-1.41-1.29-2.14-1.73-1.08-.61-2.1-2.08-3.08-4.43-.98-2.34-1.71-5.36-2.2-9.06Z"/><path class="i" d="M500.03,170.37c.17,6.62-.52,12.39-2.05,17.29-1.53,4.91-3.96,9.3-7.29,13.19-3.33,3.89-7.48,7.51-12.45,10.85-4.97,3.35-10.83,6.67-17.57,9.96,.06,.64,.09,1.3,.1,2,0,.7,.05,1.42,.12,2.16,.13,1.38,.37,2.8,.72,4.27,.35,1.47,.86,2.81,1.52,4.04,.66,1.22,1.52,2.19,2.57,2.9s2.34,.99,3.87,.85c2.95-.27,5.78-1.17,8.5-2.7,2.72-1.53,5.27-3.34,7.67-5.44,2.39-2.09,4.61-4.33,6.64-6.71,2.03-2.38,3.85-4.55,5.42-6.52,1.18,.86,2.19,1.67,3.03,2.45-4.32,6.82-9.21,12.59-14.67,17.32-5.45,4.73-10.74,7.91-15.87,9.56-7.6-.16-13.71-2.31-18.32-6.43-4.61-4.13-7.21-9.38-7.79-15.75-.4-4.35-.18-8.84,.66-13.47,.84-4.63,2.19-9.14,4.04-13.54,1.85-4.4,4.11-8.59,6.77-12.58,2.66-3.99,5.58-7.52,8.77-10.59,3.18-3.07,6.53-5.58,10.04-7.5,3.51-1.93,7.06-3.05,10.66-3.38,5.07,.18,10.04,2.78,14.9,7.79Zm-10.81,6.29c-2.91,.69-5.86,2.14-8.84,4.34-2.99,2.2-5.73,5.02-8.22,8.46-2.49,3.44-4.69,7.39-6.59,11.84-1.9,4.46-3.28,9.19-4.15,14.19,8.34-5.04,15.11-10.94,20.32-17.68,5.21-6.74,7.7-13.79,7.47-21.15Z"/><path class="i" d="M558.1,172.86c-.57-.62-1.11-1.96-1.61-4.03-.51-2.06-.78-3.84-.83-5.33,2.86,.33,5.6,.46,8.23,.37,2.63-.09,5.04-.16,7.23-.24,1.54-3.21,3.21-6.4,5.03-9.57,1.81-3.17,3.58-6.07,5.31-8.71,1.72-2.64,3.35-4.88,4.88-6.72,1.53-1.84,2.72-3.04,3.58-3.6,1.09-.03,2.5,.11,4.21,.42,1.71,.32,3.45,.74,5.22,1.27,1.77,.53,3.37,1.09,4.82,1.68,1.44,.59,2.45,1.2,3.02,1.82-3.15,4.13-5.85,7.95-8.09,11.47-2.24,3.52-4.66,7.54-7.25,12.07,2.19-.07,4.4-.14,6.65-.22,2.24-.07,4.51-.31,6.8-.7,.56,.52,1.03,1.17,1.38,1.95,.35,.79,.55,1.61,.57,2.46-5.3,2.2-11.78,3.42-19.44,3.67-2.57,5.22-4.84,10.4-6.81,15.54-1.97,5.14-3.62,10.09-4.94,14.84-1.32,4.75-2.33,9.22-3.01,13.41s-.97,7.94-.86,11.25c.15,4.7,2.04,7.26,5.67,7.68,3.27-.53,6.36-1.43,9.28-2.7s5.5-2.85,7.73-4.73c.69,.94,1.1,1.72,1.23,2.36-.62,.98-1.71,2.12-3.26,3.44-1.55,1.32-3.23,2.62-5.05,3.9-1.82,1.28-3.6,2.36-5.32,3.27-1.73,.9-3.02,1.42-3.89,1.56-2.74,.09-5.49-.35-8.26-1.33-2.77-.98-5.31-2.23-7.6-3.76-2.3-1.53-4.19-3.25-5.67-5.18-1.49-1.93-2.26-3.85-2.33-5.77-.08-2.56,.17-5.8,.75-9.71,.58-3.92,1.46-8.19,2.62-12.82,1.17-4.63,2.54-9.48,4.13-14.55,1.59-5.07,3.34-10.09,5.26-15.07l-9.36,.3Z"/><path class="i" d="M606.5,230.18c.03-3.73,.45-8.12,1.27-13.18,.81-5.05,1.98-10.46,3.51-16.2,1.53-5.74,3.33-11.75,5.42-18.02,2.08-6.27,4.41-12.54,6.98-18.81,2.24-5.63,4.83-11.31,7.79-17.04,2.95-5.73,6.15-11.35,9.6-16.87,3.44-5.51,7.02-10.76,10.73-15.74,3.71-4.98,7.45-9.53,11.21-13.65,1.75,.01,3.64,.25,5.66,.69,2.02,.44,3.99,1.02,5.9,1.73,1.91,.71,3.66,1.55,5.23,2.53,1.58,.97,2.86,1.94,3.83,2.91-8.29,8.14-15.75,16.36-22.39,24.67-6.64,8.31-11.92,16.13-15.81,23.45-2.12,4.03-4.04,7.8-5.77,11.3-1.73,3.5-3.32,6.98-4.77,10.43-1.45,3.45-2.77,6.91-3.95,10.36-1.18,3.46-2.28,7.1-3.3,10.93,21.26-25.93,36.98-38.85,47.16-38.76,2.85,.02,5.9,.96,9.17,2.8,3.27,1.84,6.15,4.32,8.64,7.43-3.43,3.6-6.97,7.93-10.63,13.02-3.66,5.09-7.02,10.2-10.07,15.34-3.06,5.14-5.57,9.92-7.52,14.32-1.96,4.41-2.94,7.68-2.96,9.81-.01,1.07,.15,1.79,.47,2.16,.32,.38,1.03,.57,2.13,.58,1.64,.01,2.96-.19,3.95-.61,.99-.42,1.59-.63,1.81-.62,.54,.86,.86,1.45,.97,1.77,.11,.32,.16,.59,.16,.8,0,.43-.67,1.03-1.99,1.82s-2.89,1.57-4.7,2.36c-1.82,.79-3.6,1.49-5.36,2.11-1.76,.62-3.08,.93-3.95,.92-1.09-.01-2.19-.31-3.28-.91-1.09-.6-2.04-1.38-2.86-2.34-.81-.96-1.46-2.04-1.94-3.21s-.72-2.41-.71-3.69c.01-1.6,.5-3.97,1.46-7.1,.96-3.14,2.28-6.8,3.96-11,1.68-4.19,3.69-8.79,6.04-13.78,2.34-4.99,4.85-10.09,7.53-15.29,0-.42-.22-.64-.65-.65-.33,0-1.18,.42-2.56,1.26-1.38,.84-2.67,1.68-3.88,2.52-3.97,2.84-7.97,6.35-12,10.53-4.04,4.18-7.96,8.75-11.78,13.73-3.82,4.98-7.43,10.25-10.82,15.82-3.39,5.57-6.31,11.17-8.77,16.79-.34,.74-.84,1.43-1.5,2.07-.66,.63-1.21,.95-1.65,.94-.33,0-.79-.38-1.38-1.13-.6-.75-1.14-1.69-1.62-2.81-.48-1.12-.94-2.27-1.37-3.45-.43-1.18-.64-2.19-.63-3.04Z"/><path class="i" d="M752.07,171.49c-.79,6.58-2.29,12.18-4.51,16.82-2.22,4.63-5.25,8.64-9.1,12.01-3.85,3.37-8.48,6.36-13.88,8.96-5.4,2.6-11.67,5.05-18.81,7.34-.04,.64-.1,1.3-.19,1.99-.09,.69-.16,1.41-.2,2.15-.07,1.38-.04,2.83,.1,4.33,.14,1.5,.45,2.91,.93,4.21,.48,1.31,1.19,2.38,2.13,3.23,.94,.85,2.18,1.32,3.71,1.4,2.95,.16,5.88-.33,8.8-1.46,2.91-1.13,5.7-2.55,8.37-4.28,2.66-1.73,5.18-3.62,7.54-5.69,2.36-2.06,4.46-3.95,6.3-5.67,1.04,1.02,1.92,1.97,2.65,2.86-5.26,6.13-10.93,11.14-17,15.04s-11.76,6.29-17.08,7.19c-7.5-1.25-13.24-4.25-17.21-8.99-3.97-4.74-5.79-10.31-5.45-16.7,.23-4.36,1.09-8.77,2.59-13.23,1.49-4.46,3.47-8.73,5.94-12.82,2.46-4.08,5.3-7.91,8.5-11.48,3.2-3.57,6.6-6.64,10.19-9.23,3.59-2.59,7.26-4.58,11.01-5.99,3.75-1.4,7.43-2.01,11.03-1.82,5,.9,9.54,4.19,13.63,9.85Zm-11.6,4.67c-2.97,.27-6.1,1.28-9.37,3.03-3.27,1.75-6.39,4.15-9.34,7.19-2.96,3.05-5.7,6.64-8.22,10.78-2.52,4.14-4.57,8.62-6.14,13.45,8.97-3.8,16.52-8.66,22.65-14.58,6.12-5.92,9.6-12.54,10.42-19.87Z"/><path class="i" d="M914.68,170.15c-.73,5.82-2.92,11.18-6.57,16.1-3.65,4.92-8.25,9.04-13.8,12.37-5.55,3.33-11.87,5.74-18.95,7.21-7.08,1.48-14.43,1.74-22.04,.78-2.72-.34-4.82-.95-6.31-1.84-1.49-.88-3.09-2.46-4.79-4.71-6.88,10.85-12.64,20.9-17.27,30.15-4.64,9.25-8.5,18.3-11.6,27.15-4.01-1.47-7.17-3.56-9.48-6.27s-4.33-6-6.05-9.86c1.34-1.87,2.97-4.35,4.91-7.44,1.93-3.09,4.29-6.9,7.07-11.44,2.78-4.54,6.02-9.99,9.75-16.34,3.72-6.36,8.1-13.78,13.14-22.28,2.25-3.91,4.23-7.31,5.92-10.22,1.69-2.9,3.19-5.64,4.51-8.22,1.32-2.57,2.55-5.13,3.69-7.68,1.15-2.54,2.35-5.35,3.62-8.41-5.31,.94-10.24,2.21-14.8,3.78s-8.4,3.35-11.51,5.32c-.9-.76-1.79-1.84-2.66-3.23-.88-1.4-1.65-2.92-2.33-4.56s-1.24-3.3-1.69-4.97c-.45-1.67-.66-3.14-.6-4.43,3.42-1.72,7.58-3.19,12.47-4.4,4.9-1.21,10.09-2.14,15.58-2.8,5.49-.65,11.14-.99,16.93-1.02,5.8-.02,11.31,.29,16.52,.94,6.2,.78,11.69,2.25,16.5,4.41,4.8,2.16,8.77,4.83,11.91,8.02,3.13,3.19,5.38,6.8,6.75,10.84,1.37,4.04,1.76,8.39,1.18,13.04Zm-26.63-22.68c-4.13-.52-8.41-.73-12.83-.64l1.6,3.1c-1.26,1.24-2.87,3.13-4.85,5.67-1.98,2.55-4.18,5.63-6.62,9.24-2.44,3.62-5.13,7.66-8.06,12.12-2.94,4.47-6.04,9.18-9.31,14.14,8.47,1.06,16.29,1.27,23.43,.6,7.14-.66,13.36-2.03,18.65-4.11,5.28-2.08,9.53-4.74,12.76-7.99,3.22-3.25,5.09-6.94,5.61-11.06,.69-5.5-.66-10.15-4.04-13.96-3.39-3.81-8.83-6.18-16.33-7.13Z"/><path class="i" d="M895.48,245.09c.16-.95,.44-2.11,.84-3.51,.4-1.39,1.01-3.24,1.84-5.53,.83-2.29,1.87-5.06,3.14-8.31s2.83-7.15,4.7-11.7c.39-1.01,1.16-2.62,2.3-4.8,1.14-2.19,2.55-4.46,4.22-6.83,1.67-2.37,3.6-4.61,5.79-6.73,2.18-2.12,4.62-3.55,7.3-4.29,1.77,.73,4.02,2.21,6.75,4.45,2.73,2.24,4.93,5.07,6.58,8.47-2.94,2.32-5.48,4.71-7.61,7.16-2.13,2.46-4.12,5.04-5.96,7.76-1.84,2.72-3.59,5.56-5.25,8.53-1.66,2.96-3.48,6.06-5.46,9.3-1.68,2.75-3.26,5.59-4.75,8.53-1.49,2.94-2.48,5.56-2.98,7.85-.32,1.89-.57,3.23-.75,4.01-.19,.78-.55,1.13-1.09,1.04-.43-.07-1.25-.48-2.46-1.22-1.21-.74-2.39-1.78-3.56-3.11-1.17-1.33-2.15-2.92-2.95-4.79-.8-1.86-1.01-3.95-.62-6.26Zm42.37-63.29c.11-.63,.43-1.55,.96-2.76-.45-.61-.78-1.48-.98-2.59-.2-1.11-.23-2.09-.09-2.93,.16-.95,.51-2.21,1.05-3.8,.54-1.58,1.19-3.29,1.93-5.11,.75-1.82,1.62-3.7,2.61-5.64,.99-1.94,1.95-3.7,2.88-5.27,1.3,.22,2.83,.82,4.61,1.82,1.77,1,3.54,2.21,5.3,3.64,1.76,1.43,3.34,2.93,4.74,4.52,1.4,1.59,2.43,3.03,3.11,4.33-1.38,.96-3.22,2.3-5.5,4.03-2.29,1.73-4.54,3.57-6.75,5.52-2.22,1.95-4.24,3.81-6.09,5.55-1.85,1.75-3.06,3-3.63,3.77-1.26-.42-2.3-1.17-3.13-2.22-.82-1.05-1.16-2-1.03-2.85Z"/><path class="i" d="M925.15,258.62c.34-1.67,2.38-4.06,6.13-7.17,3.75-3.1,8.6-6.53,14.56-10.28,5.95-3.75,12.7-7.61,20.26-11.58,7.56-3.97,15.32-7.71,23.29-11.21-4.32-1.85-7.75-3.25-10.3-4.19-2.55-.95-4.62-1.58-6.24-1.91-3.12-.63-5.99-.77-8.63-.43-2.64,.34-5.33,1.21-8.07,2.62-4.1-5.17-5.6-10.48-4.51-15.91,.34-1.67,.59-2.66,.76-2.95,2.18-1.41,4.63-2.33,7.34-2.76,2.71-.43,5.46-.37,8.26,.2,3,.6,5.97,1.69,8.89,3.26,2.92,1.57,5.78,3.2,8.57,4.9,2.78,1.7,5.4,3.29,7.84,4.76,2.44,1.47,4.68,2.41,6.72,2.82,1.18,.24,2.53,.35,4.04,.32s2.81-.2,3.88-.52c.82,.93,1.41,2.57,1.77,4.92,.36,2.36,.34,4.58-.08,6.67-3.58,.58-8.02,1.97-13.32,4.17-5.3,2.2-10.78,4.84-16.43,7.95-5.65,3.1-11.22,6.5-16.71,10.17-5.49,3.68-10.15,7.25-13.97,10.73,2.07,1.4,5.03,2.48,8.9,3.26,2.47,.49,5.03,.79,7.7,.9s5.27,.03,7.84-.22c2.56-.24,4.96-.66,7.2-1.24,2.24-.58,4.17-1.31,5.8-2.18,4.41,4.15,6.01,9.26,4.79,15.32-.17,.84-.33,1.51-.49,2.02-.16,.52-.37,1.12-.62,1.83-5.55,2.04-11.22,2.47-17.02,1.3-2.9-.58-5.74-1.46-8.52-2.61-2.78-1.16-5.48-2.33-8.09-3.5-2.61-1.18-5.07-2.3-7.37-3.36-2.3-1.06-4.47-1.8-6.51-2.21-5.15-1.04-9.81,.47-13.98,4.52-1.29-.8-2.26-1.98-2.89-3.52-.64-1.54-.9-3.17-.78-4.89Z"/><path class="i" d="M999.54,274.02c.41-1.65,2.56-3.95,6.45-6.89,3.88-2.93,8.89-6.14,14.99-9.63,6.11-3.48,13.03-7.04,20.76-10.67,7.73-3.63,15.65-7.02,23.76-10.17-4.23-2.04-7.6-3.59-10.1-4.65-2.5-1.06-4.55-1.79-6.14-2.18-3.08-.76-5.95-1.03-8.6-.81-2.65,.22-5.38,.97-8.18,2.26-3.86-5.35-5.13-10.72-3.79-16.1,.41-1.65,.71-2.63,.89-2.91,2.24-1.31,4.73-2.12,7.46-2.43,2.73-.31,5.47-.12,8.24,.56,2.97,.74,5.89,1.95,8.74,3.65,2.85,1.7,5.63,3.45,8.34,5.28,2.71,1.82,5.25,3.52,7.62,5.1,2.37,1.58,4.57,2.62,6.59,3.12,1.17,.29,2.51,.46,4.02,.5,1.51,.04,2.81-.07,3.9-.35,.78,.96,1.3,2.63,1.55,5,.26,2.37,.13,4.59-.38,6.66-3.6,.42-8.1,1.62-13.5,3.58-5.39,1.96-10.98,4.36-16.77,7.21-5.79,2.85-11.5,5.99-17.15,9.42-5.65,3.43-10.46,6.8-14.43,10.1,2,1.48,4.91,2.7,8.74,3.65,2.44,.61,4.99,1.02,7.65,1.24,2.65,.22,5.27,.26,7.84,.13,2.57-.13,4.99-.44,7.25-.92,2.26-.48,4.23-1.12,5.89-1.92,4.23,4.34,5.6,9.52,4.11,15.52-.21,.83-.4,1.49-.58,2-.18,.5-.42,1.11-.7,1.8-5.63,1.79-11.32,1.97-17.06,.55-2.87-.71-5.67-1.71-8.4-2.99-2.73-1.28-5.37-2.57-7.93-3.86-2.55-1.29-4.96-2.52-7.21-3.68-2.25-1.16-4.39-1.99-6.4-2.49-5.1-1.26-9.82,.03-14.17,3.9-1.25-.86-2.17-2.08-2.73-3.64-.57-1.57-.76-3.21-.56-4.91Z"/><path class="i" d="M1150.02,250.34c1.05,.31,2.23,.85,3.55,1.63,1.31,.78,2.46,1.62,3.45,2.52,.99,.9,1.79,1.78,2.39,2.62,.61,.85,.84,1.53,.68,2.04-3.37,3.68-6.58,7.42-9.65,11.24-3.07,3.82-5.82,7.54-8.25,11.15s-4.51,7.06-6.22,10.34c-1.71,3.28-2.94,6.19-3.69,8.75-.84,2.86-1.23,5.33-1.16,7.41,.07,2.08,.72,3.74,1.95,4.99-1.5,.45-3.33,.63-5.47,.55s-4.01-.35-5.58-.81c-5.67-1.67-7.4-6.29-5.16-13.86,1.72-5.83,6.06-13.22,13.04-22.16-3.48,4.06-7.2,7.76-11.14,11.08-3.95,3.32-7.8,6.14-11.57,8.46s-7.39,4.05-10.86,5.18c-3.47,1.13-6.48,1.55-9.02,1.24-3.89-1.15-6.53-3.79-7.93-7.94-1.4-4.15-1.32-8.9,.26-14.24,1.69-5.75,4.74-11.44,9.14-17.06,4.4-5.62,9.37-10.58,14.91-14.86,5.54-4.28,11.16-7.56,16.86-9.85,5.7-2.28,10.7-2.79,15.01-1.52,.96,.62,1.96,1.58,3,2.88,1.04,1.3,1.99,2.75,2.84,4.33,.84,1.58,1.5,3.13,1.97,4.65,.46,1.52,.61,2.76,.45,3.71-4.38-.63-9.3,.09-14.76,2.14-5.46,2.05-10.7,4.92-15.72,8.59-5.02,3.68-9.49,7.88-13.39,12.6-3.91,4.73-6.55,9.44-7.93,14.13-.57,1.94-.2,3.38,1.12,4.32,3.22,.28,7.49-1.21,12.8-4.48,5.3-3.27,12.16-8.72,20.57-16.36,1.59-1.53,3.38-3.23,5.35-5.09,1.97-1.86,4.01-3.82,6.1-5.87,2.09-2.05,4.16-4.13,6.21-6.26,2.05-2.12,4-4.18,5.85-6.2Z"/></g></g></g></svg>