<?xml version="1.0" encoding="UTF-8"?><svg xmlns="http://www.w3.org/2000/svg" width="137.56" height="137.56" viewBox="0 0 137.56 137.56"><defs><style>.d{fill:#693213;}.e{fill:#fff;}.f{fill:#81503b;}</style></defs><g id="a"/><g id="b"><g id="c"><g><g><circle class="d" cx="68.78" cy="68.78" r="68.78"/><circle class="f" cx="63.02" cy="68.6" r="62.61"/></g><g><circle class="e" cx="67.96" cy="36.15" r="14.43"/><path class="e" d="M55.14,58.23c6.81-.75,13.63-1.5,20.44-2.24,.69-.08,1.25,.52,1.05,1.12-2.44,7.13-4.09,13.31-5.2,18.1-3.31,14.2-2.86,19.89-.77,24.95,1.07,2.58,2.98,6.59,7.33,8.16,2.91,1.05,6.34,.78,9.72-.59,.98-.4,1.86,.77,1.06,1.41-6.66,5.42-14.6,7.81-21.62,6.21-6.58-1.5-10.5-6.04-12.23-8.18-9.23-11.43-6.28-26.47-4.63-34.94,1.13-5.8,2.83-10.43,4.1-13.47,.12-.29,.41-.49,.76-.53Z"/></g></g></g></g></svg>