<?xml version="1.0" encoding="UTF-8"?><svg xmlns="http://www.w3.org/2000/svg" width="200" height="400" xmlns:xlink="http://www.w3.org/1999/xlink" viewBox="0 0 200 400"><defs><style>.e{fill:#fff03b;}.f{fill:#fff8d0;}.g{fill:#fff7c7;}.h{fill:#fefbf7;}.i{fill:#649858;}.j{fill:#466c31;}.k{fill:#4d7534;}.l{clip-path:url(#d);}</style><clipPath id="d"><path class="e" d="M88.32,103.41c13.08,3.53,59.87,15.34,88.79,62.41,30.72,50,30.4,117.4-.2,173.64,1.26,6.25,2.6,16.11,1.34,28.02-1.19,11.27-2.91,27.62-12.19,31.64-7.9,3.42-17.4-3.77-24.59-9.2-12.06-9.12-18.56-20.57-21.82-27.58-7.52-1.08-71.18-11.42-103.97-73.51C-10.78,238.72-2.37,174.44,30.57,125.46c-2.24-17.13-.29-28.19,.57-33.86,1.34-8.85,5.2-19.39,12.98-22.17,8.57-3.07,18.35,2.36,25.5,9.36,8.47,8.29,15.1,18.46,18.71,24.61Z"/></clipPath></defs><g id="a"/><g id="b"><g id="c"><g><g><path class="e" d="M88.32,103.41c13.08,3.53,59.87,15.34,88.79,62.41,30.72,50,30.4,117.4-.2,173.64,1.26,6.25,2.6,16.11,1.34,28.02-1.19,11.27-2.91,27.62-12.19,31.64-7.9,3.42-17.4-3.77-24.59-9.2-12.06-9.12-18.56-20.57-21.82-27.58-7.52-1.08-71.18-11.42-103.97-73.51C-10.78,238.72-2.37,174.44,30.57,125.46c-2.24-17.13-.29-28.19,.57-33.86,1.34-8.85,5.2-19.39,12.98-22.17,8.57-3.07,18.35,2.36,25.5,9.36,8.47,8.29,15.1,18.46,18.71,24.61Z"/><g class="l"><polygon class="k" points="167.75 387.39 163.3 387.24 159.63 389.61 158.13 393.61 159.38 397.71 162.91 400.33 167.36 400.48 171.04 398.1 172.53 394.1 171.28 390.01 167.75 387.39"/></g></g><g><path class="i" d="M92.45,106.06c1.13-12.27,9.1-33.34,22.1-56.34C130.96,20.7,153.27,5.99,163.78,0c-7.39,15.97-14.22,35.67-20.62,58.54-6.57,23.48-11.09,44.71-13.09,62.75-5.3-3.04-11.51-6.18-18.59-9.03-6.88-2.77-13.3-4.75-19.02-6.19Z"/><path class="j" d="M163.78,0c6.7,14.51,15.41,37.94,17.85,68.09,3.25,40.04-6.19,71.63-12.38,88.1-4.77-6.28-11.18-13.62-19.54-20.83-7.02-6.06-13.78-10.63-19.65-14.06,2.15-17.58,5.74-37.91,11.78-60.06,6.5-23.84,14.34-44.34,21.93-61.22Z"/><path class="f" d="M78.88,127.34c8.88-.12,45.76,.65,73.18,35.83,19.08,24.49,23.91,53.23,25.38,65.97-4.08-14.62-19.59-41.39-42-65.21-23.87-25.36-43.9-34-56.55-36.59Z"/><ellipse class="g" cx="90.58" cy="310.94" rx="33.92" ry="38.61" transform="translate(-233.02 324.12) rotate(-76.09)"/><ellipse class="h" cx="86.9" cy="326.32" rx="18.16" ry="21.99" transform="translate(-250.46 341.16) rotate(-77.61)"/></g></g></g></g></svg>