<?xml version="1.0" encoding="UTF-8"?><svg xmlns="http://www.w3.org/2000/svg" width="180" height="180" viewBox="0 0 180 180"><defs><style>.e{fill:#fff;}.f{fill:#81503b;}</style></defs><g id="a"/><g id="b"><g id="c"><g id="d"><path class="f" d="M157.03,180H22.97c-11.27,0-20.49-9.48-20.49-21.07V21.07C2.48,9.48,11.7,0,22.97,0H157.03c11.27,0,20.49,9.48,20.49,21.07V158.93c0,11.59-9.22,21.07-20.49,21.07Z"/><path class="e" d="M27.81,147.25c-.76-3.6-1.41-7.49-1.88-11.64-1.15-10.18-.9-19.3-.11-26.93-2.5-.27-10.85-1.52-17.84-8.73C5.41,97.27,.38,92.29,.02,84.51c-.05-1.08-.4-12.49,8.22-17.03,7.2-3.79,14.68,.37,15.39,.77-.99-2.7-3.37-10.26-.74-19.02,.48-1.61,4.96-15.71,17.22-18.2,9.86-2,20.91,4.29,25.95,15.73,5.64-12.56,17.66-20.66,30.6-20.63,14.89,.03,28.38,10.82,32.46,26.39,16.36-9.5,34.68-7.41,44.1,3.35,.46,.53,8.82,10.38,6.33,22.8-2.69,13.42-16.89,24.13-34.76,23.73-.94,17.05-1.89,34.11-2.83,51.16-18.99,.57-39.6,.37-61.59-.99-18.67-1.16-36.22-3.02-52.54-5.33Z"/></g></g></g></svg>