<?xml version="1.0" encoding="UTF-8"?><svg xmlns="http://www.w3.org/2000/svg" width="280" height="280" xmlns:xlink="http://www.w3.org/1999/xlink" viewBox="0 0 280 280"><defs><style>.e{fill:#ffe4b4;}.f{fill:#c59c73;}.g{fill:#c7b299;}.h{clip-path:url(#d);}.i{fill:#e6e6e6;opacity:.27;}.j{fill:#fffde7;opacity:.37;}</style><clipPath id="d"><path class="g" d="M134.76,183.5c-1.95,1.56-2.3,4.13-.8,5.88,10.29,12.01,20.67,24.45,31.1,37.32,14.18,17.51,27.54,34.72,40.13,51.54,1.01,1.35,2.82,2,4.67,1.68,7.52-1.29,17.51-3.9,27.91-9.44,13.01-6.93,30.66-18.43,32.28-25.85,.54-2.49-11.96-11.5-13.42-12.93-12.21-11.96-18.15-14.99-31.44-31.94-13.34-17.02-24-33.2-32.47-47.64-1.2-2.05-4.08-2.74-6.45-1.55-8.86,4.47-18.3,9.76-28.02,16.04-8.73,5.64-16.55,11.35-23.5,16.88Z"/></clipPath></defs><g id="a"/><g id="b"><g id="c"><g><g><path class="g" d="M134.76,183.5c-1.95,1.56-2.3,4.13-.8,5.88,10.29,12.01,20.67,24.45,31.1,37.32,14.18,17.51,27.54,34.72,40.13,51.54,1.01,1.35,2.82,2,4.67,1.68,7.52-1.29,17.51-3.9,27.91-9.44,13.01-6.93,30.66-18.43,32.28-25.85,.54-2.49-11.96-11.5-13.42-12.93-12.21-11.96-18.15-14.99-31.44-31.94-13.34-17.02-24-33.2-32.47-47.64-1.2-2.05-4.08-2.74-6.45-1.55-8.86,4.47-18.3,9.76-28.02,16.04-8.73,5.64-16.55,11.35-23.5,16.88Z"/><g class="h"><path class="e" d="M95.95,207.72c17.33-11.53,34.66-23.06,51.99-34.6,27.03,34.11,54.05,68.21,81.08,102.32-15.94,10.57-31.89,21.15-47.83,31.72-28.41-33.15-56.83-66.29-85.24-99.44Z"/></g></g><path class="f" d="M30.64,217.62c-4.22,.45-8.1-1.14-10.15-4.14-9.59-14.03-24.62-42.16-19.41-79.14C9.23,76.32,64.6,14.86,139.26,2.29c54.71-9.21,108.06,9.82,138.93,48.6,2.26,2.84,2.4,6.73,.43,10.17-13.45,23.48-45.12,70.4-106.63,108.23-57.86,35.59-113.14,45.31-141.36,48.33Z"/><path class="i" d="M46.1,88.59c1.19,.18,1.9,1.15,1.65,2.23-2.16,9.2-5.37,30.06,5.51,51.74,12.43,24.76,35.61,35.38,45.65,39.09,1.42,.52,1.66,2.19,.48,3.27-1.89,1.74-4.11,3.95-6.39,6.62-4.91,5.76-5.46,8.23-7.04,9.22-8.01,5.03-40.39-12.62-57.75-44.25-9.56-17.43-24.36-52.27-7.76-63.87,7.22-5.05,17.31-5.3,25.64-4.06Z"/><path class="j" d="M179.48,27.7c-.06,.78,.58,1.45,1.46,1.53,7.51,.68,24.26,3.28,39.31,14.93,17.19,13.3,21.61,30.23,22.84,37.37,.17,1.01,1.43,1.53,2.47,1.03,1.66-.8,3.75-1.71,6.21-2.55,5.29-1.81,7.3-1.61,8.33-2.38,5.24-3.92-3.13-28.19-24.85-46.12-11.97-9.87-36.61-26.89-48.37-19.03-5.12,3.42-6.98,9.71-7.4,15.22Z"/></g></g></g></svg>