<?xml version="1.0" encoding="UTF-8"?><svg xmlns="http://www.w3.org/2000/svg" width="333.7" height="225.85" xmlns:xlink="http://www.w3.org/1999/xlink" viewBox="0 0 333.7 225.85"><defs><style>.e{fill:#fff;}.f{fill:#fff56b;}.g{fill:#fbb03b;}.h{fill:#febf3a;}.i{clip-path:url(#d);}</style><clipPath id="d"><ellipse class="f" cx="166.85" cy="97.33" rx="166.85" ry="97.33"/></clipPath></defs><g id="a"/><g id="b"><g id="c"><g><path class="g" d="M0,135.15c.11,2.02,.37,4.93,1.11,8.34,11.25,51.92,102.24,83.69,174.64,82.31,49.78-.95,132.64-18.36,153.5-72.3,2.78-7.18,3.93-13.64,4.45-18.35H0Z"/><path class="g" d="M333.7,135.15H0v-33.37H333.7v33.37Z"/><g><ellipse class="f" cx="166.85" cy="97.33" rx="166.85" ry="97.33"/><g class="i"><polygon class="h" points="64.51 -5.01 30.03 9.45 116.24 63.96 64.51 -5.01"/><polygon class="h" points="148.5 0 124.02 .56 156.28 59.51 148.5 0"/><polygon class="h" points="196.33 -12.79 169.63 -3.89 187.43 33.37 196.33 -12.79"/><polygon class="h" points="255.84 -6.67 226.91 -2.78 210.23 56.17 255.84 -6.67"/><polygon class="h" points="312.56 33.93 280.31 10.01 254.72 57.84 312.56 33.93"/><polygon class="h" points="339.26 100.67 337.59 82.31 276.41 86.76 339.26 100.67"/><polygon class="h" points="321.46 159.06 324.24 141.82 229.7 113.46 321.46 159.06"/><polygon class="h" points="93.44 190.76 124.02 196.88 142.38 133.48 93.44 190.76"/><polygon class="h" points="45.61 176.86 67.85 178.53 100.67 140.15 45.61 176.86"/><polygon class="h" points="0 125.69 11.12 137.93 105.67 108.45 0 125.69"/><polygon class="h" points="8.34 62.85 0 75.64 89.54 82.31 8.34 62.85"/><polygon class="h" points="27.81 36.71 11.68 51.17 61.18 61.18 27.81 36.71"/><polygon class="h" points="142.38 198.55 172.41 200.77 166.85 145.71 142.38 198.55"/><polygon class="h" points="199.11 206.34 238.59 196.33 201.89 157.95 199.11 206.34"/></g></g><ellipse class="g" cx="166.85" cy="93.16" rx="42.27" ry="21.97"/><ellipse class="e" cx="166.57" cy="101.22" rx="35.32" ry="13.9"/></g></g></g></svg>