<?xml version="1.0" encoding="UTF-8"?><svg xmlns="http://www.w3.org/2000/svg" width="975.84" height="283.51" viewBox="0 0 975.84 283.51"><defs><style>.d{fill:#f9e0a2;}.e{fill:#faa755;}.f,.g{fill:#00a74a;}.h{fill:#00883f;}.i{fill:#f79425;}.j{fill:#fff793;}.k{fill:#fbb15d;}.l{fill:#ef4425;}.m{fill:#fddbca;}.n{fill:#333;}.o{fill:#bb494b;}.p{fill:#d03528;}.q{fill:#a62731;}.r{fill:#cc2427;}.s{fill:#d37b50;}.t{fill:#e0a375;}.u{fill:#74b775;}.v{fill:#7ab642;}.g{opacity:.68;}.w{opacity:.49;}.w,.x{fill:#fff;}.y{fill:#bcdeae;opacity:.85;}.x{opacity:.29;}</style></defs><g id="a"/><g id="b"><g id="c"><g><g><path class="t" d="M964.97,111.72c62.76,83.31-152.15,170.96-492.12,171.78C139.29,284.31-55.11,200.28,13.83,118.54,67.99,54.33,275.58,9.83,489.51,7.64c216.54-2.21,426.49,39.06,475.46,104.08Z"/><path class="e" d="M958.64,100.43c60.53,79.96-150.2,163.78-482,164.75C150.94,266.15-40.73,185.97,25.24,107.43,77.3,45.45,281.03,2.28,491.69,.09c213.2-2.22,419.48,37.65,466.95,100.34Z"/><path class="i" d="M935.9,100.6c52.98,73.82-148.42,149.86-458.48,150.89C172.7,252.51-11.48,179.85,46.84,107.26,93.61,49.06,288.21,8.03,491.36,5.95c205.5-2.11,402.3,35.79,444.54,94.65Z"/><path class="k" d="M914.12,100.77c45.96,67.59-146.36,136-435.93,137.07C193.29,238.9,16.46,173.64,67.58,107.11,109.26,52.87,295.06,14.15,491.01,12.17c198.14-2,385.83,33.76,423.12,88.59Z"/><path class="s" d="M888.16,100.79c39.8,62.65-140.07,125.17-406.6,126.24-262.58,1.06-429.12-58.57-384.72-120.31C133.51,55.71,307.54,18.96,492.66,17.12c187.08-1.86,362.76,32.14,395.49,83.67Z"/><path class="r" d="M884.92,107.01c-.57,1.96-1.78,5.09-4.64,8.67-4.59,5.73-8.9,7.02-11.4,11.87-2.31,4.49-.1,6.2-.53,11.69-.34,4.4-2.33,10.67-10.24,17.84-.56,1.04-1.66,2.53-3.93,4-1.81,1.17-4.08,2.15-6.76,2.9-15,6.26-29.36,9.56-39.83,11.41-13.31,2.36-21.44,2.59-34.25,6.2-13.11,3.7-19.96,7.8-25.56,10.63-11.33,5.72-30.68,12.9-64.81,17.85-1.46,.41-3.29,.84-5.51,1.18-1.92,.3-3.91,.5-5.95,.6-16.18-.63-37.72-.61-62.05,2.11-24.84,2.78-29.9,5.83-52.08,7.23-26.62,1.68-36.47-1.62-63.93-2.37-17.36-.47-42.8,.05-75.2,5.17-1.57,.08-3.43,.1-5.49,.02-1.81-.08-3.59-.24-5.33-.48-31.85-9.49-58.26-11.6-76.65-11.78-19.21-.19-31.27,1.71-50.8-1.47-17.24-2.81-20.68-6.41-38.95-10.66-10.8-2.51-26.42-5.16-47.97-5.89-1.76-.24-3.94-.65-6.17-1.36-1.87-.59-3.54-1.31-4.97-2.15-4.1-3.32-10.9-8.08-21.39-12.57-17.02-7.28-24.25-5.43-33.79-11.61-9.12-5.91-5.48-9.63-16.73-18.07-4.71-3.53-9.54-6.01-12.82-7.53-1.35-.8-3.5-2.35-4.11-4.81-.45-1.81,.02-3.8,1.44-5.83,2.49-2.65,6.01-6.83,8.21-11.8,3.03-6.84,.14-7.5,3.75-12.43,3.81-5.2,8.5-6.41,14.25-13.07,2.74-3.17,4.13-5.75,4.87-7.38,1.1-1.37,2.87-3.1,5.83-4.95,8.56-5.37,20.74-7.81,24.5-8.5,5.68-1.03,13.97-2.84,22.06-6.02,9.86-3.87,9.64-5.94,18.66-8.93,10.21-3.38,13.23-1.61,25.56-5.26,8.81-2.61,9.64-4.24,20.52-7.56,5.87-1.79,11.08-2.98,14.6-3.71,1.34-.41,3.14-.91,5.35-1.35,1.85-.37,3.76-.67,5.69-.87,11.83-.55,29.49-1.84,50.05-5.23,15.14-2.5,16.59-3.62,29.4-5.36,20.9-2.84,29.32-1.49,53.29-3.25,9.11-.67,22.52-1.94,38.64-4.59,1.09-.12,2.4-.23,3.88-.29,1.3-.06,2.6-.07,3.9-.04,24.07,2.45,43.33,2.29,56.56,1.66,13.4-.64,17.5-1.61,30.81-1.65,18.82-.06,27.31,1.83,46.13,3.16,11.53,.82,28.11,1.51,48.89,.75,1.25,.03,2.78,.1,4.48,.26,1.48,.14,2.93,.33,4.35,.57,7.38,1.54,18.86,3.68,33.55,5.41,21.43,2.52,27.15,1.52,43.01,4.35,14.47,2.58,16.35,4.58,35.05,8.97,15.73,3.69,29.63,5.86,38.83,7.1,1.95,.33,4.77,.91,7.8,1.89,2.41,.78,4.6,1.69,6.46,2.71,2.16,1.11,5.38,2.81,9.07,4.97,11.45,6.69,12.42,8.98,21.11,13.76,7.68,4.23,9.45,3.86,21.28,9.44,10.36,4.89,17.78,9.31,22.39,12.25,4.58,2.51,6.4,4.86,7.61,12.21Z"/><path class="l" d="M856.19,104.66c-.62,1.82-1.88,4.71-4.7,8.02-4.51,5.3-8.57,6.48-11.1,10.97-2.33,4.14-.36,5.71-.99,10.77-.51,4.04-2.61,9.8-10.22,16.38-.56,.96-1.63,2.31-3.79,3.66-1.72,1.07-3.86,1.97-6.36,2.66-14.09,5.72-27.47,8.74-37.19,10.43-12.36,2.16-19.86,2.37-31.79,5.67-12.2,3.37-18.63,7.1-23.88,9.68-10.59,5.2-28.59,11.72-60.08,16.21-1.35,.37-3.05,.76-5.09,1.07-1.77,.27-3.6,.45-5.48,.54-14.85-.57-34.67-.54-57.07,1.93-22.86,2.52-27.55,5.28-47.95,6.56-24.47,1.53-33.5-1.45-58.74-2.12-15.96-.42-39.35,.06-69.11,4.7-1.44,.07-3.15,.1-5.04,.02-1.66-.07-3.3-.21-4.9-.43-29.38-8.57-53.71-10.47-70.65-10.62-17.69-.16-28.77,1.56-46.82-1.32-15.95-2.54-19.19-5.81-36.15-9.65-10.03-2.28-24.51-4.68-44.43-5.34-1.63-.22-3.66-.59-5.74-1.23-1.74-.54-3.31-1.19-4.66-1.96-3.9-3.02-10.33-7.36-20.18-11.45-16-6.65-22.64-4.96-31.7-10.61-8.68-5.42-5.44-8.83-16.21-16.58-4.52-3.25-9.1-5.53-12.21-6.93-1.29-.73-3.35-2.17-4.02-4.44-.49-1.67-.13-3.51,1.1-5.38,2.21-2.45,5.31-6.31,7.17-10.92,2.55-6.34-.17-6.95,3-11.53,3.35-4.84,7.68-5.96,12.8-12.16,2.44-2.95,3.64-5.36,4.27-6.88,.97-1.27,2.57-2.89,5.27-4.62,7.81-5.02,19.13-7.3,22.63-7.95,5.28-.96,12.99-2.66,20.47-5.64,9.12-3.63,8.85-5.58,17.22-8.38,9.48-3.18,12.37-1.51,23.84-4.94,8.2-2.45,8.94-3.99,19.07-7.11,5.47-1.69,10.34-2.81,13.63-3.5,1.25-.39,2.93-.85,5-1.27,1.73-.35,3.52-.63,5.33-.82,11.11-.52,27.68-1.73,46.96-4.93,14.2-2.36,15.55-3.42,27.57-5.06,19.63-2.68,27.57-1.4,50.1-3.07,8.57-.63,21.17-1.84,36.33-4.34,1.03-.11,2.26-.22,3.65-.27,1.22-.05,2.45-.07,3.67-.04,22.65,2.33,40.77,2.17,53.22,1.58,12.61-.6,16.47-1.52,28.99-1.56,17.7-.05,25.67,1.73,43.35,3,10.83,.78,26.4,1.44,45.94,.71,1.18,.03,2.61,.09,4.21,.24,1.39,.13,2.75,.31,4.08,.54,6.91,1.46,17.64,3.48,31.4,5.12,20.06,2.38,25.45,1.44,40.26,4.11,13.5,2.43,15.21,4.32,32.6,8.45,14.62,3.47,27.56,5.51,36.13,6.68,1.81,.31,4.43,.86,7.23,1.77,2.23,.73,4.24,1.59,5.95,2.55,1.98,1.04,4.93,2.64,8.3,4.66,10.44,6.26,11.26,8.4,19.18,12.88,6.99,3.95,8.67,3.6,19.46,8.81,9.44,4.56,16.16,8.67,20.32,11.4,4.15,2.33,5.74,4.51,6.53,11.33Z"/><path class="d" d="M824.89,105c-2.01,6.14,7.84,9.07,5.07,14.92-2.46,5.17-10.56,3.99-16,9.18-9.3,8.88,8.52,17.67-.97,23.32-7.99,4.75-21.79-.57-37.56,4.39-13.94,4.39-8.27,10.2-22.57,14.72-15.42,4.88-24.06-1.11-39.6,3.3-16.89,4.79-31.16,18.79-37.88,19.28-5.1,.38-10.71,.4-10.71,.4h0c-13.39-.59-21.16-5.21-42.9-3.91-25.93,1.55-28.08,8.92-54.62,11.7-24.36,2.55-30.67-2.79-63.28-4.31-45.33-2.11-47.45,7.69-86.28,5.79-46.75-2.29-49.74-16.82-88.79-13.92-19.17,1.42-30.99,5.78-45.37,2.45-13.67-3.16-10.75-8.94-25.5-12.97-16.36-4.46-25.27,1.31-41.93-2.62-17.83-4.2-11.88-11.03-31.46-17.05-11.14-3.43-16.66-1.46-21.4-5.12-6.67-5.14,2.79-10.26-2.82-15.37-6.52-5.94-23.08-2.13-27.15-7.23-4.2-5.27,13.03-10.33,15.84-21.3,1.87-7.3-5.16-8.05-.9-15.47,1.59-2.78,4.26-7.43,12.97-11.18,8.64-3.73,14.46-2.78,27.47-7.38,4.73-1.67,8.2-3.43,15.09-6.92,14.27-7.23,13.75-8.75,20.95-10.99,9.05-2.8,12.01-1.03,25.8-3.64,15.35-2.91,15.68-5.89,30.34-9.25,14.28-3.27,16.68-1.04,34.86-4.02,21.9-3.59,21.29-7.33,37.57-9.13,18.19-2.01,21.33,2.44,40.52,.05,13.18-1.64,15.32-4.22,28.77-5,10.4-.6,11.34,.81,23.28,.48,16.06-.45,18.47-3.11,31.22-3.55,16.08-.56,19.23,5.27,36.05,4.34,9.87-.55,9.7-2.7,20.35-3.33,13.5-.8,16.44,2.52,31.76,2.84,18.24,.38,22.69-4.12,35.9-2.6,11.25,1.29,9.34,4.92,21.74,7.26,16.03,3.03,24.03-1.88,44.11,.81,11.83,1.58,10.81,3.49,24.95,5.42,17.28,2.36,21.17-.13,31.31,2.11,15.76,3.48,11.21,10.56,27.77,15.11,15.99,4.4,28.19,.07,38.66,4.3,10.97,4.43,.08,10.03,11.62,18.16,12.25,8.63,34.23,9.45,36.36,15.11,1.63,4.35-10.47,4.22-12.63,10.84Z"/><path class="j" d="M786.14,103.37c-2.11,5.42,6.41,7.99,3.63,13.13-2.45,4.54-9.52,3.5-14.59,8.06-8.64,7.76,6.52,15.4-2.1,20.31-7.24,4.12-19.04-.48-33.09,3.83-12.39,3.8-7.7,8.82-20.38,12.73-13.65,4.21-20.96-.93-34.69,2.87-14.9,4.13-27.78,16.13-33.63,16.56-4.45,.33-9.33,.36-9.33,.36h0c-11.63-.49-18.28-4.43-37.25-3.3-22.61,1.35-24.6,7.64-47.71,10.04-21.21,2.2-26.65-2.35-55.03-3.61-39.5-1.75-41.28,6.6-75.09,5.02-40.76-1.9-43.67-14.32-77.74-11.8-16.7,1.24-26.89,4.98-39.57,2.15-12.06-2.69-9.73-7.66-22.8-11.11-14.53-3.83-22.09,1.15-36.87-2.21-15.85-3.61-10.97-9.51-28.5-14.71-9.99-2.96-14.75-1.26-19.13-4.43-6.18-4.47,1.88-8.94-3.36-13.39-6.12-5.19-20.54-1.84-24.45-6.31-4.05-4.62,10.91-9.09,12.75-18.76,1.23-6.47-5.08-7.13-1.73-13.72,1.25-2.47,3.36-6.62,10.91-9.98,7.5-3.33,12.77-2.49,24.15-6.62,4.14-1.5,7.16-3.08,13.14-6.21,12.43-6.5,11.89-7.88,18.24-9.89,7.99-2.53,10.73-.93,22.99-3.3,13.66-2.64,13.84-5.33,26.88-8.38,12.72-2.97,14.96-.95,31.21-3.65,19.59-3.26,18.94-6.67,33.55-8.31,16.34-1.84,19.26,2.21,36.48,.03,11.84-1.5,13.72-3.85,25.83-4.56,9.36-.55,10.23,.74,20.97,.43,14.46-.41,16.61-2.84,28.1-3.25,14.48-.51,17.32,4.8,32.46,3.95,8.88-.5,8.74-2.46,18.33-3.04,12.16-.73,14.78,2.3,28.55,2.59,16.39,.34,20.47-3.76,32.32-2.38,10.09,1.18,8.3,4.48,19.39,6.61,14.32,2.74,21.62-1.72,39.57,.72,10.56,1.43,9.59,3.17,22.19,4.91,15.39,2.13,18.97-.13,27.96,1.9,13.96,3.14,9.6,9.54,24.18,13.63,14.06,3.95,25.15,.05,34.28,3.85,9.54,3.97-.44,8.99,9.39,16.24,10.4,7.67,29.84,8.39,31.39,13.41,1.19,3.85-9.51,3.74-11.79,9.59Z"/><path class="w" d="M424.56,3.45C248.83,13.34,88.67,52.36,45.46,105.86c-5.83,7.21-9.38,14.44-10.73,21.62C86.72,64.33,247.04,19.07,424.56,3.45Z"/><path class="w" d="M583.36,257.49c259.2-19.2,407.4-89.04,358.62-156.12-5.23-7.19-12.54-14.05-21.63-20.54,48.01,70.05-85.23,145.35-336.99,176.66Z"/><path class="x" d="M489.82,6.94c68.69-5.53,198.67-10.49,301.88,31.63,6.41,2.62,12.86,5.45,19.31,8.52-34.6-10.91-81.44-23.55-136.84-32-79.6-12.14-145.48-10.61-184.35-8.15Z"/><path class="x" d="M459.65,249.62c-105.23,10-305.4,16.45-369.32-68.23-3.17-4.2-5.94-8.63-8.26-13.3,22.59,17.45,60.55,40.22,121.41,57.91,98.5,28.64,197.4,27.69,256.17,23.62Z"/></g><g><g><path class="q" d="M275.45,89.28c-2.89,6.76-20.51,12.48-39.27,12.63-18.74,.14-30.87-5.34-27.2-12.1,3.59-6.6,20.99-11.96,38.96-12.11,17.98-.15,30.33,4.97,27.51,11.58Z"/><path class="o" d="M224.8,81.23c2.53-1.09,4.57-.23,10.74-1,6.05-.75,7.17-1.96,11.15-1.9,3.06,.04,2.54,.75,6.8,1.3,5.69,.73,8.66-.28,10.79,.82,1.3,.67,.24,1.05,1.57,2.73,1.1,1.38,2.05,1.41,4.96,3.66,2.75,2.12,2.75,2.74,2.37,3.26-.61,.83-2.22,1.4-3.68,1.92-3.89,1.37-6.15,1.02-7.54,1.96-1.78,1.21,.95,2.42-.54,3.36-2.07,1.3-7.88-.64-13.95,1.07-3.99,1.13-4.68,2.87-7.19,2.97-2.81,.11-2.24-2.06-6.31-2.87-3.01-.6-4.45,.36-9.64,.07-2.36-.13-6.54-.36-8.62-1.86-1.43-1.04-.23-1.5-1.29-4.75-.82-2.51-1.73-2.82-.83-3.75,1.43-1.48,4.4-1.37,7.39-3.3,2.78-1.79,1.48-2.69,3.81-3.69Z"/><path class="p" d="M226.37,82c2.25-.97,4.07-.2,9.58-.89,5.39-.67,6.39-1.75,9.95-1.7,2.73,.04,2.26,.67,6.07,1.16,5.07,.65,7.73-.25,9.62,.73,1.15,.6,.21,.94,1.39,2.43,.97,1.23,1.82,1.26,4.4,3.26,2.44,1.89,2.43,2.44,2.09,2.9-.55,.74-1.98,1.25-3.29,1.71-3.46,1.22-5.47,.9-6.72,1.74-1.59,1.07,.84,2.15-.5,2.98-1.85,1.15-7-.57-12.39,.95-3.55,1-4.16,2.55-6.39,2.64-2.5,.1-1.99-1.82-5.61-2.54-2.67-.53-3.95,.32-8.56,.07-2.1-.11-5.81-.32-7.66-1.65-1.28-.92-.21-1.33-1.17-4.22-.74-2.23-1.55-2.5-.76-3.33,1.27-1.32,3.91-1.22,6.57-2.94,2.47-1.6,1.31-2.4,3.38-3.29Z"/><path class="m" d="M230.85,84.26c-.13,.26-.87,.47-1.65,.47s-1.3-.2-1.17-.45c.13-.25,.87-.47,1.65-.47s1.3,.2,1.17,.45Z"/><path class="m" d="M256.25,83.72c-.12,.25-.85,.47-1.63,.47s-1.31-.2-1.19-.45c.12-.25,.85-.47,1.63-.47,.78,0,1.31,.19,1.19,.45Z"/><path class="m" d="M248.41,88.09c-.12,.26-.86,.47-1.65,.48-.79,0-1.32-.2-1.2-.46s.86-.47,1.65-.48c.78,0,1.32,.2,1.2,.46Z"/><path class="m" d="M243.4,83.04c-.12,.25-.86,.47-1.63,.47-.78,0-1.31-.19-1.18-.45s.86-.46,1.63-.47c.78,0,1.31,.19,1.18,.45Z"/><path class="m" d="M263.45,88.9c-.12,.26-.85,.48-1.64,.48-.79,0-1.33-.2-1.21-.46s.85-.47,1.64-.48,1.33,.2,1.21,.46Z"/><path class="m" d="M239.19,94.36c-.13,.26-.88,.48-1.67,.49s-1.33-.2-1.2-.47,.88-.48,1.67-.49c.79,0,1.33,.2,1.2,.47Z"/><path class="m" d="M253.32,93.16c-.12,.26-.86,.48-1.66,.49-.79,0-1.34-.2-1.21-.47,.12-.26,.86-.48,1.66-.49,.79,0,1.33,.2,1.21,.47Z"/><path class="m" d="M235.14,88.79c-.13,.26-.87,.47-1.66,.48s-1.32-.2-1.19-.46,.87-.47,1.66-.48c.78,0,1.32,.2,1.19,.46Z"/><path class="m" d="M225.62,92.36c-.13,.26-.88,.48-1.67,.49-.79,0-1.32-.2-1.18-.46,.14-.26,.89-.48,1.67-.49,.79,0,1.32,.2,1.19,.46Z"/></g><g><path class="q" d="M632.51,163.31c1.55,8.78-14.85,16.17-36.65,16.28-21.77,.12-39.81-7.07-40.31-15.84-.48-8.53,15.92-15.39,36.65-15.52,20.76-.13,38.79,6.53,40.3,15.07Z"/><path class="o" d="M567.88,152.72c2.17-1.39,5.14-.28,11.76-1.25,6.48-.95,6.93-2.5,11.59-2.41,3.59,.07,3.48,.98,8.82,1.7,7.13,.96,9.86-.33,13.12,1.09,1.98,.87,1.03,1.36,3.79,3.53,2.27,1.79,3.4,1.83,8.41,4.75,4.74,2.76,5.18,3.57,5.12,4.23-.11,1.08-1.56,1.81-2.9,2.48-3.53,1.77-6.42,1.3-7.36,2.52-1.2,1.56,2.87,3.16,1.8,4.37-1.48,1.69-9.65-.87-15.49,1.35-3.84,1.46-3.39,3.73-6.25,3.85-3.2,.14-4.09-2.69-9.42-3.77-3.94-.8-4.93,.45-11.19,.06-2.85-.18-7.88-.49-11.37-2.46-2.4-1.35-1.33-1.95-4.88-6.18-2.73-3.25-4-3.66-3.62-4.86,.61-1.91,4.14-1.77,6.25-4.25,1.96-2.3-.19-3.48,1.81-4.76Z"/><path class="p" d="M570.24,153.72c1.93-1.24,4.58-.25,10.49-1.11,5.78-.85,6.18-2.23,10.34-2.16,3.2,.06,3.11,.88,7.87,1.52,6.35,.86,8.79-.29,11.69,.98,1.77,.77,.92,1.22,3.36,3.15,2.02,1.59,3.02,1.63,7.47,4.24,4.2,2.46,4.59,3.17,4.53,3.77-.1,.96-1.4,1.61-2.59,2.2-3.15,1.57-5.72,1.15-6.56,2.24-1.08,1.39,2.53,2.8,1.58,3.88-1.32,1.49-8.57-.77-13.76,1.2-3.42,1.29-3.02,3.3-5.56,3.41-2.84,.12-3.63-2.38-8.36-3.33-3.5-.7-4.38,.4-9.94,.05-2.53-.16-7-.43-10.11-2.18-2.14-1.2-1.19-1.73-4.36-5.49-2.44-2.89-3.58-3.25-3.24-4.33,.54-1.7,3.68-1.57,5.55-3.79,1.74-2.05-.18-3.1,1.59-4.25Z"/><path class="m" d="M577.04,156.64c.03,.33-.68,.6-1.58,.61-.9,0-1.65-.26-1.68-.59s.68-.6,1.58-.61,1.65,.26,1.68,.59Z"/><path class="m" d="M606.17,156.04c.05,.33-.65,.6-1.55,.61s-1.67-.26-1.71-.59,.65-.6,1.55-.61c.9,0,1.67,.26,1.71,.59Z"/><path class="m" d="M600.19,161.67c.04,.34-.66,.61-1.57,.62-.91,0-1.68-.26-1.72-.6s.66-.61,1.57-.62,1.68,.26,1.72,.6Z"/><path class="m" d="M590.75,155.12c.04,.33-.66,.6-1.56,.6-.9,0-1.66-.26-1.69-.58s.66-.6,1.56-.6c.9,0,1.66,.26,1.69,.58Z"/><path class="m" d="M618.26,162.77c.05,.34-.65,.61-1.56,.62-.91,0-1.69-.26-1.74-.6s.65-.61,1.56-.62,1.69,.26,1.74,.6Z"/><path class="m" d="M593.95,169.77c.04,.34-.67,.63-1.59,.63-.92,0-1.7-.27-1.73-.61s.68-.63,1.59-.63c.92,0,1.7,.27,1.73,.61Z"/><path class="m" d="M609.55,168.26c.05,.34-.66,.62-1.58,.63-.92,0-1.7-.27-1.75-.61s.66-.62,1.58-.63c.92,0,1.7,.27,1.75,.61Z"/><path class="m" d="M585.26,162.53c.03,.34-.67,.61-1.58,.62s-1.67-.26-1.71-.6,.68-.61,1.58-.62c.91,0,1.67,.26,1.71,.6Z"/><path class="m" d="M576.72,167.13c.03,.34-.69,.62-1.6,.63-.92,0-1.68-.27-1.71-.61s.69-.62,1.6-.63c.91,0,1.68,.27,1.71,.61Z"/></g><g><path class="q" d="M548.56,46.79c.33,5.86-13.74,10.83-31.42,10.98-17.66,.16-31.66-4.56-31.29-10.41,.36-5.72,14.39-10.4,31.37-10.56,16.99-.16,31.03,4.26,31.35,9.99Z"/><path class="o" d="M496.9,39.9c1.9-.95,4.22-.21,9.73-.88,5.39-.66,5.9-1.71,9.71-1.67,2.93,.03,2.75,.65,7.05,1.12,5.73,.62,8.09-.26,10.61,.69,1.53,.58,.7,.91,2.73,2.36,1.67,1.19,2.59,1.22,6.36,3.16,3.57,1.83,3.85,2.37,3.73,2.82-.2,.72-1.46,1.22-2.62,1.67-3.06,1.19-5.36,.89-6.25,1.71-1.14,1.05,2,2.09,1.01,2.91-1.37,1.13-7.75-.54-12.71,.95-3.26,.98-3.12,2.49-5.45,2.58-2.61,.1-3.06-1.77-7.28-2.47-3.12-.52-4.05,.32-9.09,.08-2.3-.11-6.35-.3-9.01-1.59-1.83-.89-.91-1.3-3.41-4.11-1.93-2.17-2.93-2.43-2.51-3.24,.67-1.29,3.53-1.2,5.48-2.87,1.81-1.56,.16-2.34,1.91-3.21Z"/><path class="p" d="M498.73,40.57c1.69-.84,3.77-.18,8.67-.79,4.81-.59,5.26-1.53,8.66-1.49,2.61,.03,2.45,.58,6.28,1,5.11,.55,7.21-.23,9.45,.62,1.36,.51,.62,.82,2.43,2.11,1.48,1.06,2.3,1.09,5.65,2.82,3.17,1.63,3.41,2.11,3.3,2.51-.18,.64-1.31,1.08-2.34,1.48-2.72,1.06-4.77,.79-5.57,1.52-1.02,.93,1.77,1.86,.89,2.58-1.22,1-6.88-.48-11.3,.85-2.9,.87-2.78,2.21-4.84,2.29-2.32,.09-2.71-1.57-6.47-2.19-2.78-.46-3.6,.28-8.08,.07-2.04-.1-5.65-.26-8.01-1.41-1.63-.79-.81-1.15-3.05-3.65-1.73-1.93-2.62-2.17-2.25-2.88,.59-1.14,3.14-1.07,4.87-2.56,1.61-1.39,.13-2.08,1.69-2.86Z"/><path class="m" d="M504.02,42.51c0,.22-.61,.41-1.34,.41-.74,0-1.33-.17-1.32-.39s.61-.41,1.34-.41c.73,0,1.32,.17,1.32,.39Z"/><path class="m" d="M527.85,42c0,.22-.59,.41-1.33,.41-.74,0-1.34-.17-1.34-.39s.59-.41,1.33-.41,1.33,.17,1.34,.39Z"/><path class="m" d="M522.41,45.8c0,.22-.6,.41-1.34,.42-.74,0-1.34-.17-1.34-.39s.6-.41,1.34-.42c.74,0,1.34,.17,1.34,.39Z"/><path class="m" d="M515.36,41.44c0,.22-.6,.41-1.33,.41-.73,0-1.33-.17-1.33-.39s.6-.4,1.33-.41c.73,0,1.33,.17,1.33,.39Z"/><path class="m" d="M537.02,46.48c0,.23-.59,.41-1.33,.42-.74,0-1.35-.17-1.36-.4s.59-.41,1.33-.42c.74,0,1.35,.17,1.36,.39Z"/><path class="m" d="M516.54,51.24c0,.23-.61,.42-1.36,.43s-1.35-.17-1.35-.4,.61-.42,1.36-.43c.75,0,1.35,.17,1.35,.4Z"/><path class="m" d="M529.38,50.18c0,.23-.6,.42-1.35,.43s-1.36-.17-1.36-.4,.6-.42,1.35-.42c.75,0,1.36,.17,1.36,.4Z"/><path class="m" d="M510.16,46.43c0,.22-.61,.41-1.35,.42-.74,0-1.34-.17-1.33-.39s.61-.41,1.35-.42,1.34,.17,1.33,.39Z"/><path class="m" d="M502.78,49.54c0,.23-.62,.42-1.36,.42-.75,0-1.34-.17-1.34-.4s.62-.42,1.36-.42,1.34,.17,1.34,.4Z"/></g><g><path class="q" d="M490.15,83.9c-.34,6.7-15.94,12.36-34.8,12.51-18.85,.15-33.17-5.28-32.04-11.97,1.11-6.54,16.62-11.85,34.68-12,18.08-.15,32.49,4.92,32.16,11.46Z"/><path class="o" d="M436,75.95c2.14-1.08,4.52-.23,10.46-.99,5.81-.75,6.49-1.94,10.53-1.88,3.11,.04,2.85,.75,7.36,1.28,6.02,.72,8.63-.28,11.2,.81,1.56,.66,.64,1.04,2.62,2.7,1.64,1.37,2.61,1.4,6.4,3.62,3.58,2.1,3.82,2.72,3.63,3.22-.3,.82-1.7,1.39-2.99,1.9-3.4,1.36-5.81,1.01-6.86,1.94-1.34,1.2,1.88,2.4,.73,3.33-1.6,1.29-8.19-.64-13.66,1.07-3.6,1.12-3.63,2.84-6.12,2.95-2.79,.11-3.04-2.03-7.46-2.84-3.26-.6-4.35,.35-9.69,.08-2.43-.13-6.73-.35-9.4-1.84-1.84-1.03-.8-1.49-3.11-4.71-1.78-2.48-2.82-2.79-2.26-3.71,.88-1.47,3.91-1.36,6.2-3.27,2.12-1.77,.46-2.67,2.43-3.66Z"/><path class="p" d="M437.87,76.71c1.9-.96,4.03-.2,9.32-.88,5.18-.67,5.78-1.73,9.39-1.68,2.77,.04,2.54,.67,6.56,1.15,5.36,.64,7.7-.25,9.98,.72,1.39,.59,.57,.93,2.33,2.41,1.45,1.22,2.31,1.24,5.68,3.23,3.18,1.87,3.38,2.42,3.21,2.87-.27,.73-1.52,1.23-2.67,1.69-3.03,1.21-5.17,.89-6.11,1.73-1.2,1.06,1.66,2.13,.64,2.96-1.42,1.14-7.28-.56-12.14,.95-3.2,.99-3.23,2.52-5.44,2.61-2.48,.1-2.7-1.8-6.62-2.52-2.9-.53-3.87,.31-8.61,.07-2.16-.11-5.98-.31-8.36-1.63-1.64-.91-.72-1.32-2.79-4.18-1.59-2.21-2.52-2.48-2.03-3.3,.77-1.31,3.48-1.21,5.51-2.92,1.89-1.58,.4-2.38,2.16-3.26Z"/><path class="m" d="M443.25,78.94c-.03,.25-.7,.46-1.48,.47-.78,0-1.39-.19-1.35-.45s.7-.46,1.48-.47,1.39,.19,1.35,.45Z"/><path class="m" d="M468.67,78.4c-.02,.25-.68,.46-1.46,.47-.78,0-1.4-.19-1.38-.45s.68-.46,1.46-.47c.78,0,1.4,.19,1.38,.44Z"/><path class="m" d="M462.42,82.73c-.03,.26-.69,.47-1.48,.48-.79,0-1.41-.2-1.38-.45s.69-.47,1.48-.48c.79,0,1.41,.2,1.38,.45Z"/><path class="m" d="M455.45,77.73c-.03,.25-.69,.46-1.47,.47-.78,0-1.39-.19-1.36-.44s.69-.46,1.47-.47c.78,0,1.39,.19,1.36,.44Z"/><path class="m" d="M477.9,83.52c-.02,.26-.68,.47-1.47,.48-.79,0-1.42-.2-1.4-.45s.68-.47,1.47-.48c.79,0,1.42,.2,1.4,.45Z"/><path class="m" d="M455.51,88.94c-.03,.26-.7,.48-1.5,.49-.8,0-1.42-.2-1.39-.46s.7-.48,1.5-.49c.8,0,1.42,.2,1.39,.46Z"/><path class="m" d="M469.31,87.75c-.02,.26-.69,.48-1.49,.48-.8,0-1.42-.2-1.4-.46s.69-.48,1.48-.48c.8,0,1.42,.2,1.4,.46Z"/><path class="m" d="M449.31,83.43c-.03,.26-.7,.47-1.49,.48-.79,0-1.4-.2-1.37-.45s.7-.47,1.49-.48c.79,0,1.4,.2,1.37,.45Z"/><path class="m" d="M441.06,86.96c-.04,.26-.71,.48-1.5,.48-.79,0-1.41-.2-1.37-.46s.71-.48,1.5-.48c.79,0,1.41,.2,1.37,.46Z"/></g><g><path class="q" d="M375.3,112.17c-1.78,7.36-19.23,13.56-38.9,13.7-19.65,.14-33.38-5.85-30.73-13.19,2.58-7.17,19.85-12.97,38.66-13.12,18.82-.14,32.72,5.43,30.98,12.61Z"/><path class="o" d="M320.71,103.37c2.46-1.18,4.75-.24,11.08-1.07,6.2-.81,7.16-2.12,11.35-2.05,3.22,.05,2.8,.82,7.37,1.42,6.1,.79,9.03-.29,11.47,.9,1.48,.73,.44,1.15,2.15,2.96,1.41,1.5,2.41,1.53,5.88,3.98,3.28,2.31,3.39,2.99,3.09,3.54-.49,.91-2.07,1.52-3.51,2.08-3.83,1.49-6.26,1.1-7.55,2.13-1.65,1.31,1.45,2.64,.05,3.66-1.94,1.41-8.39-.71-14.44,1.16-3.99,1.23-4.39,3.12-7.01,3.23-2.93,.12-2.73-2.24-7.15-3.13-3.27-.66-4.61,.38-10.11,.07-2.5-.14-6.93-.4-9.38-2.04-1.69-1.13-.51-1.63-2.21-5.17-1.31-2.73-2.32-3.06-1.55-4.07,1.23-1.61,4.36-1.49,7.16-3.58,2.59-1.94,1.06-2.92,3.33-4.01Z"/><path class="p" d="M322.49,104.21c2.19-1.05,4.23-.22,9.88-.96,5.53-.72,6.38-1.89,10.12-1.83,2.87,.04,2.49,.73,6.57,1.27,5.44,.71,8.05-.26,10.22,.8,1.32,.65,.39,1.02,1.9,2.65,1.25,1.34,2.14,1.37,5.21,3.55,2.9,2.06,3,2.66,2.73,3.15-.44,.81-1.85,1.35-3.14,1.85-3.41,1.32-5.57,.98-6.73,1.89-1.47,1.16,1.28,2.34,.03,3.25-1.73,1.25-7.45-.63-12.84,1.02-3.54,1.09-3.9,2.77-6.23,2.86-2.6,.11-2.42-1.98-6.35-2.77-2.9-.58-4.09,.34-8.98,.06-2.23-.13-6.16-.35-8.34-1.8-1.51-1-.46-1.45-1.99-4.59-1.18-2.42-2.08-2.73-1.39-3.63,1.09-1.43,3.88-1.33,6.36-3.19,2.3-1.73,.94-2.61,2.95-3.58Z"/><path class="m" d="M327.6,106.66c-.09,.28-.83,.51-1.64,.51s-1.4-.21-1.31-.49c.09-.28,.83-.51,1.64-.51,.81,0,1.4,.21,1.31,.49Z"/><path class="m" d="M354.14,106.11c-.08,.28-.8,.51-1.62,.51-.82,0-1.41-.21-1.34-.49s.8-.51,1.62-.51c.82,0,1.41,.21,1.34,.49Z"/><path class="m" d="M346.71,110.84c-.08,.28-.82,.51-1.64,.52-.82,0-1.42-.22-1.34-.5s.82-.51,1.64-.52c.82,0,1.42,.22,1.34,.5Z"/><path class="m" d="M340.54,105.36c-.08,.28-.81,.5-1.63,.51-.81,0-1.41-.21-1.32-.49s.81-.5,1.63-.51,1.4,.21,1.32,.49Z"/><path class="m" d="M362.64,111.74c-.07,.28-.8,.52-1.63,.52-.83,0-1.43-.22-1.36-.5s.81-.52,1.63-.52c.82,0,1.43,.22,1.36,.5Z"/><path class="m" d="M338.18,117.66c-.09,.29-.83,.53-1.66,.53-.83,0-1.43-.22-1.35-.51s.83-.53,1.66-.53c.83,0,1.43,.22,1.35,.51Z"/><path class="m" d="M352.8,116.36c-.08,.29-.82,.52-1.65,.53s-1.44-.22-1.36-.51,.82-.52,1.65-.53c.83,0,1.44,.22,1.36,.51Z"/><path class="m" d="M332.92,111.6c-.09,.28-.83,.52-1.65,.52-.82,0-1.42-.22-1.33-.5s.83-.51,1.65-.52,1.42,.22,1.33,.5Z"/><path class="m" d="M323.58,115.47c-.09,.29-.84,.52-1.67,.53s-1.42-.22-1.33-.51,.84-.52,1.67-.53c.83,0,1.42,.22,1.33,.51Z"/></g><g><path class="q" d="M616.51,74.9c1.15,6.52-13.11,12.04-31.84,12.19-18.71,.15-34.17-5.12-34.53-11.64-.36-6.36,13.89-11.54,31.83-11.7,17.96-.15,33.42,4.78,34.54,11.15Z"/><path class="o" d="M560.87,67.17c1.89-1.05,4.44-.22,10.18-.97,5.62-.73,6.02-1.89,10.06-1.84,3.1,.04,3,.73,7.61,1.25,6.15,.7,8.53-.27,11.32,.78,1.7,.64,.87,1.02,3.21,2.63,1.93,1.33,2.9,1.36,7.17,3.52,4.03,2.04,4.4,2.64,4.33,3.14-.11,.8-1.39,1.35-2.55,1.85-3.08,1.32-5.56,.98-6.39,1.89-1.07,1.16,2.41,2.33,1.47,3.24-1.3,1.25-8.29-.62-13.35,1.04-3.33,1.09-2.98,2.77-5.43,2.87-2.75,.11-3.48-1.98-8.05-2.76-3.38-.58-4.25,.35-9.62,.08-2.45-.12-6.77-.34-9.76-1.79-2.06-1-1.13-1.45-4.15-4.58-2.32-2.41-3.42-2.71-3.08-3.61,.55-1.43,3.59-1.33,5.44-3.19,1.72-1.73-.13-2.6,1.61-3.56Z"/><path class="p" d="M562.9,67.91c1.68-.94,3.96-.2,9.08-.86,5.01-.65,5.37-1.69,8.97-1.64,2.77,.04,2.67,.65,6.78,1.12,5.48,.62,7.6-.24,10.09,.7,1.51,.57,.77,.91,2.85,2.35,1.71,1.18,2.58,1.21,6.37,3.14,3.57,1.82,3.9,2.35,3.83,2.79-.11,.71-1.24,1.2-2.28,1.65-2.74,1.18-4.95,.87-5.69,1.68-.95,1.03,2.13,2.07,1.29,2.88-1.16,1.11-7.36-.55-11.86,.93-2.96,.97-2.65,2.46-4.83,2.54-2.44,.1-3.09-1.75-7.15-2.45-3-.51-3.78,.31-8.55,.07-2.18-.11-6.02-.3-8.68-1.59-1.83-.89-1.01-1.28-3.71-4.07-2.08-2.15-3.06-2.41-2.76-3.21,.48-1.27,3.19-1.18,4.83-2.84,1.52-1.54-.13-2.32,1.42-3.18Z"/><path class="m" d="M568.75,70.08c.02,.25-.59,.45-1.37,.46-.78,0-1.43-.19-1.45-.43s.59-.45,1.37-.46c.78,0,1.42,.19,1.45,.43Z"/><path class="m" d="M593.92,69.55c.03,.25-.57,.45-1.35,.46s-1.44-.19-1.47-.43,.57-.45,1.35-.46c.78,0,1.43,.19,1.47,.43Z"/><path class="m" d="M588.67,73.77c.03,.25-.58,.46-1.36,.46-.78,0-1.44-.19-1.47-.44s.58-.46,1.36-.46,1.44,.19,1.47,.44Z"/><path class="m" d="M580.62,68.91c.03,.25-.58,.45-1.36,.46-.78,0-1.43-.19-1.45-.43s.58-.45,1.36-.46,1.43,.19,1.45,.43Z"/><path class="m" d="M604.24,74.54c.04,.25-.57,.46-1.35,.47-.79,0-1.45-.19-1.49-.44s.57-.46,1.35-.46c.79,0,1.45,.19,1.49,.44Z"/><path class="m" d="M583.17,79.82c.03,.25-.59,.47-1.38,.47-.79,0-1.46-.2-1.49-.45s.59-.47,1.38-.47c.79,0,1.46,.19,1.49,.45Z"/><path class="m" d="M596.63,78.65c.04,.25-.58,.47-1.37,.47-.79,0-1.46-.19-1.5-.45s.58-.46,1.37-.47c.79,0,1.46,.19,1.5,.45Z"/><path class="m" d="M575.77,74.45c.03,.25-.59,.46-1.37,.46-.78,0-1.44-.19-1.46-.44s.59-.46,1.37-.46c.78,0,1.44,.19,1.46,.44Z"/><path class="m" d="M568.36,77.9c.02,.25-.6,.46-1.39,.47-.79,0-1.45-.19-1.47-.45s.6-.46,1.39-.47c.79,0,1.44,.19,1.47,.45Z"/></g><g><path class="q" d="M410.13,58.54c-1.23,6.08-16.77,11.24-34.66,11.39-17.88,.15-30.75-4.75-28.81-10.83,1.9-5.94,17.32-10.79,34.49-10.95,17.19-.16,30.18,4.44,28.98,10.39Z"/><path class="o" d="M359.82,51.36c2.17-.98,4.32-.21,10.06-.91,5.62-.68,6.41-1.77,10.24-1.73,2.94,.03,2.6,.68,6.81,1.16,5.62,.65,8.23-.26,10.52,.72,1.39,.6,.47,.95,2.13,2.45,1.37,1.24,2.28,1.27,5.58,3.29,3.11,1.91,3.25,2.46,3.01,2.93-.39,.75-1.8,1.26-3.09,1.73-3.4,1.24-5.65,.92-6.77,1.77-1.43,1.09,1.46,2.18,.25,3.02-1.69,1.17-7.68-.57-13.09,.98-3.56,1.02-3.81,2.58-6.19,2.68-2.66,.11-2.61-1.84-6.69-2.57-3.02-.54-4.17,.33-9.2,.08-2.29-.11-6.34-.31-8.67-1.66-1.61-.93-.57-1.35-2.34-4.27-1.37-2.25-2.31-2.53-1.67-3.37,1.02-1.33,3.89-1.24,6.31-2.98,2.24-1.61,.79-2.43,2.79-3.33Z"/><path class="p" d="M361.49,52.05c1.93-.88,3.85-.19,8.96-.81,5.01-.61,5.72-1.58,9.14-1.54,2.63,.03,2.32,.61,6.07,1.04,5.01,.58,7.34-.23,9.38,.65,1.24,.53,.41,.85,1.89,2.19,1.21,1.11,2.03,1.13,4.95,2.93,2.76,1.7,2.88,2.19,2.66,2.61-.35,.67-1.61,1.12-2.76,1.54-3.03,1.1-5.03,.82-6.02,1.57-1.28,.97,1.29,1.93,.21,2.68-1.5,1.04-6.82-.5-11.63,.87-3.16,.91-3.39,2.29-5.5,2.37-2.36,.09-2.32-1.63-5.95-2.28-2.68-.48-3.71,.29-8.17,.07-2.03-.1-5.63-.28-7.71-1.47-1.43-.83-.51-1.2-2.1-3.79-1.22-2-2.07-2.25-1.5-3,.9-1.19,3.46-1.11,5.61-2.66,2-1.44,.69-2.16,2.48-2.97Z"/><path class="m" d="M366.3,54.07c-.07,.23-.72,.42-1.47,.43-.74,0-1.29-.17-1.23-.4s.72-.42,1.47-.43c.74,0,1.29,.17,1.23,.4Z"/><path class="m" d="M390.5,53.56c-.06,.23-.7,.42-1.45,.43-.74,0-1.3-.17-1.25-.4s.7-.42,1.45-.43,1.3,.17,1.25,.4Z"/><path class="m" d="M383.99,57.5c-.06,.23-.71,.43-1.46,.43-.75,0-1.31-.18-1.25-.41s.71-.43,1.46-.43c.75,0,1.31,.18,1.25,.41Z"/><path class="m" d="M378.04,52.96c-.06,.23-.71,.42-1.46,.43-.74,0-1.3-.17-1.23-.4s.71-.42,1.46-.43c.74,0,1.3,.17,1.23,.4Z"/><path class="m" d="M398.57,58.21c-.05,.23-.7,.43-1.46,.44s-1.32-.18-1.26-.41,.71-.43,1.46-.43,1.32,.18,1.26,.41Z"/><path class="m" d="M376.61,63.15c-.06,.24-.73,.44-1.48,.44-.76,0-1.32-.18-1.26-.42s.73-.44,1.48-.44c.76,0,1.32,.18,1.26,.42Z"/><path class="m" d="M389.86,62.05c-.06,.24-.72,.43-1.47,.44-.76,0-1.32-.18-1.27-.42s.72-.43,1.47-.44c.76,0,1.32,.18,1.27,.42Z"/><path class="m" d="M371.46,58.15c-.06,.23-.72,.43-1.47,.43-.75,0-1.31-.18-1.24-.41s.73-.43,1.47-.43c.75,0,1.3,.18,1.24,.41Z"/><path class="m" d="M363.17,61.37c-.07,.24-.73,.43-1.49,.44-.75,0-1.31-.18-1.24-.42s.74-.43,1.49-.44c.75,0,1.31,.18,1.24,.42Z"/></g><g><path class="q" d="M426.36,155.63c-1.24,8.5-19.5,15.66-40.73,15.78-21.21,.12-36.52-6.84-34.29-15.32,2.18-8.27,20.28-14.92,40.5-15.05,20.25-.13,35.72,6.32,34.51,14.6Z"/><path class="o" d="M366.76,145.38c2.54-1.35,5.09-.27,11.84-1.21,6.61-.92,7.52-2.42,12.03-2.34,3.47,.06,3.08,.95,8.06,1.65,6.64,.93,9.7-.32,12.42,1.06,1.66,.84,.58,1.32,2.59,3.42,1.65,1.73,2.74,1.77,6.7,4.6,3.75,2.67,3.93,3.45,3.66,4.1-.44,1.05-2.09,1.75-3.59,2.4-3.99,1.71-6.65,1.26-7.95,2.44-1.66,1.51,1.8,3.05,.39,4.23-1.96,1.63-9.12-.84-15.48,1.31-4.19,1.41-4.46,3.61-7.28,3.73-3.15,.13-3.14-2.6-7.99-3.64-3.58-.77-4.94,.44-10.9,.06-2.71-.17-7.51-.47-10.3-2.37-1.92-1.31-.69-1.89-2.83-5.99-1.64-3.15-2.76-3.54-2.01-4.71,1.19-1.85,4.57-1.71,7.41-4.12,2.62-2.23,.89-3.37,3.24-4.61Z"/><path class="p" d="M368.75,146.35c2.27-1.21,4.54-.24,10.55-1.08,5.89-.82,6.71-2.17,10.74-2.09,3.1,.06,2.75,.85,7.19,1.47,5.92,.83,8.65-.29,11.08,.95,1.48,.75,.51,1.18,2.29,3.05,1.47,1.54,2.43,1.58,5.94,4.1,3.32,2.38,3.48,3.07,3.23,3.65-.4,.93-1.87,1.56-3.21,2.13-3.56,1.52-5.92,1.12-7.08,2.17-1.48,1.34,1.59,2.71,.33,3.76-1.75,1.45-8.1-.74-13.76,1.16-3.73,1.25-3.96,3.2-6.47,3.3-2.8,.12-2.79-2.3-7.1-3.23-3.19-.68-4.39,.39-9.68,.06-2.41-.15-6.68-.42-9.16-2.11-1.71-1.16-.62-1.68-2.54-5.32-1.47-2.8-2.47-3.15-1.81-4.19,1.05-1.65,4.07-1.52,6.58-3.67,2.33-1.99,.79-3.01,2.87-4.12Z"/><path class="m" d="M374.46,149.18c-.07,.32-.84,.58-1.72,.59-.88,0-1.53-.25-1.45-.57s.85-.58,1.72-.59c.88,0,1.53,.25,1.45,.57Z"/><path class="m" d="M403,148.59c-.06,.32-.82,.58-1.7,.59-.88,0-1.54-.25-1.48-.57s.82-.58,1.7-.59c.88,0,1.54,.25,1.48,.57Z"/><path class="m" d="M395.42,154.05c-.06,.32-.83,.59-1.72,.6-.89,0-1.55-.25-1.49-.58s.83-.59,1.72-.6c.88,0,1.55,.25,1.49,.58Z"/><path class="m" d="M388.28,147.71c-.07,.32-.83,.58-1.71,.59-.88,0-1.53-.25-1.47-.57s.83-.58,1.71-.59c.88,0,1.53,.25,1.47,.57Z"/><path class="m" d="M412.67,155.11c-.05,.33-.82,.59-1.71,.6s-1.56-.25-1.51-.58,.82-.59,1.71-.6,1.56,.25,1.51,.58Z"/><path class="m" d="M386.83,161.9c-.07,.33-.85,.61-1.75,.61-.9,0-1.57-.26-1.5-.59s.85-.61,1.75-.61c.9,0,1.57,.26,1.5,.59Z"/><path class="m" d="M402.48,160.44c-.06,.33-.84,.6-1.73,.61s-1.57-.26-1.51-.59,.84-.6,1.73-.61,1.57,.26,1.51,.59Z"/><path class="m" d="M380.63,154.89c-.07,.33-.85,.59-1.73,.6-.89,0-1.55-.25-1.47-.58s.85-.59,1.73-.6c.89,0,1.55,.25,1.47,.58Z"/><path class="m" d="M370.89,159.35c-.08,.33-.86,.6-1.75,.61-.89,0-1.55-.26-1.47-.59s.86-.6,1.75-.61c.89,0,1.55,.26,1.47,.59Z"/></g><g><path class="q" d="M704,54.78c2.1,6.08-10.89,11.23-29.05,11.39-18.14,.15-33.97-4.75-35.33-10.82-1.34-5.94,11.71-10.79,29.12-10.95,17.43-.16,33.21,4.43,35.27,10.38Z"/><path class="o" d="M648.76,47.61c1.67-.98,4.28-.21,9.75-.91,5.35-.68,5.56-1.77,9.49-1.73,3.02,.03,3.03,.68,7.58,1.16,6.08,.65,8.25-.26,11.12,.72,1.75,.6,1,.95,3.52,2.45,2.08,1.24,3.03,1.27,7.5,3.28,4.22,1.9,4.67,2.46,4.68,2.92,.01,.75-1.14,1.26-2.19,1.73-2.79,1.24-5.25,.92-5.92,1.77-.86,1.09,2.69,2.17,1.92,3.02-1.07,1.17-8.14-.57-12.8,.98-3.06,1.02-2.46,2.58-4.84,2.68-2.65,.11-3.68-1.84-8.24-2.57-3.37-.54-4.07,.33-9.33,.08-2.4-.11-6.63-.31-9.75-1.66-2.15-.93-1.32-1.35-4.74-4.27-2.63-2.25-3.75-2.53-3.55-3.37,.31-1.33,3.28-1.24,4.79-2.98,1.4-1.61-.53-2.42,1.01-3.33Z"/><path class="p" d="M650.85,48.3c1.49-.88,3.82-.19,8.69-.81,4.77-.61,4.96-1.58,8.46-1.54,2.69,.03,2.7,.6,6.76,1.04,5.42,.58,7.35-.23,9.91,.64,1.56,.53,.89,.85,3.13,2.19,1.85,1.1,2.69,1.13,6.66,2.92,3.75,1.7,4.15,2.19,4.15,2.6,0,.67-1.02,1.12-1.96,1.54-2.49,1.1-4.67,.82-5.27,1.57-.77,.96,2.38,1.93,1.69,2.68-.96,1.04-7.23-.5-11.38,.87-2.73,.91-2.2,2.29-4.3,2.37-2.36,.09-3.27-1.63-7.32-2.27-2.99-.48-3.62,.29-8.29,.07-2.13-.1-5.89-.28-8.67-1.47-1.92-.82-1.18-1.2-4.23-3.79-2.35-2-3.34-2.25-3.18-2.99,.27-1.19,2.91-1.11,4.25-2.65,1.24-1.44-.48-2.16,.89-2.97Z"/><path class="m" d="M656.86,50.32c.06,.23-.5,.42-1.26,.43-.76,0-1.41-.17-1.47-.4s.51-.42,1.26-.43c.75,0,1.41,.17,1.47,.4Z"/><path class="m" d="M681.24,49.81c.07,.23-.49,.42-1.24,.43-.76,0-1.42-.17-1.49-.4s.49-.42,1.24-.43c.75,0,1.42,.17,1.49,.4Z"/><path class="m" d="M676.78,53.74c.07,.23-.49,.43-1.25,.43s-1.43-.18-1.5-.41,.49-.43,1.25-.43c.76,0,1.43,.18,1.5,.41Z"/><path class="m" d="M668.22,49.21c.06,.23-.49,.42-1.25,.43-.75,0-1.42-.17-1.48-.4s.5-.42,1.25-.43c.75,0,1.42,.17,1.48,.4Z"/><path class="m" d="M692.03,54.45c.08,.23-.48,.43-1.24,.44s-1.44-.18-1.52-.41,.48-.43,1.24-.43c.76,0,1.44,.18,1.52,.41Z"/><path class="m" d="M672.37,59.39c.07,.24-.5,.44-1.27,.44-.77,0-1.45-.18-1.51-.42s.5-.44,1.27-.44c.77,0,1.44,.18,1.51,.42Z"/><path class="m" d="M685.27,58.29c.07,.24-.49,.43-1.26,.44-.77,0-1.45-.18-1.52-.42s.49-.43,1.26-.44c.77,0,1.45,.18,1.52,.42Z"/><path class="m" d="M664.36,54.39c.06,.23-.5,.43-1.26,.43-.76,0-1.43-.18-1.49-.41s.5-.43,1.26-.43c.76,0,1.43,.18,1.49,.41Z"/><path class="m" d="M657.69,57.61c.06,.24-.51,.43-1.28,.44-.77,0-1.43-.18-1.49-.42s.51-.43,1.28-.44c.76,0,1.43,.18,1.49,.41Z"/></g><g><path class="q" d="M569.7,121.9c.65,7.66-15.28,14.12-35.55,14.26-20.26,.13-36.44-6.11-36.17-13.76,.26-7.46,16.14-13.49,35.5-13.63,19.38-.14,35.6,5.66,36.23,13.14Z"/><path class="o" d="M510.39,112.72c2.14-1.22,4.82-.25,11.08-1.11,6.13-.84,6.68-2.2,11.02-2.13,3.34,.05,3.16,.86,8.08,1.48,6.56,.83,9.22-.3,12.14,.94,1.77,.76,.84,1.19,3.22,3.09,1.96,1.56,3.01,1.6,7.41,4.14,4.16,2.41,4.51,3.11,4.39,3.69-.2,.94-1.62,1.58-2.92,2.17-3.45,1.55-6.1,1.14-7.08,2.21-1.26,1.37,2.39,2.75,1.29,3.81-1.52,1.47-8.9-.74-14.53,1.2-3.7,1.28-3.48,3.25-6.15,3.36-2.99,.12-3.57-2.34-8.44-3.27-3.6-.69-4.63,.4-10.41,.07-2.63-.15-7.29-.42-10.37-2.12-2.12-1.18-1.08-1.7-4.02-5.39-2.27-2.84-3.42-3.19-2.96-4.24,.73-1.67,4-1.55,6.19-3.73,2.02-2.02,.12-3.04,2.09-4.17Z"/><path class="p" d="M512.5,113.59c1.91-1.09,4.29-.23,9.88-.99,5.47-.75,5.95-1.96,9.83-1.9,2.98,.05,2.82,.77,7.21,1.32,5.85,.74,8.23-.27,10.82,.84,1.58,.67,.75,1.06,2.86,2.75,1.74,1.39,2.67,1.43,6.58,3.69,3.69,2.14,3.99,2.77,3.88,3.28-.18,.84-1.45,1.41-2.61,1.93-3.07,1.38-5.43,1.01-6.31,1.96-1.13,1.21,2.11,2.44,1.12,3.38-1.36,1.31-7.91-.66-12.91,1.06-3.29,1.13-3.1,2.88-5.47,2.98-2.65,.11-3.17-2.07-7.49-2.89-3.2-.61-4.11,.35-9.25,.06-2.34-.13-6.48-.37-9.22-1.88-1.89-1.05-.96-1.51-3.6-4.79-2.03-2.53-3.06-2.84-2.65-3.78,.64-1.49,3.56-1.38,5.5-3.32,1.8-1.8,.09-2.71,1.85-3.72Z"/><path class="m" d="M518.6,116.15c0,.29-.68,.53-1.52,.53-.84,0-1.52-.22-1.52-.51s.68-.53,1.52-.53c.84,0,1.52,.22,1.52,.51Z"/><path class="m" d="M545.81,115.58c.01,.29-.66,.53-1.5,.53s-1.53-.22-1.54-.51,.66-.53,1.5-.53,1.53,.22,1.54,.51Z"/><path class="m" d="M539.74,120.51c.01,.29-.67,.54-1.52,.54-.85,0-1.54-.23-1.55-.52s.67-.53,1.52-.54c.85,0,1.54,.23,1.55,.52Z"/><path class="m" d="M531.52,114.8c0,.29-.67,.53-1.51,.53-.84,0-1.52-.22-1.53-.51s.67-.52,1.51-.53,1.52,.22,1.53,.51Z"/><path class="m" d="M556.48,121.45c.02,.29-.66,.54-1.51,.54-.85,0-1.55-.23-1.57-.52s.66-.54,1.51-.54c.85,0,1.55,.23,1.57,.52Z"/><path class="m" d="M533.22,127.6c0,.3-.68,.55-1.54,.55-.86,0-1.56-.23-1.56-.53s.68-.55,1.54-.55,1.56,.23,1.56,.53Z"/><path class="m" d="M547.88,126.26c.01,.3-.67,.55-1.52,.55-.86,0-1.56-.23-1.57-.53s.67-.54,1.52-.55c.85,0,1.56,.23,1.57,.53Z"/><path class="m" d="M525.75,121.28c0,.29-.68,.54-1.53,.54-.85,0-1.54-.23-1.54-.52s.68-.54,1.53-.54c.85,0,1.54,.23,1.54,.52Z"/><path class="m" d="M517.4,125.31c0,.3-.69,.54-1.55,.55-.85,0-1.54-.23-1.54-.53s.69-.54,1.55-.55c.85,0,1.54,.23,1.54,.53Z"/></g><g><path class="q" d="M747.19,112.8c2.88,7.48-11.14,13.8-31.35,13.94-20.19,.14-38.18-5.95-40.16-13.43-1.92-7.29,12.18-13.19,31.48-13.34,19.32-.15,37.22,5.52,40.03,12.82Z"/><path class="o" d="M685.25,103.86c1.78-1.2,4.74-.25,10.74-1.09,5.88-.82,6.03-2.15,10.39-2.09,3.35,.05,3.41,.84,8.51,1.44,6.8,.81,9.13-.3,12.4,.91,1.99,.74,1.19,1.16,4.12,3.01,2.41,1.52,3.47,1.56,8.61,4.05,4.86,2.35,5.41,3.04,5.46,3.6,.08,.92-1.16,1.55-2.29,2.12-2.99,1.51-5.76,1.12-6.43,2.16-.86,1.33,3.19,2.68,2.4,3.72-1.09,1.44-9.11-.72-14.16,1.18-3.33,1.25-2.53,3.18-5.16,3.29-2.95,.12-4.25-2.28-9.38-3.19-3.79-.67-4.51,.39-10.38,.07-2.68-.15-7.4-.4-10.98-2.07-2.46-1.15-1.57-1.66-5.59-5.26-3.09-2.77-4.35-3.12-4.2-4.15,.24-1.64,3.55-1.52,5.09-3.64,1.43-1.97-.78-2.97,.87-4.07Z"/><path class="p" d="M687.62,104.71c1.58-1.07,4.22-.22,9.58-.97,5.24-.73,5.37-1.92,9.26-1.86,2.99,.05,3.04,.75,7.59,1.29,6.06,.72,8.14-.27,11.05,.82,1.77,.66,1.06,1.04,3.66,2.69,2.14,1.36,3.08,1.39,7.65,3.61,4.31,2.09,4.8,2.7,4.84,3.21,.06,.82-1.04,1.38-2.05,1.88-2.67,1.35-5.12,.99-5.73,1.92-.77,1.19,2.82,2.38,2.11,3.3-.98,1.28-8.09-.64-12.59,1.04-2.96,1.11-2.25,2.82-4.59,2.91-2.62,.11-3.77-2.02-8.33-2.82-3.37-.59-4.01,.35-9.22,.06-2.38-.13-6.58-.36-9.76-1.84-2.19-1.02-1.4-1.47-4.99-4.67-2.77-2.47-3.89-2.77-3.76-3.69,.21-1.46,3.15-1.35,4.52-3.25,1.27-1.76-.7-2.65,.76-3.64Z"/><path class="m" d="M694.46,107.2c.08,.28-.53,.52-1.36,.52s-1.58-.22-1.67-.5,.53-.51,1.36-.52c.84,0,1.58,.22,1.67,.5Z"/><path class="m" d="M721.48,106.64c.1,.28-.5,.51-1.34,.52-.84,0-1.6-.22-1.69-.5s.51-.51,1.34-.52c.84,0,1.59,.22,1.69,.5Z"/><path class="m" d="M716.85,111.45c.1,.29-.51,.52-1.36,.53-.84,0-1.61-.22-1.7-.51s.51-.52,1.36-.53,1.6,.22,1.7,.51Z"/><path class="m" d="M706.97,105.87c.09,.28-.52,.51-1.35,.52s-1.59-.22-1.67-.5c-.09-.28,.52-.51,1.35-.52,.84,0,1.58,.22,1.67,.5Z"/><path class="m" d="M733.85,112.36c.1,.29-.5,.53-1.35,.53s-1.62-.22-1.72-.51c-.1-.29,.5-.52,1.35-.53,.85,0,1.62,.22,1.72,.51Z"/><path class="m" d="M712.41,118.38c.09,.29-.52,.54-1.38,.54s-1.62-.23-1.72-.52c-.09-.29,.52-.53,1.38-.54,.85,0,1.62,.23,1.72,.52Z"/><path class="m" d="M726.66,117.07c.1,.29-.51,.53-1.36,.54s-1.63-.23-1.73-.52,.51-.53,1.36-.54c.85,0,1.62,.23,1.73,.52Z"/><path class="m" d="M703.11,112.22c.09,.29-.52,.52-1.37,.53s-1.6-.22-1.69-.51c-.09-.29,.53-.52,1.37-.53s1.6,.22,1.69,.51Z"/><path class="m" d="M695.95,116.16c.09,.29-.53,.53-1.38,.54-.85,0-1.61-.22-1.69-.52s.54-.53,1.38-.54c.85,0,1.61,.22,1.69,.51Z"/></g></g><g><path d="M315.03,74.84c-1.33,3.62-10.6,6.65-20.69,6.74-10.08,.08-16.97-2.82-15.41-6.43s10.76-6.5,20.61-6.58c9.86-.08,16.8,2.71,15.49,6.28Z"/><path class="n" d="M311.14,74.09c-1.08,2.87-7.85,5.27-15.12,5.33-7.26,.06-12.16-2.24-10.95-5.11,1.2-2.84,7.94-5.18,15.07-5.24,7.13-.06,12.06,2.17,11,5.02Z"/><path class="j" d="M304.35,74.93c-.57,1.47-4.36,2.7-8.45,2.74s-6.92-1.14-6.31-2.61c.61-1.47,4.38-2.68,8.44-2.71,4.06-.03,6.89,1.12,6.32,2.59Z"/><path d="M506.66,51.47c-.08,3.35-8.09,6.16-17.88,6.25-9.79,.09-17.48-2.59-17.18-5.93,.29-3.3,8.28-6.02,17.86-6.11,9.58-.09,17.28,2.49,17.2,5.8Z"/><path class="n" d="M502.63,50.79c-.08,2.66-5.87,4.88-12.93,4.95-7.05,.06-12.6-2.06-12.39-4.72,.21-2.63,5.99-4.8,12.91-4.86s12.48,2,12.4,4.63Z"/><path class="j" d="M496.29,51.57c-.06,1.36-3.33,2.5-7.31,2.54-3.98,.04-7.12-1.05-7.03-2.41s3.36-2.48,7.3-2.52c3.94-.04,7.09,1.03,7.03,2.39Z"/><path d="M426.28,88.31c-.62,3.82-9.59,7.01-20.01,7.09-10.42,.08-18.14-2.98-17.27-6.8,.86-3.76,9.79-6.85,19.96-6.93,10.17-.08,17.93,2.87,17.32,6.63Z"/><path class="n" d="M422.11,87.52c-.52,3.03-7.03,5.56-14.53,5.62-7.5,.06-13.04-2.37-12.38-5.4s7.14-5.45,14.5-5.51c7.36-.06,12.92,2.3,12.41,5.3Z"/><path class="j" d="M415.26,88.4c-.28,1.55-3.94,2.85-8.18,2.88s-7.39-1.21-7.07-2.76,3.98-2.82,8.17-2.85c4.19-.03,7.36,1.19,7.08,2.73Z"/><path d="M585.17,117.39c.47,4.25-8.13,7.79-19.22,7.87-11.08,.08-20.21-3.35-20.4-7.59-.19-4.18,8.41-7.6,19.21-7.68,10.8-.08,19.94,3.21,20.4,7.39Z"/><path class="n" d="M580.49,116.5c.35,3.37-5.84,6.17-13.82,6.23s-14.59-2.66-14.78-6.03c-.18-3.33,6-6.05,13.82-6.11,7.82-.06,14.44,2.57,14.78,5.9Z"/><path class="j" d="M573.45,117.47c.16,1.73-3.36,3.16-7.86,3.19-4.5,.03-8.23-1.35-8.34-3.08-.11-1.72,3.41-3.13,7.86-3.16,4.45-.03,8.19,1.33,8.34,3.05Z"/><path d="M698.27,128.24c1.3,4.42-6.85,8.11-18.23,8.19-11.37,.07-21.4-3.49-22.41-7.91-.99-4.36,7.19-7.9,18.26-7.98,11.08-.08,21.1,3.35,22.38,7.71Z"/><path class="n" d="M693.29,127.32c1.01,3.51-4.81,6.43-13,6.48-8.18,.05-15.5-2.77-16.34-6.28-.83-3.47,5-6.29,13.02-6.35,8.02-.06,15.32,2.68,16.32,6.15Z"/><path class="j" d="M686.25,128.33c.49,1.8-2.84,3.29-7.46,3.32-4.61,.03-8.72-1.41-9.16-3.21-.44-1.79,2.9-3.26,7.46-3.29,4.57-.03,8.66,1.39,9.16,3.18Z"/><path d="M694,75.4c1.16,3.69-6.31,6.78-16.69,6.86-10.37,.08-19.53-2.87-20.44-6.56-.9-3.64,6.58-6.62,16.71-6.7,10.13-.09,19.27,2.76,20.42,6.4Z"/><path class="n" d="M689.46,74.64c.9,2.93-4.43,5.37-11.9,5.43-7.47,.06-14.15-2.28-14.9-5.21-.75-2.9,4.59-5.27,11.92-5.33,7.33-.06,14,2.21,14.88,5.11Z"/><path class="j" d="M683.02,75.49c.44,1.5-2.61,2.75-6.83,2.79-4.21,.03-7.95-1.16-8.36-2.66s2.66-2.73,6.83-2.76c4.17-.03,7.91,1.14,8.35,2.64Z"/><path d="M628.98,51.84c.7,3.37-6.75,6.21-16.65,6.29-9.89,.09-18.28-2.61-18.75-5.98-.47-3.33,6.99-6.07,16.65-6.15,9.67-.09,18.06,2.51,18.75,5.84Z"/><path class="n" d="M624.73,51.15c.53,2.68-4.81,4.92-11.93,4.98-7.12,.06-13.22-2.08-13.63-4.75s4.95-4.83,11.94-4.89c7-.06,13.09,2.01,13.62,4.66Z"/><path class="j" d="M618.51,51.94c.26,1.37-2.79,2.52-6.81,2.56-4.02,.04-7.45-1.05-7.67-2.43s2.83-2.5,6.81-2.53c3.98-.04,7.41,1.04,7.67,2.4Z"/><path d="M342.77,138.7c-1.28,4.51-11.5,8.28-22.8,8.35-11.29,.07-19.14-3.57-17.56-8.08,1.55-4.44,11.71-8.06,22.71-8.13s18.92,3.42,17.65,7.87Z"/><path class="n" d="M338.39,137.76c-1.05,3.58-8.5,6.56-16.63,6.61-8.13,.05-13.72-2.84-12.51-6.42,1.2-3.54,8.61-6.42,16.58-6.47,7.96-.05,13.59,2.74,12.56,6.28Z"/><path class="j" d="M330.84,138.78c-.56,1.84-4.73,3.36-9.31,3.39-4.58,.03-7.8-1.44-7.19-3.28,.6-1.83,4.76-3.32,9.3-3.35,4.53-.03,7.76,1.42,7.21,3.24Z"/><path d="M493.5,159.12c-.19,4.84-9.92,8.88-21.71,8.95-11.79,.07-20.91-3.86-20.4-8.7,.5-4.77,10.2-8.64,21.67-8.71,11.48-.07,20.64,3.69,20.45,8.46Z"/><path class="n" d="M488.68,158.1c-.18,3.84-7.22,7.03-15.7,7.08-8.48,.05-15.06-3.06-14.7-6.9,.36-3.8,7.38-6.88,15.68-6.93,8.31-.05,14.9,2.95,14.72,6.75Z"/><path class="j" d="M481.05,159.19c-.12,1.97-4.09,3.6-8.87,3.63s-8.52-1.56-8.35-3.53c.17-1.96,4.14-3.56,8.87-3.59,4.73-.03,8.47,1.53,8.36,3.49Z"/></g><g><path class="f" d="M290.56,129.58c4.73-5.57,1.19-10.43-5.24-11.47-7.51-1.21-22.04,2.32-27.43,9.37-13.42,1.7-21.86,7.68-20.63,11.29,1.27,3.71,13.26,6.28,26.68,2.93,9.47,4.3,24.48,2.48,29.99-1.3,4.38-3.01,3.59-7.83-3.37-10.83Zm.86,9.86c-4.8,3.33-17.78,4.94-25.93,1.15-11.61,2.95-21.97,.69-23.06-2.59-1.06-3.19,6.26-8.5,17.9-10,4.72-6.27,17.35-9.41,23.86-8.33,5.57,.92,8.58,5.25,4.43,10.19,5.99,2.66,6.62,6.93,2.8,9.59Z"/><path class="v" d="M288.62,129.85c4.16-4.94,1.14-9.27-4.43-10.19-6.51-1.08-19.15,2.06-23.86,8.33-11.64,1.5-18.96,6.81-17.9,10,1.09,3.28,11.45,5.55,23.06,2.59,8.16,3.79,21.14,2.19,25.93-1.15,3.82-2.66,3.2-6.93-2.8-9.59Zm.19,8.7c-4.21,2.91-15.56,4.31-22.69,1-10.15,2.58-19.22,.6-20.19-2.26-.95-2.79,5.45-7.44,15.65-8.76,4.13-5.51,15.23-8.28,20.95-7.32,4.89,.81,7.52,4.62,3.86,8.96,5.24,2.33,5.77,6.07,2.42,8.39Z"/><path class="u" d="M287.2,130.16c3.8-4.53,1.08-8.49-3.98-9.34-5.91-.99-17.4,1.89-21.7,7.63-10.57,1.38-17.21,6.23-16.24,9.14,.99,2.99,10.38,5.06,20.9,2.37,7.38,3.46,19.14,2,23.5-1.04,3.48-2.42,2.94-6.33-2.49-8.76Zm.13,7.95c-3.82,2.66-14.11,3.93-20.57,.91-9.2,2.35-17.42,.55-18.3-2.07-.86-2.55,4.94-6.8,14.2-8.01,3.76-5.05,13.85-7.58,19.05-6.71,4.44,.75,6.81,4.23,3.46,8.21,4.74,2.13,5.2,5.55,2.15,7.67Z"/><path class="f" d="M342.64,78.99c6.79-3.33,8.16-7.99,5.07-10.27-3.59-2.65-14.61-3.1-22.69,1.24-8.89-1.65-17.81,1.13-19.59,4.2-1.83,3.15,3.17,7.83,13.15,8.27,2.45,5.51,12.45,7.56,18.35,5.88,4.72-1.35,7.7-5.34,5.71-9.31Zm-6.5,7.96c-5.17,1.5-13.83-.24-15.89-5.06-8.69-.34-13-4.42-11.36-7.2,1.6-2.71,9.44-5.21,17.19-3.8,7.14-3.87,16.78-3.53,19.86-1.21,2.65,1.99,1.35,6.11-4.64,9.06,1.65,3.47-1.02,6.99-5.16,8.19Z"/><path class="v" d="M341.29,78.76c5.99-2.96,7.29-7.07,4.64-9.06-3.08-2.32-12.72-2.66-19.86,1.21-7.75-1.41-15.59,1.09-17.19,3.8-1.64,2.78,2.67,6.86,11.36,7.2,2.05,4.82,10.72,6.56,15.89,5.06,4.14-1.2,6.81-4.72,5.16-8.19Zm-6.07,6.9c-4.52,1.31-12.09-.21-13.9-4.41-7.61-.29-11.4-3.87-9.97-6.31,1.39-2.38,8.26-4.57,15.07-3.33,6.27-3.4,14.73-3.1,17.43-1.06,2.32,1.75,1.16,5.36-4.09,7.95,1.44,3.04-.91,6.11-4.53,7.16Z"/><path class="u" d="M340.24,78.68c5.47-2.71,6.69-6.47,4.3-8.28-2.79-2.11-11.56-2.41-18.09,1.14-7.05-1.28-14.2,1.02-15.66,3.5-1.5,2.54,2.4,6.25,10.31,6.54,1.84,4.38,9.7,5.95,14.4,4.57,3.77-1.1,6.22-4.3,4.75-7.47Zm-5.56,6.29c-4.11,1.2-10.98-.17-12.6-3.99-6.92-.25-10.35-3.51-9.05-5.73,1.28-2.17,7.54-4.19,13.73-3.07,5.73-3.12,13.43-2.86,15.87-1,2.09,1.59,1.01,4.89-3.79,7.26,1.28,2.77-.87,5.56-4.17,6.53Z"/><path class="f" d="M508.26,142.84c-7.88,3.68-8.59,10.24-3.97,14.11,5.5,4.61,20.53,7.09,29.85,1.68,12.66,3.95,23.45,1.08,24.38-3.26,.93-4.35-7.7-11.75-20.66-13.81-5.08-7.77-18.1-11.81-24.89-10.44-5.48,1.11-8.21,5.99-4.71,11.71Zm6.05-9.84c5.97-1.25,17.3,2.23,21.61,9.06,11.28,1.73,18.65,8.17,17.75,11.99-.9,3.8-10.34,6.37-21.29,3-8.2,4.78-21.25,2.72-25.98-1.28-3.98-3.37-3.29-9.12,3.64-12.41-2.99-5.02-.54-9.34,4.28-10.36Z"/><path class="v" d="M510.03,143.36c-6.93,3.29-7.63,9.05-3.64,12.41,4.73,4,17.78,6.06,25.98,1.28,10.94,3.37,20.39,.8,21.29-3,.9-3.82-6.47-10.26-17.75-11.99-4.31-6.82-15.64-10.31-21.61-9.06-4.81,1.01-7.26,5.34-4.28,10.36Zm5.76-8.52c5.24-1.11,15.2,1.97,18.98,7.97,9.89,1.52,16.32,7.17,15.51,10.51-.8,3.32-9.07,5.57-18.63,2.63-7.17,4.17-18.58,2.37-22.74-1.12-3.5-2.94-2.91-7.99,3.15-10.87-2.64-4.41-.5-8.22,3.73-9.11Z"/><path class="u" d="M511.4,143.63c-6.31,3.01-6.96,8.26-3.35,11.31,4.28,3.62,16.12,5.47,23.6,1.11,9.91,3.04,18.51,.68,19.35-2.78,.85-3.48-5.79-9.33-16.04-10.88-3.88-6.22-14.19-9.39-19.63-8.23-4.39,.94-6.64,4.9-3.93,9.47Zm5.28-7.79c4.78-1.02,13.84,1.77,17.24,7.24,8.98,1.36,14.79,6.5,14.02,9.54-.76,3.02-8.28,5.08-16.94,2.43-6.54,3.81-16.89,2.2-20.65-.97-3.17-2.67-2.63-7.27,2.9-9.91-2.39-4.02-.42-7.51,3.43-8.33Z"/><path class="f" d="M426.11,122.38c-.15-5.65-7.66-8.72-14.76-8-8.36,.85-19.6,7.31-18.84,14.42-11.85,4.79-15.06,11.85-10.68,14.48,4.49,2.69,18.56,1.68,28.82-4.47,12.82,1.06,25.68-4.18,27.76-8.57,1.65-3.49-3.12-7.16-12.3-7.87Zm9.09,7.71c-1.79,3.86-12.89,8.41-24.01,7.42-8.81,5.35-20.98,6.18-24.9,3.79-3.83-2.33-1.16-8.53,9.06-12.7-.76-6.29,8.95-11.97,16.21-12.69,6.18-.61,12.74,2.16,12.91,7.16,7.98,.67,12.15,3.94,10.73,7.02Z"/><path class="v" d="M424.48,123.08c-.17-5.01-6.73-7.77-12.91-7.16-7.26,.71-16.97,6.39-16.21,12.69-10.22,4.17-12.89,10.37-9.06,12.7,3.92,2.39,16.09,1.56,24.9-3.79,11.12,.99,22.23-3.56,24.01-7.42,1.42-3.07-2.75-6.35-10.73-7.02Zm7.5,6.95c-1.58,3.38-11.31,7.36-21.04,6.49-7.7,4.67-18.33,5.39-21.77,3.31-3.36-2.03-1.05-7.46,7.89-11.11-.68-5.53,7.83-10.52,14.22-11.15,5.43-.54,11.19,1.9,11.32,6.3,7,.59,10.64,3.46,9.38,6.15Z"/><path class="u" d="M423.37,123.67c-.16-4.58-6.13-7.13-11.75-6.58-6.61,.64-15.4,5.83-14.68,11.58-9.25,3.79-11.63,9.44-8.15,11.57,3.57,2.18,14.59,1.45,22.56-3.41,10.09,.92,20.15-3.21,21.77-6.73,1.29-2.8-2.5-5.81-9.75-6.43Zm6.82,6.37c-1.43,3.08-10.25,6.69-19.08,5.89-6.97,4.24-16.6,4.88-19.73,2.98-3.06-1.86-1-6.8,7.1-10.12-.65-5.05,7.07-9.61,12.87-10.18,4.94-.48,10.18,1.76,10.31,5.79,6.36,.55,9.67,3.18,8.53,5.64Z"/><path class="f" d="M474.27,69.31c-5.44,3.89-3.71,8.82,1.61,10.96,6.3,2.54,19.87,2.08,25.84-3.25,11.92,.98,19.91-2.68,19.21-5.96-.7-3.29-10.4-7.42-21.98-7.04-7-4.97-19.49-6.06-24.81-4.06-4.3,1.62-4.91,5.64,.13,9.34Zm1.68-8.16c4.65-1.8,15.51-.87,21.53,3.51,10.07-.38,18.43,3.24,18.97,6.15,.54,2.89-6.44,6.15-16.76,5.32-5.25,4.7-17,5.16-22.44,2.95-4.59-1.87-6.05-6.21-1.29-9.66-4.34-3.26-3.78-6.82-.02-8.27Z"/><path class="v" d="M475.97,69.42c-4.76,3.45-3.31,7.79,1.29,9.66,5.43,2.21,17.19,1.75,22.44-2.95,10.32,.82,17.31-2.44,16.76-5.32-.55-2.9-8.9-6.52-18.97-6.15-6.02-4.38-16.87-5.31-21.53-3.51-3.76,1.45-4.32,5.01,.02,8.27Zm1.91-7.13c4.08-1.58,13.62-.77,18.9,3.09,8.84-.33,16.15,2.85,16.61,5.39,.46,2.53-5.67,5.38-14.69,4.66-4.59,4.11-14.87,4.51-19.63,2.58-4.03-1.63-5.31-5.43-1.15-8.45-3.82-2.86-3.34-5.99-.04-7.27Z"/><path class="u" d="M477.23,69.42c-4.33,3.16-3.02,7.11,1.14,8.81,4.92,2,15.57,1.57,20.36-2.72,9.35,.74,15.71-2.24,15.24-4.88-.47-2.65-8.03-5.95-17.18-5.59-5.45-4-15.32-4.84-19.55-3.18-3.42,1.33-3.94,4.59,0,7.56Zm1.75-6.52c3.72-1.45,12.39-.72,17.16,2.8,8.03-.31,14.65,2.58,15.05,4.9,.4,2.31-5.18,4.91-13.36,4.27-4.19,3.75-13.5,4.12-17.81,2.38-3.65-1.48-4.81-4.94-1.02-7.71-3.46-2.61-3.02-5.47-.02-6.64Z"/><g><path class="f" d="M742.52,79.35c1.15-4.69-5.23-9.03-12.05-10.13-7.97-1.29-19.77,1.33-20.62,7.29-11.82,1.05-16.23,5.97-12.84,9.13,3.48,3.25,16.53,5.85,27.34,3.39,11.71,4.02,25.02,2.93,28.02-.17,2.39-2.47-1.31-6.68-9.84-9.51Zm6.84,8.58c-2.58,2.74-14.07,3.71-24.21,.16-9.32,2.19-20.62-.11-23.67-2.98-2.97-2.8,.79-7.16,11.03-8.1,.69-5.3,10.9-7.63,17.83-6.49,5.93,.98,11.47,4.83,10.49,9,7.39,2.5,10.6,6.23,8.54,8.41Z"/><path class="v" d="M740.82,79.53c.98-4.16-4.56-8.02-10.49-9-6.93-1.14-17.14,1.19-17.83,6.49-10.24,.94-14,5.3-11.03,8.1,3.05,2.87,14.35,5.16,23.67,2.98,10.14,3.54,21.63,2.57,24.21-.16,2.06-2.18-1.15-5.91-8.54-8.41Zm5.49,7.56c-2.27,2.39-12.32,3.24-21.18,.14-8.15,1.91-18.05-.09-20.73-2.6-2.61-2.45,.66-6.27,9.64-7.1,.59-4.66,9.56-6.71,15.64-5.71,5.2,.86,10.06,4.25,9.19,7.91,6.47,2.19,9.25,5.45,7.44,7.36Z"/><path class="u" d="M739.64,79.75c.89-3.81-4.15-7.35-9.53-8.24-6.3-1.05-15.57,1.1-16.17,5.95-9.29,.86-12.67,4.86-9.97,7.41,2.78,2.62,13.03,4.71,21.47,2.71,9.19,3.23,19.6,2.34,21.94-.15,1.87-1.99-1.03-5.4-7.74-7.68Zm4.98,6.91c-2.06,2.18-11.16,2.96-19.2,.14-7.38,1.74-16.36-.08-18.8-2.37-2.38-2.24,.57-5.74,8.71-6.49,.52-4.27,8.66-6.15,14.19-5.23,4.73,.79,9.14,3.89,8.35,7.24,5.87,2,8.39,4.98,6.75,6.72Z"/></g><g><path class="f" d="M459.69,44.22c1.39-3.46-3.33-5.94-8.75-6.06-6.35-.14-16.21,2.91-17.43,7.28-9.75,1.94-13.76,5.9-11.25,7.82,2.57,1.96,12.93,2.48,21.89-.35,9.04,1.66,19.79-.44,22.49-2.92,2.15-1.98-.38-4.6-6.94-5.76Zm4.63,5.41c-2.33,2.19-11.63,4.02-19.45,2.54-7.73,2.49-16.69,2-18.93,.27-2.19-1.69,1.25-5.2,9.68-6.89,1.03-3.87,9.56-6.56,15.08-6.42,4.7,.12,8.8,2.33,7.61,5.4,5.69,1.04,7.88,3.37,6.02,5.11Z"/><path class="v" d="M458.3,44.51c1.2-3.07-2.9-5.28-7.61-5.4-5.51-.14-14.05,2.55-15.08,6.42-8.43,1.7-11.87,5.2-9.68,6.89,2.24,1.73,11.2,2.22,18.93-.27,7.83,1.49,17.12-.35,19.45-2.54,1.86-1.75-.33-4.07-6.02-5.11Zm3.66,4.82c-2.05,1.91-10.19,3.52-17.04,2.22-6.76,2.17-14.6,1.75-16.57,.24-1.92-1.48,1.08-4.55,8.46-6.04,.9-3.4,8.38-5.76,13.23-5.64,4.13,.1,7.72,2.05,6.66,4.74,4.98,.92,6.89,2.95,5.26,4.48Z"/><path class="u" d="M457.33,44.78c1.09-2.81-2.63-4.84-6.91-4.95-5.01-.13-12.75,2.33-13.68,5.87-7.64,1.55-10.75,4.74-8.76,6.29,2.04,1.58,10.16,2.03,17.16-.23,7.09,1.36,15.52-.31,17.64-2.3,1.69-1.59-.29-3.72-5.45-4.68Zm3.32,4.41c-1.86,1.75-9.24,3.2-15.45,2.01-6.12,1.98-13.23,1.59-15.02,.2-1.75-1.35,.96-4.15,7.65-5.51,.8-3.11,7.6-5.27,12-5.16,3.75,.1,7.01,1.88,6.05,4.35,4.52,.84,6.25,2.7,4.77,4.1Z"/></g><path class="f" d="M604.34,96.66c5.2-4.04,2.68-9.33-3.05-11.75-6.67-2.81-20.33-2.83-26.22,2.38-12.19-1.46-20.5,2.06-19.94,5.58,.57,3.63,10.78,8.68,23.24,8.73,7.88,6.11,21.79,7.97,27.41,5.8,4.49-1.74,4.5-6.37-1.44-10.75Zm-.72,9.27c-4.89,1.93-16.92,.36-23.69-4.99-10.81,.01-19.65-4.4-20.13-7.61-.47-3.12,6.78-6.27,17.38-5.03,5.17-4.65,17.07-4.69,22.84-2.22,4.96,2.12,7.07,6.79,2.5,10.38,5.09,3.84,5.02,7.92,1.1,9.46Z"/><path class="v" d="M602.52,96.46c4.57-3.59,2.46-8.27-2.5-10.38-5.77-2.46-17.67-2.43-22.84,2.22-10.6-1.25-17.85,1.91-17.38,5.03,.48,3.2,9.32,7.62,20.13,7.61,6.78,5.35,18.8,6.92,23.69,4.99,3.91-1.55,3.99-5.63-1.1-9.46Zm-1.15,8.04c-4.28,1.68-14.79,.31-20.72-4.35-9.46,.01-17.22-3.85-17.66-6.66-.43-2.74,5.93-5.51,15.23-4.41,4.53-4.09,14.98-4.12,20.05-1.95,4.35,1.86,6.18,5.96,2.16,9.11,4.45,3.36,4.36,6.92,.93,8.27Z"/><path class="u" d="M601.18,96.41c4.17-3.29,2.28-7.56-2.21-9.49-5.24-2.25-16.06-2.2-20.77,2.07-9.64-1.13-16.23,1.77-15.81,4.62,.44,2.93,8.46,6.94,18.27,6.91,6.13,4.86,17.02,6.27,21.47,4.51,3.56-1.41,3.65-5.13-.94-8.63Zm-1.09,7.33c-3.89,1.54-13.41,.31-18.77-3.94-8.59,.02-15.63-3.49-16.02-6.05-.39-2.5,5.39-5.05,13.85-4.06,4.13-3.76,13.64-3.8,18.23-1.82,3.94,1.7,5.58,5.45,1.92,8.33,4.02,3.06,3.92,6.31,.8,7.54Z"/></g><g><path class="h" d="M623.05,99.61c-.14-1.86-.02-5.38,2.86-8.75,4.3-5.04,11.94-6.37,15.65-7.01,11.47-2,22.2,.88,26.02,2.04-.22,1.89-1.66,11.55-13.88,16.26-2.6,1-8.65,3.34-17.17,2.2-6.73-.9-11.46-3.49-13.48-4.74Z"/><path class="y" d="M627.74,95c.74-1.39,3.77-6.56,12.39-9.22,9.82-3.03,19.8-.56,21.64-.08-4.21-.02-10.37,.3-17.1,1.94-8.35,2.04-13.85,5.23-16.92,7.36Z"/><path class="g" d="M667.28,85.94c-4.22,2.74-10.72,6.28-19.84,9.18-9.24,2.93-17.79,4.13-23.96,4.64,2.2,.69,13.82,4.13,26.27,.64,13.91-3.9,17.12-13.18,17.53-14.46Z"/><path class="h" d="M359.43,100.23c.88,1.42,2.2,4.3,.84,8.02-2.1,5.74-9.1,9.53-12.54,11.4-10.81,5.86-22.68,7-26.92,7.28-.34-1.83-1.69-10.88,8.75-18.86,2.17-1.66,7.13-5.45,15.5-7.26,6.6-1.43,11.99-.9,14.38-.57Z"/><path class="y" d="M356.83,105.44c-.15,1.38-1.01,6.74-8.42,11.99-8.7,6.15-19.63,7.4-21.64,7.61,4.26-1.46,10.35-3.9,16.45-7.69,7.44-4.62,11.52-9.15,13.61-11.91Z"/><path class="g" d="M321.1,126.76c3.44-3.99,8.8-9.38,16.77-14.93,7.85-5.47,15.51-9.2,21.1-11.59-2.33,.16-14.47,1.15-25.07,7.95-12.28,7.88-12.76,17.24-12.79,18.56Z"/><path class="h" d="M431.21,69.88c-1.49-.79-4.09-2.43-4.83-4.86-1.11-3.65,2.71-6.62,4.56-8.05,5.68-4.41,14.44-6.29,17.62-6.9,1.24,.94,7.34,5.76,3.38,11.54-.85,1.24-2.82,4.11-8.84,6.21-4.81,1.68-9.68,1.98-11.89,2.05Z"/><path class="y" d="M430.68,66.33c-.59-.86-2.59-4.16,.82-8.03,3.88-4.39,11.89-6.25,13.37-6.58-2.6,1.25-6.18,3.25-9.13,6.05-3.69,3.49-4.74,6.65-5.06,8.56Z"/><path class="g" d="M448.41,50.19c-.58,2.51-1.95,6.08-5.41,10.15-3.53,4.15-7.94,7.32-11.41,9.47,1.89-.38,11.64-2.43,16.69-7.79,5.59-5.94,.82-11.12,.13-11.83Z"/><g><path class="h" d="M480.31,142.52c-2.73-.26-7.87-.97-12.36-3.21-6.75-3.37-7.37-7.89-7.67-10.06-.91-6.66,5.15-11.78,7.45-13.55,2.68,.52,16.09,3.27,20.86,10.62,1.02,1.57,3.4,5.24,.57,9.63-2.28,3.52-6.73,5.67-8.85,6.57Z"/><path class="y" d="M474.34,139.05c-1.91-.67-9.03-3.34-11.46-8.63-2.74-5.98,2.6-10.82,3.6-11.7-.73,2.23-1.33,5.6-.08,9.58,1.57,4.98,5.33,8.64,7.93,10.75Z"/><path class="g" d="M467.76,115.87c3.23,2.79,7.25,6.96,9.94,12.41,2.75,5.57,3.13,10.5,2.9,14.03,1.34-1.1,8.03-6.87,4.96-14.23-3.38-8.11-16.03-11.72-17.8-12.21Z"/></g><g><path class="h" d="M614.13,144.57c-.49-1.79-1.08-5.22,.78-8.65,2.79-5.14,9.25-6.87,12.39-7.7,9.68-2.58,19.64-.39,23.2,.52,.17,1.85,.76,11.28-9,16.53-2.08,1.12-6.92,3.72-14.6,3.12-6.08-.48-10.74-2.72-12.77-3.81Z"/><path class="y" d="M617.35,139.83c.37-1.39,2.02-6.59,9.07-9.66,8.03-3.49,17.26-1.65,18.95-1.29-3.68,.22-9.03,.87-14.61,2.85-6.94,2.46-11.14,5.87-13.42,8.1Z"/><path class="g" d="M650.24,128.8c-3.16,2.89-8.17,6.69-15.59,10.02-7.52,3.37-14.8,5.02-20.11,5.87,2.07,.54,12.94,3.2,23.16-.89,11.4-4.56,12.43-13.74,12.54-15Z"/></g><g><path class="h" d="M469.75,95.49c-1.01,1.34-3.35,3.93-8.52,6.43-7.93,3.84-16.99,4.81-21.41,5.29-13.76,1.49-22.89-.87-25.99-1.8,1.76-1.46,10.72-8.64,26.5-11.93,3.31-.69,10.94-2.28,18.74-1.43,6.2,.67,9.38,2.54,10.68,3.45Z"/><path class="y" d="M462.01,98.81c-1.67,1.02-8.31,4.91-19.27,6.9-12.7,2.3-21.38,.27-22.94-.11,4.43,.05,11.18-.15,19.5-1.37,10.23-1.5,18.13-3.86,22.71-5.42Z"/><path class="g" d="M414.19,105.36c6.6-2.07,16.08-4.7,27.6-6.78,11.48-2.07,21-2.88,27.61-3.21-1.82-.51-11.4-3.02-26.28-.64-16.95,2.71-27.47,9.64-28.93,10.63Z"/></g><g><path class="h" d="M546.82,66.67c-1.39-1.19-3.75-3.58-3.93-6.72-.28-4.69,4.51-7.9,6.81-9.44,7.09-4.75,16.84-5.98,20.36-6.33,1.11,1.32,6.5,8.11,.9,14.83-1.2,1.44-3.99,4.8-10.95,6.65-5.55,1.47-10.83,1.21-13.19,1.01Z"/><path class="y" d="M547.13,62.15c-.41-1.15-1.73-5.54,2.84-9.92,5.17-4.96,14.13-6.25,15.78-6.48-3.06,1.23-7.34,3.26-11.15,6.36-4.77,3.88-6.65,7.68-7.47,10.04Z"/><path class="g" d="M569.88,44.3c-1.2,3.05-3.51,7.31-8.18,11.95-4.76,4.73-10.24,8.14-14.46,10.39,2.11-.22,13.02-1.52,19.7-7.59,7.38-6.71,3.5-13.78,2.94-14.75Z"/></g><g><path class="h" d="M284.57,100.69c-2.26,1.04-6.82,2.89-12.84,3.7-9.17,1.23-15.32-.83-18.3-1.82-9.18-3.06-11.12-8.39-11.61-10.32,2.7-.88,16.26-5.16,28.87-3.35,2.68,.38,8.87,1.27,12.18,4.7,2.65,2.75,2.11,5.73,1.7,7.09Z"/><path class="y" d="M276.05,101.48c-2.21,.48-10.74,2.21-19.19,.55-9.66-1.9-11.78-6.76-12.13-7.65,2.29,1.49,6.12,3.5,12.1,5.02,7.43,1.89,14.73,2.13,19.22,2.09Z"/><path class="g" d="M242.06,92.33c6.01,.07,14.3,.52,23.11,2.2,8.9,1.69,15.21,4.05,19.35,5.93-.39-1.13-2.64-6.89-13.86-9.38-12.56-2.78-26.63,.74-28.6,1.25Z"/></g><g><path class="h" d="M380.86,75.34c-2.33,.3-6.84,.71-11.57-.12-7.14-1.25-9.83-4.45-11.13-6-3.98-4.74-1.46-9.61-.41-11.31,2.46-.09,14.78-.4,22.14,4.16,1.57,.97,5.23,3.23,5,6.92-.18,2.96-2.76,5.32-4.04,6.36Z"/><path class="y" d="M374.38,73.88c-1.87-.15-8.97-.82-13.51-4.27-5.15-3.91-3.09-8.44-2.69-9.26,.47,1.78,1.61,4.37,4.56,7.07,3.69,3.38,8.51,5.38,11.63,6.45Z"/><path class="g" d="M357.86,58.02c4.01,1.5,9.31,3.86,14.12,7.39,4.89,3.59,7.53,7.11,9.01,9.72,.56-1.04,3.24-6.42-2.72-11.25-6.61-5.36-18.72-5.81-20.41-5.85Z"/></g></g></g></g></g></svg>