<?xml version="1.0" encoding="UTF-8"?><svg xmlns="http://www.w3.org/2000/svg" width="179.6" height="179.76" xmlns:xlink="http://www.w3.org/1999/xlink" viewBox="0 0 179.6 179.76"><defs><style>.e{fill:#693213;}.f{fill:#fff;}.g{fill:#81503b;}.h{clip-path:url(#d);}</style><clipPath id="d"><circle class="g" cx="89.8" cy="89.8" r="89.78"/></clipPath></defs><g id="a"/><g id="b"><g id="c"><g><g><circle class="g" cx="89.8" cy="89.8" r="89.78"/><g class="h"><path class="f" d="M111.77,147.14c-5.19,1.89-10.93-.78-12.82-5.96s.78-10.93,5.96-12.82c11.47-4.19,20.16-13.76,23.24-25.6,3.15-12.11-.04-24.85-8.74-34.93-6.32-7.33-15.5-11.6-25.18-11.71-13.33-.16-25.12,5.6-32.35,15.82-7.07,9.98-8.8,22.79-4.61,34.26,1.89,5.19-.78,10.93-5.96,12.82s-10.93-.78-12.82-5.96c-6.44-17.64-3.79-37.34,7.08-52.68,11.09-15.65,28.92-24.49,48.91-24.25,15.41,.19,30.01,6.98,40.08,18.65,13.06,15.14,17.79,34.47,12.96,53.03-4.73,18.2-18.09,32.91-35.74,39.35Z"/><path class="f" d="M53.43,133.47c1.4-.18,2.7-1.1,3.22-2.63l1.16-3.42,6.33-18.7,6.49-19.18c.48-1.43,.1-2.85-.77-3.84s-2.23-1.55-3.71-1.25l-3.08,.62-19.25,3.85-20.42,4.09c-1.48,.3-2.52,1.34-2.94,2.58s-.23,2.71,.77,3.84l2.04,2.32,11.1,12.63"/></g></g><path class="e" d="M89.8,.2C40.21,.2,.02,40.4,.02,89.98s40.2,89.78,89.78,89.78,89.78-40.2,89.78-89.78S139.38,.2,89.8,.2Zm-7.52,171.26C37.14,171.47,.55,134.88,.55,89.74S37.14,8.02,82.28,8.02s81.73,36.59,81.73,81.73-36.59,81.73-81.73,81.73Z"/></g></g></g></svg>