<?xml version="1.0" encoding="UTF-8"?><svg xmlns="http://www.w3.org/2000/svg" width="107" height="107" xmlns:xlink="http://www.w3.org/1999/xlink" viewBox="0 0 107 107"><defs><style>.e{fill:#693213;}.f{fill:#fff;}.g{fill:#81503b;}.h{clip-path:url(#d);}</style><clipPath id="d"><ellipse class="g" cx="53.5" cy="53.45" rx="53.49" ry="53.44"/></clipPath></defs><g id="a"/><g id="b"><g id="c"><g><g><ellipse class="g" cx="53.5" cy="53.45" rx="53.49" ry="53.44"/><g class="h"><path class="f" d="M42.3,88.24c-3.12-1.06-4.78-4.44-3.73-7.55,1.06-3.11,4.44-4.78,7.56-3.72,6.89,2.34,14.5,1.14,20.35-3.21,5.98-4.44,9.26-11.54,8.98-19.47-.2-5.76-2.87-11.16-7.32-14.83-6.13-5.04-13.75-6.77-20.93-4.73-7.01,1.99-12.59,7.29-14.93,14.18-1.06,3.11-4.44,4.78-7.56,3.72s-4.78-4.44-3.73-7.55c3.6-10.59,12.18-18.74,22.95-21.8,10.99-3.12,22.57-.58,31.76,6.99,7.08,5.83,11.33,14.43,11.65,23.6,.42,11.89-4.61,22.62-13.78,29.44-8.99,6.68-20.69,8.52-31.28,4.93Z"/><path class="f" d="M20.31,60.14c.72,.44,1.67,.5,2.48-.02l1.81-1.16,9.92-6.32,10.17-6.48c.76-.48,1.11-1.28,1.08-2.07s-.46-1.55-1.25-1.96l-1.66-.86-10.37-5.39-11.01-5.72c-.8-.41-1.67-.32-2.33,.1s-1.12,1.17-1.08,2.07l.08,1.84,.44,10"/></g></g><path class="e" d="M53.5,.12C23.96,.12,0,24.04,0,53.56s23.95,53.44,53.49,53.44,53.49-23.93,53.49-53.44S83.04,.12,53.5,.12Zm-4.48,101.95C22.13,102.06,.33,80.28,.33,53.42S22.13,4.77,49.02,4.77s48.69,21.78,48.69,48.65-21.8,48.65-48.69,48.65Z"/></g></g></g></svg>