<?xml version="1.0" encoding="UTF-8"?><svg xmlns="http://www.w3.org/2000/svg" width="179.56" height="179.56" viewBox="0 0 179.56 179.56"><defs><style>.d{fill:#693213;}.e{fill:#fff;}.f{fill:#81503b;}</style></defs><g id="a"/><g id="b"><g id="c"><g><g><circle class="d" cx="89.78" cy="89.78" r="89.78"/><circle class="f" cx="82.26" cy="89.54" r="81.73"/></g><g><rect class="e" x="44.14" y="65.57" width="38.9" height="44.71" rx="4.24" ry="4.24"/><path class="e" d="M115.61,34.93L49.47,80.56c-5.45,3.76-5.45,11.81,0,15.57l66.13,45.63c1.92,1.32,4.53-.05,4.53-2.38V37.31c0-2.33-2.61-3.7-4.53-2.38Z"/></g><path class="e" d="M139.14,94.26h-12c-2.74,0-5-2.26-5-5s2.26-5,5-5h12c2.75,0,5,2.25,5,5s-2.25,5-5,5Z"/><path class="e" d="M125.45,109.59l10.39,6c2.38,1.37,5.46,.55,6.83-1.83s.55-5.46-1.83-6.83l-10.39-6c-2.38-1.38-5.46-.55-6.83,1.83s-.55,5.46,1.83,6.83Z"/><path class="e" d="M140.84,71.59l-10.39,6c-2.38,1.37-5.46,.55-6.83-1.83s-.55-5.46,1.83-6.83l10.39-6c2.38-1.37,5.46-.55,6.83,1.83s.55,5.46-1.83,6.83Z"/></g></g></g></svg>