<?xml version="1.0" encoding="UTF-8"?><svg xmlns="http://www.w3.org/2000/svg" width="455.84" height="224.29" xmlns:xlink="http://www.w3.org/1999/xlink" viewBox="0 0 455.84 224.29"><defs><style>.i{fill:#f2f2f2;}.j{fill:#006837;}.k{fill:#7e621b;}.l{fill:#b32028;}.m{fill:#b1232a;}.n{fill:#c02229;}.o{fill:#c21c25;}.p{fill:#c61b26;}.q{opacity:.3;}.r{clip-path:url(#f);}.s{clip-path:url(#e);}.t{clip-path:url(#d);}.u{clip-path:url(#h);}.v{clip-path:url(#g);}</style><clipPath id="d"><path class="o" d="M60.69,77.61c2.64-31.82,30.67-51.67,54.03-56.7,21.33-4.59,54.28-.17,69.24,27.85,14.04,26.3,4.05,58.08-12.79,76.23-20.7,22.33-54.94,27.49-80.29,11.28-17.32-11.07-32.3-33.27-30.19-58.66Z"/></clipPath><clipPath id="e"><path class="l" d="M.2,156.16c2.64-31.82,30.67-51.67,54.03-56.7,21.33-4.59,54.28-.17,69.24,27.85,14.04,26.3,4.05,58.08-12.79,76.23-20.7,22.33-54.94,27.49-80.29,11.28C13.07,203.75-1.91,181.56,.2,156.16Z"/></clipPath><clipPath id="f"><path class="m" d="M318.3,91.8c-13.06,28.81-45.91,37.01-69.46,33.06-21.5-3.61-50.88-19.96-55.56-51.74-4.4-29.83,15.53-55.88,37.34-66.64,26.81-13.23,60.58-5.37,78.93,19.2,12.53,16.79,19.17,43.12,8.75,66.12Z"/></clipPath><clipPath id="g"><path class="p" d="M246.37,113.47c2.64-31.82,30.67-51.67,54.03-56.7,21.33-4.59,54.28-.17,69.24,27.85,14.04,26.3,4.05,58.08-12.79,76.23-20.7,22.33-54.94,27.49-80.29,11.28-17.32-11.07-32.3-33.27-30.19-58.66Z"/></clipPath><clipPath id="h"><path class="n" d="M135.75,131.53c10.91-29.79,43.08-40.63,66.84-38.61,21.7,1.85,52.18,15.77,59.17,47.07,6.56,29.39-11.41,56.97-32.37,69.47-25.77,15.37-60.01,10.28-80.1-12.73-13.72-15.72-22.26-41.43-13.54-65.21Z"/></clipPath></defs><g id="a"/><g id="b"><g id="c"><g><g><path class="o" d="M60.69,77.61c2.64-31.82,30.67-51.67,54.03-56.7,21.33-4.59,54.28-.17,69.24,27.85,14.04,26.3,4.05,58.08-12.79,76.23-20.7,22.33-54.94,27.49-80.29,11.28-17.32-11.07-32.3-33.27-30.19-58.66Z"/><g class="t"><g class="q"><path class="i" d="M175.06,54.21c-1.07,.17-2.18-.34-2.77-1.38-2.08-3.67-6.85-10.42-15.43-14.41-7.98-3.71-15.41-3.2-19.13-2.55h-.03c-1.49,.24-2.88-.83-3.13-2.4-.24-1.58,.77-3.07,2.27-3.33,5.26-.9,13.41-1.13,22.23,2.97,9.98,4.64,15.52,12.48,17.93,16.74,.78,1.38,.35,3.16-.95,3.98-.32,.2-.65,.32-1,.38Z"/></g><g class="q"><path class="i" d="M179.71,73.47c-.4,.06-.82,.04-1.23-.1-1.45-.48-2.26-2.11-1.8-3.64,.34-1.14,.52-2.32,.54-3.51,.02-1.35-.15-2.73-.53-4.1-.42-1.54,.42-3.15,1.88-3.59,1.45-.45,2.98,.44,3.41,1.98,.53,1.94,.78,3.9,.75,5.83-.03,1.74-.3,3.47-.79,5.14-.32,1.09-1.21,1.84-2.21,2Z"/></g></g></g><g><path class="l" d="M.2,156.16c2.64-31.82,30.67-51.67,54.03-56.7,21.33-4.59,54.28-.17,69.24,27.85,14.04,26.3,4.05,58.08-12.79,76.23-20.7,22.33-54.94,27.49-80.29,11.28C13.07,203.75-1.91,181.56,.2,156.16Z"/><g class="s"><g class="q"><path class="i" d="M106.48,127.94c-1.07,.17-2.18-.34-2.77-1.38-2.08-3.67-6.85-10.42-15.43-14.41-7.98-3.71-15.41-3.19-19.13-2.55h-.03c-1.49,.24-2.88-.83-3.13-2.4-.24-1.58,.77-3.07,2.27-3.33,5.26-.92,13.41-1.13,22.23,2.97,9.98,4.64,15.52,12.48,17.93,16.74,.78,1.38,.35,3.16-.95,3.98-.32,.2-.65,.32-1,.38Z"/></g><g class="q"><path class="i" d="M111.12,147.19c-.4,.06-.82,.04-1.23-.1-1.45-.48-2.26-2.11-1.8-3.64,.34-1.14,.52-2.32,.54-3.51,.02-1.35-.15-2.73-.53-4.1-.42-1.54,.42-3.15,1.88-3.59,1.46-.45,2.98,.44,3.41,1.98,.53,1.94,.78,3.9,.75,5.83-.03,1.75-.3,3.47-.79,5.14-.32,1.09-1.21,1.84-2.21,2Z"/></g></g></g><g><path class="m" d="M318.3,91.8c-13.06,28.81-45.91,37.01-69.46,33.06-21.5-3.61-50.88-19.96-55.56-51.74-4.4-29.83,15.53-55.88,37.34-66.64,26.81-13.23,60.58-5.37,78.93,19.2,12.53,16.79,19.17,43.12,8.75,66.12Z"/><g class="r"><g class="q"><path class="i" d="M299.55,34.43c-1.07,.17-2.18-.34-2.77-1.38-2.08-3.67-6.85-10.42-15.43-14.41-7.98-3.71-15.43-3.2-19.13-2.55h-.03c-1.49,.24-2.88-.83-3.13-2.4-.24-1.58,.77-3.07,2.27-3.33,5.29-.91,13.41-1.13,22.23,2.97,9.98,4.64,15.52,12.48,17.93,16.74,.78,1.38,.35,3.16-.95,3.98-.32,.2-.65,.32-1,.38Z"/></g><g class="q"><path class="i" d="M304.2,53.69c-.4,.06-.82,.04-1.23-.1-1.45-.48-2.26-2.11-1.8-3.64,.34-1.13,.52-2.32,.54-3.51,.02-1.35-.15-2.73-.53-4.1-.42-1.54,.42-3.15,1.88-3.59,1.45-.45,2.98,.44,3.4,1.98,.53,1.94,.78,3.9,.75,5.83-.03,1.75-.3,3.48-.79,5.14-.32,1.09-1.21,1.84-2.21,2Z"/></g></g></g><g><path class="p" d="M246.37,113.47c2.64-31.82,30.67-51.67,54.03-56.7,21.33-4.59,54.28-.17,69.24,27.85,14.04,26.3,4.05,58.08-12.79,76.23-20.7,22.33-54.94,27.49-80.29,11.28-17.32-11.07-32.3-33.27-30.19-58.66Z"/><g class="v"><g class="q"><path class="i" d="M358.24,86.73c-1.07,.17-2.18-.34-2.77-1.38-2.08-3.67-6.85-10.42-15.43-14.41-7.98-3.71-15.44-3.2-19.13-2.55h-.03c-1.49,.24-2.88-.83-3.13-2.4-.24-1.58,.77-3.07,2.27-3.33,5.28-.9,13.41-1.13,22.23,2.97,9.98,4.64,15.52,12.48,17.93,16.74,.78,1.38,.35,3.16-.95,3.98-.32,.2-.65,.32-1,.38Z"/></g><g class="q"><path class="i" d="M362.89,105.99c-.4,.06-.82,.04-1.23-.1-1.45-.48-2.26-2.11-1.8-3.64,.34-1.14,.52-2.32,.54-3.51,.02-1.35-.15-2.73-.53-4.1-.42-1.54,.42-3.15,1.88-3.59,1.45-.45,2.98,.44,3.41,1.98,.53,1.94,.78,3.9,.75,5.83-.03,1.74-.3,3.47-.79,5.14-.32,1.09-1.21,1.84-2.21,2Z"/></g></g></g><g><path class="n" d="M135.75,131.53c10.91-29.79,43.08-40.63,66.84-38.61,21.7,1.85,52.18,15.77,59.17,47.07,6.56,29.39-11.41,56.97-32.37,69.47-25.77,15.37-60.01,10.28-80.1-12.73-13.72-15.72-22.26-41.43-13.54-65.21Z"/><g class="u"><g class="q"><path class="i" d="M248.05,129.93c-1.07,.17-2.18-.34-2.77-1.38-2.08-3.67-6.85-10.42-15.43-14.41-7.98-3.71-15.43-3.2-19.13-2.55h-.03c-1.49,.24-2.88-.83-3.13-2.4-.24-1.58,.77-3.07,2.27-3.33,5.29-.91,13.41-1.13,22.23,2.97,9.98,4.64,15.52,12.48,17.93,16.74,.78,1.38,.35,3.16-.95,3.98-.32,.2-.65,.32-1,.38Z"/></g><g class="q"><path class="i" d="M252.7,149.18c-.4,.06-.82,.04-1.23-.1-1.45-.48-2.26-2.11-1.8-3.64,.34-1.14,.52-2.32,.54-3.51,.02-1.35-.15-2.73-.53-4.1-.42-1.54,.42-3.15,1.88-3.59,1.46-.45,2.98,.44,3.41,1.98,.53,1.94,.78,3.9,.75,5.83-.03,1.74-.3,3.47-.79,5.14-.32,1.09-1.21,1.84-2.21,2Z"/></g></g></g><polygon class="j" points="20.51 116.95 47.73 126.31 62.79 100.6 59.18 128.85 88.53 132.07 59.08 140.17 62.16 167.87 47.56 144.63 20.12 158.52 40.55 136.06 20.51 116.95"/><polygon class="j" points="141.74 48.85 117.67 60.43 122.65 87.84 108.38 66.24 86.5 83.4 101.75 58.47 83.25 41.66 106.95 47.85 117.39 20.3 116.79 49.06 141.74 48.85"/><polygon class="j" points="218.43 121.4 194.36 132.98 199.33 160.4 185.06 138.8 163.19 155.96 178.43 131.02 159.94 114.21 183.63 120.4 194.08 92.85 193.48 121.61 218.43 121.4"/><polygon class="j" points="276.13 30.49 252.06 42.07 257.03 69.49 242.76 47.89 220.89 65.05 236.13 40.12 217.64 23.3 241.33 29.49 251.78 1.95 251.18 30.7 276.13 30.49"/><polygon class="j" points="335.4 83.95 311.34 95.54 316.31 122.95 302.04 101.35 280.16 118.51 295.41 93.58 276.92 76.77 300.61 82.96 311.06 55.41 310.45 84.17 335.4 83.95"/><path class="k" d="M52.05,137.66c-1.4,0-2.77-.7-3.58-1.97-1.25-1.97-.66-4.59,1.31-5.84,53.57-33.87,101.53-53.86,138.7-57.81,10.08-1.07,54.62-4.79,108.93-7.31l1.81-.09c58.19-2.88,96.64-4.78,123.13-26.85,10.46-8.72,19-20.58,25.38-35.25,.93-2.14,3.42-3.12,5.57-2.19,2.14,.93,3.12,3.42,2.19,5.57-6.91,15.89-16.24,28.81-27.73,38.38-28.66,23.89-68.23,25.84-128.12,28.8l-1.84,.09c-53.46,2.48-98.81,6.25-108.42,7.27-35.88,3.81-82.59,23.37-135.07,56.55-.7,.44-1.48,.66-2.26,.66Z"/><path class="k" d="M287.94,74.25c-6.52,0-14.82-1.28-23.24-6.03-16.2-9.13-22.09-24.63-23.87-30.87-.64-2.25,.66-4.59,2.91-5.23,2.25-.64,4.59,.66,5.23,2.91,1.17,4.09,6.04,18.02,19.89,25.82,11.83,6.66,23.39,5.01,27.81,3.99,2.28-.52,4.55,.89,5.07,3.17,.53,2.28-.89,4.55-3.17,5.07-2.24,.52-5.98,1.17-10.62,1.17Z"/><path class="k" d="M315.37,95.26c-3.77,0-7.55-.28-11.29-.84-2.31-.35-3.9-2.5-3.55-4.81,.35-2.31,2.51-3.9,4.81-3.55,10.13,1.53,20.58,.71,30.24-2.36,16.47-5.25,27.4-15.69,33.68-23.53,1.46-1.82,4.12-2.12,5.95-.66,1.82,1.46,2.12,4.12,.66,5.95-7,8.75-19.23,20.41-37.72,26.3-7.32,2.33-15.04,3.51-22.78,3.51Z"/><path class="k" d="M151.34,86.94c-6.37,0-13.65-1.12-20.37-5-18.45-10.67-23.54-20.6-24.37-22.48-.95-2.14,.02-4.63,2.15-5.58,2.14-.94,4.63,.02,5.58,2.16,.16,.36,4.07,8.86,20.87,18.58,10.3,5.96,23.27,3.49,28.82,2.44,1.3-.25,2.24-.43,2.99-.48,2.32-.16,4.36,1.57,4.53,3.9s-1.57,4.36-3.9,4.53c-.28,.02-1.26,.21-2.04,.36-3.13,.59-8.29,1.58-14.26,1.58Z"/><path class="k" d="M172.24,132.21c-6.58,0-14.38-1.05-22.55-4.38-18.58-7.57-28.35-22.16-32.51-30.18-1.08-2.07-.27-4.63,1.8-5.7,2.07-1.08,4.63-.27,5.7,1.8,2.92,5.63,11.52,19.45,28.2,26.25,13.36,5.45,25.57,3.79,31.65,2.32,2.27-.55,4.56,.85,5.11,3.12,.55,2.27-.85,4.56-3.12,5.11-3.36,.81-8.33,1.67-14.28,1.67Z"/></g></g></g></svg>