<?xml version="1.0" encoding="UTF-8"?><svg xmlns="http://www.w3.org/2000/svg" width="1920" height="1080" viewBox="0 0 1920 1080"><defs><style>.d{stroke:#000;stroke-miterlimit:10;}.e{fill:#f2f2f2;}.f{fill:#fff;}.g{fill:#ffd7c4;}.h{fill:#ffd196;}.i{fill:#42210b;}</style></defs><g id="a"/><g id="b"><g id="c"><rect class="h" width="1920" height="1080" rx="12" ry="12"/><g><path class="e" d="M1369.31,857.96c-16.96,1.05-89.19,7.44-148.05,67.75-60.88,62.39-63.94,137.91-64.22,154.23l527.52-.02c-.95-19.72-7.07-99.33-71.66-161.85-40.93-39.62-86.31-53.94-108.97-59.4l-134.62-.72Z"/><path class="f" d="M1683.19,1079.91c-.79-19.74-6.07-92.18-63.55-153.48-43.03-45.88-93.05-61.79-115.47-67.37-1.04-.26-2.13-.12-3.06,.4l-173.15,95.39c-1.11,41.65-2.21,83.31-3.32,124.96,119.52,.03,239.03,.06,358.55,.09Z"/><path class="d" d="M1491.36,960.15c5.31-.17,10.93,4.05,10.84,9.79-.09,5.63-5.62,9.9-11.14,9.44-5.59-.46-10.26-5.7-9.44-11.14,.71-4.73,5.31-7.95,9.74-8.09Z"/><path class="d" d="M1388.31,961.29c5.31-.17,10.93,4.05,10.84,9.79-.09,5.63-5.62,9.9-11.14,9.44-5.59-.46-10.26-5.7-9.44-11.14,.71-4.73,5.31-7.95,9.74-8.09Z"/><path class="d" d="M1385.97,1023.07c5.31-.17,10.93,4.05,10.84,9.79-.09,5.63-5.62,9.9-11.14,9.44-5.59-.46-10.26-5.7-9.44-11.14,.71-4.73,5.31-7.95,9.74-8.09Z"/><path class="d" d="M1493.1,1024.74c5.31-.17,10.93,4.05,10.84,9.79-.09,5.63-5.62,9.9-11.14,9.44-5.59-.46-10.26-5.7-9.44-11.14,.71-4.73,5.31-7.95,9.74-8.09Z"/><polygon class="g" points="1369.31 857.96 1414.41 907.23 1502.1 858.67 1369.31 857.96"/><path class="g" d="M1305.15,477.37c39.6,6.86,84.91,12.32,135.04,14.3,57.51,2.27,109.27-.52,153.75-5.43,13.96,14.44,49.24,54.76,59.45,117.97,3.11,19.28,10.96,72.75-18.6,128.28-33.73,63.36-93.09,86.07-112.95,93.67-15.26,5.84-89.81,32.48-171.82-2.34-20.26-8.6-77.07-32.72-105.52-93.4-21.6-46.08-14.51-91.86-12.34-107.03,3.74-26.1,11.63-45.23,17.56-59.36,16.64-39.61,38.71-68.27,55.42-86.65Z"/><path d="M1273.13,726.64c6.53,10.1,17.42,16.25,28.61,15.56,15.02-.93,24.5-13.81,27.83-22.92,3.69-10.09-.73-13.94,1.76-24.7,4.48-19.38,24.16-29.92,26.59-31.18,20.41-10.58,47.8-5.88,68.5,12.06,4.81-4.54,30.03-27.55,56.65-21.1,19.19,4.65,32.61,23.01,39.34,32.21,12.57,17.19,12.69,28.07,25.54,36.12,10.26,6.43,25.97,2.71,34.31,1.91-1.1,6.37-8.76,25.2-21.2,38.13-16.89,17.57-39.1,18.99-51.14,19.81-27.82,1.88-48.37-9-56.12-13.24-13.54-7.4-22.86-16.25-28.5-22.42-6.92,6.52-17.51,15.24-31.95,22.86-14.08,7.42-36.63,19.31-64.81,15.47-9.85-1.34-34.48-4.7-47.68-25.47-8.23-12.95-8.19-26.64-7.73-33.09Z"/><path d="M1341.09,597.2c-1.25-4.57,11.79-16.99,26.37-17.45,16.74-.53,32.64,14.78,31.25,22.47-.21,1.15-1.07,3.58-2.81,4.08-2.1,.6-4.58-1.75-6.8-4.23-5.43-6.07-8.62-8.22-12.21-9.81-9.57-4.25-22.99,.22-27.58,6.44-.57,.78-3.27,2.09-5.52,1.29-1.43-.51-2.45-1.88-2.7-2.79Z"/><path d="M1515.58,594.42c1.4-4.53-11.26-17.35-25.82-18.26-16.71-1.05-33.09,13.76-31.93,21.48,.17,1.15,.95,3.61,2.68,4.16,2.08,.67,4.63-1.6,6.93-4.01,5.62-5.9,8.88-7.94,12.51-9.42,9.7-3.94,22.97,.94,27.36,7.3,.55,.8,3.2,2.19,5.47,1.46,1.44-.47,2.51-1.8,2.79-2.7Z"/><path d="M1345.3,565.91c10.57-5.56,21.13-11.12,31.7-16.67,1.53-1.11,3.45-.69,4.11,.34,.7,1.09,.17,3.18-1.71,3.99-10.99,5.06-21.97,10.13-32.96,15.19-1.22,.59-2.42,.33-2.74-.23-.35-.61,.14-1.96,1.6-2.62Z"/><path d="M1510.47,563.39c-10.68-5.35-21.35-10.69-32.03-16.04-1.56-1.08-3.46-.62-4.1,.42-.68,1.11-.1,3.18,1.79,3.96,11.08,4.84,22.17,9.69,33.25,14.53,1.23,.56,2.43,.28,2.73-.28,.33-.61-.18-1.96-1.65-2.59Z"/><path class="f" d="M1299.03,475.65c-2.03-9.36-3.77-19.48-5.02-30.3-3.07-26.49-2.4-50.23-.28-70.07-6.69-.71-29.03-3.94-47.73-22.72-6.93-6.96-20.38-19.92-21.35-40.17-.13-2.81-1.08-32.51,21.98-44.3,19.26-9.85,39.29,.95,41.18,2.02-2.65-7.02-9.02-26.71-1.98-49.49,1.29-4.19,13.26-40.88,46.07-47.36,26.39-5.22,55.96,11.15,69.42,40.92,15.09-32.68,47.25-53.75,81.89-53.67,39.84,.09,75.93,28.15,86.85,68.67,43.77-24.72,92.79-19.28,118.01,8.71,1.23,1.37,23.6,27.01,16.93,59.34-7.2,34.91-45.19,62.79-93,61.74-2.52,44.38-5.05,88.76-7.57,133.14-50.82,1.47-105.96,.97-164.81-2.57-49.95-3.01-96.92-7.87-140.59-13.87Z"/><path class="d" d="M1222.68,614.58c.03-14.82,2.09-44.51,19.05-76.63,18.25-34.55,44.05-53.55,56.6-61.62,102.03,5.25,204.07,10.51,306.1,15.76,7.95,6.85,19.1,18.15,28.31,34.79,12.08,21.84,14.92,42.24,15.65,53.82-4.78-11.96-14.15-30.84-32.21-48.58-11.65-11.45-23.41-18.98-32.6-23.86,.09,4.07-.25,13.39-5.86,23.26-5.99,10.54-14.55,15.68-18.13,17.58-2.4-7.16-6.21-16.45-11.98-24.91-1.7-2.49-3.39-4.66-3.63-4.97-4.62-5.89-9.16-10.22-12.57-13.14-4.21,2.71-9.88,7.02-15.32,13.5-5.99,7.14-9.38,14.16-11.29,19.06-4.02-2.49-11.8-8.05-17.58-18.13-4.79-8.36-6.12-16.18-6.55-20.71-6.16,2.69-14.05,6.88-22.19,13.39-10.11,8.08-16.79,16.68-20.97,23.03-3.17-1.04-13.28-4.8-20.37-15.43-6.19-9.29-6.56-18.56-6.52-22.08-4,3.42-8.26,7.45-12.55,12.17-6.52,7.15-11.56,14.17-15.43,20.37-2.02-1.36-7.89-5.69-10.77-13.91-3.23-9.22-.51-17.11,.3-19.23-4.96,2.5-12.41,7.03-19.46,14.81-8.42,9.3-12.31,18.87-14.12,24.51-2.21-1.43-10.37-7.08-13.46-18.07-2.29-8.14-.6-14.99,.28-17.85-14.08,7.55-31.35,18.69-48.63,34.96-29.87,28.14-45.8,58.5-54.11,78.15Z"/></g><g><path class="i" d="M344.72,394.93c0,6.2-2.03,11.73-6.07,16.58-4.05,4.85-9.59,8.88-16.62,12.08,4.53,2.6,8.13,5.78,10.81,9.53,2.68,3.75,4.02,7.88,4.02,12.38,0,5.4-1.94,10.72-5.81,15.97-3.87,5.25-9.02,9.9-15.46,13.95-6.43,4.05-13.76,7.32-21.98,9.83-8.22,2.5-16.62,3.75-25.19,3.75-9.29,0-17.42-1.48-24.39-4.43-6.97-2.95-12.42-7.12-16.35-12.52,1.19-3,2.77-6.72,4.73-11.17,1.97-4.45,4.14-9.15,6.52-14.1,2.38-4.95,4.79-9.87,7.24-14.77,2.44-4.9,4.73-9.3,6.88-13.2,4.53-8.5,8.58-15.55,12.15-21.15,3.57-5.6,6.85-10.05,9.83-13.35-6.55,1.7-12.51,3.63-17.87,5.77-5.36,2.15-9.29,4.23-11.79,6.23-1.07-.6-2.17-1.5-3.3-2.7-1.13-1.2-2.21-2.52-3.22-3.97-1.01-1.45-1.85-2.93-2.5-4.43-.66-1.5-1.04-2.85-1.16-4.05,3.1-1.8,7.12-3.52,12.06-5.17,4.94-1.65,10.33-3.08,16.17-4.28,5.83-1.2,11.82-2.15,17.96-2.85,6.13-.7,12-1.05,17.6-1.05,14.29,0,25.49,2.4,33.59,7.2,8.1,4.8,12.15,11.45,12.15,19.95Zm-68.07,35.85c-2.26-.9-4.35-2.25-6.25-4.05-2.74,5.1-5.33,10.1-7.77,15-2.44,4.9-4.62,9.45-6.52,13.65-1.91,4.2-3.46,7.85-4.65,10.95-1.19,3.1-1.85,5.35-1.97,6.75,1.67,.8,3.66,1.4,5.99,1.8,2.32,.4,5.21,.6,8.67,.6,8.1,0,15.84-.95,23.23-2.85,7.38-1.9,13.87-4.47,19.47-7.72,5.6-3.25,10.06-6.98,13.4-11.17,3.33-4.2,5-8.6,5-13.2,0-6.6-3.39-11.35-10.18-14.25-9.29,3.2-19.77,4.8-31.45,4.8h-3.84c-.89,0-1.94-.1-3.13-.3Zm34.66-52.05c-2.5,0-5.15,.13-7.95,.38-2.8,.25-5.75,.62-8.84,1.12,.47,.4,.86,.82,1.16,1.27,.3,.45,.56,.93,.8,1.42-1.07,1.2-2.38,2.95-3.93,5.25-1.55,2.3-3.28,4.98-5.18,8.03-1.91,3.05-3.9,6.43-5.99,10.12-2.09,3.7-4.2,7.5-6.34,11.4,2.02-.4,4.49-.72,7.41-.98,2.92-.25,5.81-.38,8.67-.38,1.55,0,3.07,.05,4.56,.15,1.49,.1,2.95,.25,4.38,.45,5.72-.8,10.87-1.97,15.46-3.53,4.58-1.55,8.54-3.35,11.88-5.4,3.33-2.05,5.9-4.32,7.68-6.82,1.79-2.5,2.68-5.15,2.68-7.95,0-4.8-2.26-8.42-6.79-10.88-4.53-2.45-11.08-3.67-19.65-3.67Z"/><path class="i" d="M343.65,474.58c.59-2.9,1.64-6.72,3.13-11.47,1.49-4.75,3.24-9.8,5.27-15.15,2.02-5.35,4.17-10.72,6.43-16.12,2.26-5.4,4.47-10.25,6.61-14.55,1.55-3.1,2.92-5.52,4.11-7.28,1.19-1.75,2.5-3.22,3.93-4.42,1.67,.2,3.39,.55,5.18,1.05,1.79,.5,3.51,1.1,5.18,1.8,1.67,.7,3.15,1.43,4.47,2.18,1.31,.75,2.32,1.48,3.04,2.17-3.22,3.2-6.05,6.85-8.49,10.95-2.44,4.1-4.91,9.35-7.41,15.75,6.43-4.8,12.12-9.4,17.06-13.8,4.94-4.4,9.56-9.3,13.85-14.7,.71-.5,1.96-.75,3.75-.75,1.67,0,3.27,.22,4.82,.67,1.55,.45,2.62,1.08,3.22,1.88-2.14,4.8-3.22,9.55-3.22,14.25,0,4.4,.77,7.7,2.32,9.9-.12,.6-.92,1.75-2.41,3.45-1.49,1.7-3.13,3.3-4.91,4.8-3.22-1.4-6.08-3.32-8.58-5.77-2.5-2.45-4.35-5.12-5.54-8.03-5.6,3.3-10.36,6.53-14.29,9.67-3.93,3.15-7.3,6.65-10.09,10.5-2.8,3.85-5.18,8.28-7.15,13.28-1.96,5-3.84,10.95-5.63,17.85-1.07-.1-2.35-.43-3.84-.97-1.49-.55-2.98-1.23-4.47-2.03-1.49-.8-2.83-1.65-4.02-2.55-1.19-.9-1.96-1.75-2.32-2.55Z"/><path class="i" d="M481.58,416.98c1.19,0,2.59,.18,4.2,.52,1.61,.35,3.07,.8,4.38,1.35,1.31,.55,2.41,1.12,3.3,1.72,.89,.6,1.34,1.15,1.34,1.65-2.38,4.2-4.59,8.43-6.61,12.67-2.03,4.25-3.75,8.33-5.18,12.22-1.43,3.9-2.53,7.55-3.31,10.95-.78,3.4-1.16,6.35-1.16,8.85,0,2.8,.36,5.13,1.07,6.98,.71,1.85,1.9,3.18,3.57,3.97-1.43,.8-3.28,1.45-5.54,1.95-2.26,.5-4.29,.75-6.08,.75-6.43,0-9.65-3.7-9.65-11.1,0-5.7,2.26-13.5,6.79-23.4-2.38,4.58-5.12,8.89-8.22,12.92-3.1,4.03-6.25,7.59-9.47,10.68-3.22,3.09-6.46,5.6-9.74,7.54-3.28,1.94-6.28,3.11-9.02,3.51-4.41,0-7.98-1.68-10.72-5.05-2.74-3.36-4.11-7.66-4.11-12.88,0-5.62,1.43-11.55,4.29-17.77,2.86-6.22,6.52-12,10.99-17.32,4.47-5.32,9.32-9.77,14.56-13.33,5.24-3.57,10.3-5.35,15.19-5.35,1.19,.3,2.53,.9,4.02,1.8,1.49,.9,2.92,1.95,4.29,3.14,1.37,1.2,2.53,2.42,3.48,3.67,.95,1.25,1.49,2.32,1.61,3.22-4.76,.6-9.68,2.55-14.74,5.84-5.06,3.29-9.65,7.26-13.76,11.9-4.11,4.64-7.48,9.6-10.09,14.89-2.62,5.29-3.93,10.23-3.93,14.81,0,1.9,.83,3.09,2.5,3.59,3.45-.6,7.44-3.08,11.97-7.42,4.53-4.35,10.01-11.07,16.44-20.17,1.19-1.8,2.53-3.8,4.02-6,1.49-2.2,3.01-4.5,4.56-6.9,1.55-2.4,3.07-4.82,4.56-7.27,1.49-2.45,2.89-4.82,4.2-7.12Z"/><path class="i" d="M511.59,424.48c0-1.8,.15-3.5,.45-5.1,.3-1.6,.92-2.97,1.88-4.12,.95-1.15,2.26-2.05,3.93-2.7,1.67-.65,3.87-.97,6.61-.97,1.67,0,3.54,.15,5.63,.45,2.08,.3,3.6,.85,4.56,1.65-.48,1.7-.87,3.2-1.16,4.5-.3,1.3-.54,2.73-.71,4.28-.18,1.55-.33,3.4-.45,5.55-.12,2.15-.24,4.93-.36,8.33-.24,6.8-.62,12.88-1.16,18.22-.54,5.35-1.76,10.68-3.66,15.98,0,.4,.18,.6,.54,.6,1.79-1.1,3.81-2.7,6.07-4.8,2.26-2.1,4.65-4.47,7.15-7.12,2.5-2.65,5-5.47,7.5-8.47,2.5-3,4.82-5.95,6.97-8.85,2.86-4.2,6.01-9.45,9.47-15.75,3.45-6.3,6.31-13.05,8.58-20.25,.71,0,1.64,.13,2.77,.38,1.13,.25,2.26,.55,3.39,.9,1.13,.35,2.14,.73,3.04,1.12,.89,.4,1.52,.75,1.88,1.05-.24,4.3-1.46,8.7-3.66,13.2-2.21,4.5-4.85,8.85-7.95,13.05-3.1,4.2-6.37,8.15-9.83,11.85-3.46,3.7-6.61,6.9-9.47,9.6-5.72,5.6-11.46,10.6-17.24,15-5.78,4.4-12.66,8.65-20.64,12.75-3.1-1-5.54-2.33-7.33-3.98-1.79-1.65-2.68-3.38-2.68-5.17,0-1.2,.33-2.57,.98-4.12,.65-1.55,1.4-3.55,2.23-6,.83-2.45,1.58-5.52,2.23-9.22,.65-3.7,.98-8.4,.98-14.1,0-3.3-.09-6.62-.27-9.97-.18-3.35-.27-5.92-.27-7.72Z"/><path class="i" d="M581.99,467.53c0-.9,.09-2.03,.27-3.38,.18-1.35,.5-3.15,.98-5.4,.47-2.25,1.1-4.97,1.88-8.17,.77-3.2,1.76-7.05,2.95-11.55,.24-1,.77-2.6,1.61-4.8,.83-2.2,1.93-4.52,3.3-6.98,1.37-2.45,3.04-4.82,5-7.12,1.96-2.3,4.32-4,7.06-5.1,2.02,.4,4.7,1.42,8.04,3.08,3.33,1.65,6.19,3.93,8.58,6.82-2.74,2.6-5.03,5.2-6.88,7.8-1.85,2.6-3.51,5.3-5,8.1-1.49,2.8-2.86,5.7-4.11,8.7s-2.65,6.15-4.2,9.45c-1.31,2.8-2.5,5.68-3.57,8.62-1.07,2.95-1.67,5.53-1.79,7.72,0,1.8-.03,3.08-.09,3.83-.06,.75-.39,1.12-.98,1.12-.48,0-1.43-.25-2.86-.75-1.43-.5-2.89-1.28-4.38-2.33-1.49-1.05-2.83-2.37-4.02-3.97-1.19-1.6-1.79-3.5-1.79-5.7Zm34.12-65.1c0-.6,.18-1.5,.54-2.7-.6-.5-1.1-1.25-1.52-2.25-.42-1-.63-1.9-.63-2.7,0-.9,.15-2.12,.45-3.67,.3-1.55,.68-3.23,1.16-5.03,.47-1.8,1.07-3.67,1.79-5.62,.71-1.95,1.43-3.72,2.14-5.33,1.43,0,3.19,.33,5.27,.98,2.08,.65,4.2,1.5,6.34,2.55,2.14,1.05,4.11,2.2,5.9,3.45,1.79,1.25,3.16,2.43,4.11,3.52-1.31,1.1-3.04,2.62-5.18,4.58-2.14,1.95-4.23,4-6.25,6.15-2.03,2.15-3.87,4.18-5.54,6.07-1.67,1.9-2.74,3.25-3.22,4.05-1.43-.2-2.68-.72-3.75-1.58-1.07-.85-1.61-1.67-1.61-2.48Z"/><path class="i" d="M685.61,417.66c-.12,1.9-.51,3.88-1.16,5.92-.66,2.05-1.46,3.9-2.41,5.55-.96,1.65-1.97,3.03-3.04,4.12-1.07,1.1-2.09,1.65-3.04,1.65-1.31-.1-2.08-.85-2.32-2.25,0-.3,.15-.77,.45-1.42,.3-.65,.63-1.37,.98-2.18,.36-.8,.68-1.6,.98-2.4,.3-.8,.45-1.5,.45-2.1,0-1.4-.39-2.57-1.16-3.52-.78-.95-1.82-1.42-3.13-1.42-4.76,0-8.4,2.49-10.9,7.46-2.5,4.98-3.75,12.29-3.75,21.94,0,1,.06,1.59,.18,1.79h12.51c.12,.2,.18,.6,.18,1.19,0,.9-.24,1.54-.71,1.94-2.74,.5-4.91,.92-6.52,1.27-1.61,.35-2.83,.67-3.66,.97-.83,.3-1.34,.62-1.52,.97-.18,.35-.27,.82-.27,1.42,0,.8,.03,1.59,.09,2.39,.06,.8,.09,1.79,.09,2.98,0,8.36-2.71,15.08-8.13,20.18-5.42,5.09-12.95,8.04-22.6,8.84-1.67-.1-3.39-.5-5.18-1.2-1.79-.7-3.48-1.6-5.09-2.7-1.61-1.1-3.01-2.32-4.2-3.67-1.19-1.35-2.03-2.73-2.5-4.12,0-3.83,.95-7.48,2.86-10.96,1.9-3.48,4.5-6.55,7.77-9.22,3.27-2.67,7.15-4.84,11.61-6.5,4.47-1.66,9.32-2.49,14.56-2.49,0-2.51-.3-4.97-.89-7.38-.6-2.41-1.22-4.75-1.88-7-.66-2.26-1.28-4.47-1.88-6.63-.6-2.16-.89-4.29-.89-6.4,0-2.71,.65-5.39,1.97-8.06,1.31-2.66,3.04-5.12,5.18-7.38,2.14-2.26,4.65-4.19,7.5-5.8,2.86-1.61,5.83-2.71,8.93-3.32,1.31,.3,3.07,1.18,5.27,2.62,2.2,1.45,4.38,3.07,6.52,4.88,2.14,1.8,4.05,3.62,5.72,5.47,1.67,1.85,2.68,3.38,3.04,4.58Zm-58.96,68.4c2.86-1,5.57-2.45,8.13-4.35,2.56-1.9,4.79-4.05,6.7-6.45,1.9-2.4,3.42-4.95,4.56-7.65,1.13-2.7,1.7-5.35,1.7-7.95-2.38,.3-5,1.23-7.86,2.77-2.86,1.55-5.54,3.4-8.04,5.55-2.5,2.15-4.59,4.38-6.25,6.67-1.67,2.3-2.5,4.3-2.5,6,0,2.2,1.19,4,3.57,5.4Z"/><path class="i" d="M747.43,417.66c-.12,1.9-.51,3.88-1.16,5.92-.66,2.05-1.46,3.9-2.41,5.55-.96,1.65-1.97,3.03-3.04,4.12-1.07,1.1-2.09,1.65-3.04,1.65-1.31-.1-2.08-.85-2.32-2.25,0-.3,.15-.77,.45-1.42,.3-.65,.63-1.37,.98-2.18,.36-.8,.68-1.6,.98-2.4,.3-.8,.45-1.5,.45-2.1,0-1.4-.39-2.57-1.16-3.52-.78-.95-1.82-1.42-3.13-1.42-4.76,0-8.4,2.49-10.9,7.46-2.5,4.98-3.75,12.29-3.75,21.94,0,1,.06,1.59,.18,1.79h12.51c.12,.2,.18,.6,.18,1.19,0,.9-.24,1.54-.71,1.94-2.74,.5-4.91,.92-6.52,1.27-1.61,.35-2.83,.67-3.66,.97-.83,.3-1.34,.62-1.52,.97-.18,.35-.27,.82-.27,1.42,0,.8,.03,1.59,.09,2.39,.06,.8,.09,1.79,.09,2.98,0,8.36-2.71,15.08-8.13,20.18-5.42,5.09-12.95,8.04-22.6,8.84-1.67-.1-3.39-.5-5.18-1.2-1.79-.7-3.48-1.6-5.09-2.7-1.61-1.1-3.01-2.32-4.2-3.67-1.19-1.35-2.03-2.73-2.5-4.12,0-3.83,.95-7.48,2.86-10.96,1.9-3.48,4.5-6.55,7.77-9.22,3.27-2.67,7.15-4.84,11.61-6.5,4.47-1.66,9.32-2.49,14.56-2.49,0-2.51-.3-4.97-.89-7.38-.6-2.41-1.22-4.75-1.88-7-.66-2.26-1.28-4.47-1.88-6.63-.6-2.16-.89-4.29-.89-6.4,0-2.71,.65-5.39,1.97-8.06,1.31-2.66,3.04-5.12,5.18-7.38,2.14-2.26,4.65-4.19,7.5-5.8,2.86-1.61,5.83-2.71,8.93-3.32,1.31,.3,3.07,1.18,5.27,2.62,2.2,1.45,4.38,3.07,6.52,4.88,2.14,1.8,4.05,3.62,5.72,5.47,1.67,1.85,2.68,3.38,3.04,4.58Zm-58.96,68.4c2.86-1,5.57-2.45,8.13-4.35,2.56-1.9,4.79-4.05,6.7-6.45,1.9-2.4,3.42-4.95,4.56-7.65,1.13-2.7,1.7-5.35,1.7-7.95-2.38,.3-5,1.23-7.86,2.77-2.86,1.55-5.54,3.4-8.04,5.55-2.5,2.15-4.59,4.38-6.25,6.67-1.67,2.3-2.5,4.3-2.5,6,0,2.2,1.19,4,3.57,5.4Z"/><path class="i" d="M747.78,467.53c0-.9,.09-2.03,.27-3.38,.18-1.35,.5-3.15,.98-5.4,.47-2.25,1.1-4.97,1.88-8.17,.77-3.2,1.76-7.05,2.95-11.55,.24-1,.77-2.6,1.61-4.8,.83-2.2,1.93-4.52,3.3-6.98,1.37-2.45,3.04-4.82,5-7.12,1.96-2.3,4.32-4,7.06-5.1,2.02,.4,4.7,1.42,8.04,3.08,3.33,1.65,6.19,3.93,8.58,6.82-2.74,2.6-5.03,5.2-6.88,7.8-1.85,2.6-3.51,5.3-5,8.1-1.49,2.8-2.86,5.7-4.11,8.7s-2.65,6.15-4.2,9.45c-1.31,2.8-2.5,5.68-3.57,8.62-1.07,2.95-1.67,5.53-1.79,7.72,0,1.8-.03,3.08-.09,3.83-.06,.75-.39,1.12-.98,1.12-.48,0-1.43-.25-2.86-.75-1.43-.5-2.89-1.28-4.38-2.33-1.49-1.05-2.83-2.37-4.02-3.97-1.19-1.6-1.79-3.5-1.79-5.7Zm34.12-65.1c0-.6,.18-1.5,.54-2.7-.6-.5-1.1-1.25-1.52-2.25-.42-1-.63-1.9-.63-2.7,0-.9,.15-2.12,.45-3.67,.3-1.55,.68-3.23,1.16-5.03,.47-1.8,1.07-3.67,1.79-5.62,.71-1.95,1.43-3.72,2.14-5.33,1.43,0,3.19,.33,5.27,.98,2.08,.65,4.2,1.5,6.34,2.55,2.14,1.05,4.11,2.2,5.9,3.45,1.79,1.25,3.16,2.43,4.11,3.52-1.31,1.1-3.04,2.62-5.18,4.58-2.14,1.95-4.23,4-6.25,6.15-2.03,2.15-3.87,4.18-5.54,6.07-1.67,1.9-2.74,3.25-3.22,4.05-1.43-.2-2.68-.72-3.75-1.58-1.07-.85-1.61-1.67-1.61-2.48Z"/><path class="i" d="M893.04,431.61c-1.91,0-4.23,.98-6.97,2.93-2.74,1.95-5.69,4.46-8.84,7.51-3.16,3.06-6.43,6.44-9.83,10.14-3.39,3.71-6.67,7.39-9.83,11.04-3.16,3.66-6.11,7.08-8.84,10.29-2.74,3.21-5.06,5.76-6.97,7.66-2.62-.9-4.88-2.23-6.79-3.97-1.91-1.75-3.28-3.92-4.11-6.53,.59-3.09,1.43-6.31,2.5-9.66,1.07-3.34,2.47-6.81,4.2-10.41,1.73-3.59,3.87-7.36,6.43-11.31,2.56-3.94,5.69-8.11,9.38-12.5-1.79,0-4.23,1.03-7.33,3.08-3.1,2.05-6.43,4.71-10,7.96s-7.27,6.91-11.08,10.96c-3.81,4.05-7.39,8.04-10.72,11.94-4.41,5.21-8.07,9.76-10.99,13.67-2.92,3.9-5.03,6.21-6.34,6.91-3.1-1.9-5.24-3.95-6.43-6.15-1.19-2.2-2.08-4.65-2.68-7.35,.12-2.4,.56-5.4,1.34-9,.77-3.6,1.88-7.3,3.31-11.1,2.74-7.3,6.28-14.55,10.63-21.75,4.35-7.2,8.54-13.8,12.6-19.8,3.33,.6,6.34,1.55,9.02,2.85,2.68,1.3,5.51,3.2,8.49,5.7-1.19,3.1-3.04,6.38-5.54,9.82-2.5,3.45-5.12,7.08-7.86,10.88-2.74,3.8-5.24,7.7-7.5,11.7-2.26,4-3.75,8.05-4.47,12.15,3.33-4,7.29-8.6,11.88-13.8,4.58-5.2,9.29-10.1,14.12-14.7,4.82-4.6,9.62-8.5,14.38-11.7,4.76-3.2,9.05-4.8,12.86-4.8,1.43,0,2.98,.2,4.65,.6,1.67,.4,3.22,.9,4.65,1.5,1.43,.6,2.62,1.18,3.57,1.73,.95,.55,1.49,.97,1.61,1.27-.6,2-2,4.73-4.2,8.17-2.21,3.45-4.56,7.08-7.06,10.88-2.5,3.8-4.82,7.48-6.97,11.03-2.14,3.55-3.39,6.38-3.75,8.47,5.83-6.7,11.32-12.77,16.44-18.22,5.12-5.45,9.94-10.12,14.47-14.03,4.53-3.9,8.72-6.9,12.6-9,3.87-2.1,7.53-3.15,10.99-3.15,2.38,0,4.62,.52,6.7,1.58,2.08,1.05,3.54,2.58,4.38,4.57-1.07,3-2.83,6.6-5.27,10.8-2.44,4.2-4.91,8.62-7.41,13.27-2.5,4.65-4.73,9.23-6.7,13.73-1.96,4.5-2.95,8.55-2.95,12.15,0,2.1,.36,3.48,1.07,4.12,.71,.65,1.73,.98,3.04,.98,1.43,0,2.77-.23,4.02-.68,1.25-.45,2.17-.67,2.77-.67,.71,.4,1.13,.9,1.25,1.5,.12,.6,.18,1.15,.18,1.65-2.38,1.6-4.82,2.92-7.33,3.97s-5.3,1.58-8.4,1.58c-2.86,0-5.21-.4-7.06-1.2-1.85-.8-3.37-1.9-4.56-3.3-1.19-1.4-2.03-3-2.5-4.79-.48-1.79-.71-3.74-.71-5.84,0-3.39,.54-6.76,1.61-10.11,1.07-3.34,2.35-6.54,3.84-9.59,1.49-3.04,3.07-5.89,4.73-8.54,1.67-2.65,3.1-5.02,4.29-7.12Z"/><path class="i" d="M947.53,482.83c-6.79-.6-12.21-3.1-16.26-7.5-4.05-4.4-6.07-10-6.07-16.8,0-4,.71-8.15,2.14-12.45,1.43-4.3,3.45-8.47,6.08-12.53,2.62-4.05,5.72-7.88,9.29-11.47,3.57-3.6,7.44-6.7,11.61-9.3,6.55-4.1,12.69-6.15,18.4-6.15,3.81,1.7,7.56,5.25,11.26,10.65,.59,0,1.13-.02,1.61-.08,.47-.05,1.01-.08,1.61-.08,6.31,0,9.47,4.7,9.47,14.1,0,6.3-1.22,12.28-3.66,17.92-2.44,5.65-5.84,10.78-10.18,15.38-4.35,4.6-9.53,8.47-15.54,11.62-6.02,3.15-12.6,5.37-19.74,6.67Zm9.11-47.25c-2.03,2.3-3.93,4.8-5.72,7.5-1.79,2.7-3.34,5.43-4.64,8.17-1.31,2.75-2.32,5.4-3.04,7.95s-1.07,4.83-1.07,6.83c0,2.4,.47,4.7,1.43,6.9,.95,2.2,2.02,3.45,3.22,3.75,5.36-1,10.27-2.87,14.74-5.62,4.47-2.75,8.34-6.17,11.61-10.27,3.27-4.1,5.83-8.75,7.68-13.95,1.85-5.2,2.77-10.75,2.77-16.65,0-2.6-.18-4.65-.54-6.15s-.95-2.8-1.79-3.9c-5.24,1.3-9.92,3.4-14.03,6.3-4.11,2.9-7.66,5.95-10.63,9.15Z"/><path class="i" d="M1009.53,489.13c-1.43,0-2.8-.28-4.11-.83-1.31-.55-2.47-1.2-3.48-1.95-1.01-.75-1.82-1.55-2.41-2.4-.6-.85-.89-1.53-.89-2.03,0-1.2,.18-2.75,.54-4.65s.89-3.72,1.61-5.48c.71-1.75,1.61-3.25,2.68-4.5,1.07-1.25,2.26-1.88,3.57-1.88,3.33,0,6.7,.98,10.09,2.93,3.39,1.95,5.92,4.12,7.59,6.52-1.43,1.3-2.68,2.78-3.75,4.42-1.07,1.65-2.14,3.2-3.22,4.65-1.07,1.45-2.26,2.67-3.57,3.67-1.31,1-2.86,1.5-4.65,1.5Zm3.93-39.75c0-2.7,.86-6.62,2.59-11.77,1.73-5.15,3.96-10.85,6.7-17.1,2.74-6.25,5.83-12.7,9.29-19.35,3.45-6.65,6.94-12.87,10.45-18.67,3.51-5.8,6.88-10.82,10.09-15.08,3.22-4.25,6.01-7.07,8.4-8.48,1.9,.3,3.96,1.03,6.16,2.18,2.2,1.15,4.26,2.45,6.16,3.9,1.9,1.45,3.57,2.98,5,4.58,1.43,1.6,2.26,3,2.5,4.2-6.07,4.2-12.09,9.43-18.04,15.67-5.96,6.25-11.47,13.18-16.53,20.78-5.06,7.6-9.5,15.73-13.31,24.38-3.81,8.65-6.67,17.47-8.58,26.47-1.43-.3-2.83-.67-4.2-1.12-1.37-.45-2.53-1.07-3.48-1.88-.96-.8-1.73-1.9-2.32-3.3-.6-1.4-.89-3.2-.89-5.4Z"/></g></g></g></svg>